<svg width="960" height="302" viewBox="0 0 960 302" fill="none" xmlns="http://www.w3.org/2000/svg">
<mask id="mask0" mask-type="alpha" maskUnits="userSpaceOnUse" x="0" y="0" width="960" height="302">
<rect width="960" height="302" fill="#C4C4C4"/>
</mask>
<g mask="url(#mask0)">
<path d="M123 92.501C9.00031 175.501 8.50057 260 95.9999 284C168.001 303.749 204.061 241.001 184.001 215.5C134.442 152.5 -5.98177 353.406 187.5 368.501C258.334 384.834 435.4 343.601 483 300.001C530.6 256.401 562 201.502 527 168.501C497 148.501 436.389 186.268 483 241.001C549 318.501 667 246.5 712 168.501C780.949 48.9913 930.001 -18.5003 977 83.0002" stroke="#606D7C" stroke-width="2" stroke-dasharray="5 5"/>
<path d="M132 90.5L136 80.5L141 84L132 90.5Z" fill="#606D7C"/>
<path d="M200 47L128.5 74L110.236 61.0122C108.744 59.951 109.344 57.6087 111.163 57.3959L200 47Z" fill="#606D7C"/>
<path d="M200 47L136 80.5L158.731 97.5479C160.525 98.8936 163.075 98.5013 164.381 96.6787L200 47Z" fill="#606D7C"/>
</g>
</svg>
