<svg width="32" height="32" viewBox="0 0 32 32" fill="none" xmlns="http://www.w3.org/2000/svg">
<path fill-rule="evenodd" clip-rule="evenodd" d="M16 32C24.8366 32 32 24.8366 32 16C32 7.16344 24.8366 0 16 0C7.16344 0 0 7.16344 0 16C0 24.8366 7.16344 32 16 32ZM17.4964 16.8919V26H13.9488V16.8852H11V13.3191H13.9424V10.702C13.9424 7.65821 15.7397 6.00017 18.3575 6.00017C19.2401 5.99683 20.1228 6.04351 21 6.1413V9.32069H19.1962C17.7727 9.32069 17.4964 10.0252 17.4964 11.0543V13.3258H20.8982L20.458 16.8919H17.4964Z" fill="white"/>
</svg>
