<svg width="32" height="32" viewBox="0 0 32 32" fill="none" xmlns="http://www.w3.org/2000/svg">
<path fill-rule="evenodd" clip-rule="evenodd" d="M32 16C32 24.8366 24.8366 32 16 32C7.16344 32 0 24.8366 0 16C0 7.16344 7.16344 0 16 0C24.8366 0 32 7.16344 32 16ZM24.942 12.3216C24.931 11.565 24.7911 10.8143 24.5232 10.1066C24.0544 8.89816 23.0998 7.94258 21.8914 7.47479C21.1927 7.21191 20.454 7.07097 19.7064 7.05498C18.7448 7.01199 18.4399 7 15.999 7C13.5581 7 13.2452 7 12.2906 7.05498C11.544 7.07097 10.8053 7.21191 10.1066 7.47479C8.89816 7.94258 7.94258 8.89816 7.47479 10.1066C7.21191 10.8053 7.06997 11.544 7.05597 12.2906C7.01299 13.2532 7 13.5581 7 15.999C7 18.4399 7 18.7518 7.05597 19.7074C7.07097 20.455 7.21191 21.1927 7.47479 21.8934C7.94358 23.1008 8.89816 24.0564 10.1076 24.5242C10.8033 24.7961 11.542 24.95 12.2916 24.974C13.2542 25.017 13.5591 25.03 16 25.03C18.4409 25.03 18.7538 25.03 19.7084 24.974C20.455 24.959 21.1937 24.8181 21.8934 24.5552C23.1018 24.0864 24.0564 23.1308 24.5252 21.9234C24.7881 21.2237 24.929 20.486 24.944 19.7373C24.987 18.7758 25 18.4709 25 16.029L25 15.9956V15.9955C24.998 13.5852 24.9977 13.2738 24.942 12.3216ZM15.993 20.6149C13.4401 20.6149 11.3721 18.5469 11.3721 15.994C11.3721 13.4411 13.4401 11.3731 15.993 11.3731C18.5439 11.3731 20.614 13.4411 20.614 15.994C20.614 18.5469 18.5439 20.6149 15.993 20.6149ZM20.7979 12.2797C20.2011 12.2797 19.7203 11.7979 19.7203 11.2021C19.7203 10.6064 20.2011 10.1246 20.7979 10.1246C21.3926 10.1246 21.8744 10.6064 21.8744 11.2021C21.8744 11.7979 21.3926 12.2797 20.7979 12.2797ZM18.995 15.9938C18.995 17.6514 17.6512 18.9952 15.9936 18.9952C14.336 18.9952 12.9922 17.6514 12.9922 15.9938C12.9922 14.3362 14.336 12.9924 15.9936 12.9924C17.6512 12.9924 18.995 14.3362 18.995 15.9938Z" fill="white"/>
</svg>
