<svg width="32" height="32" viewBox="0 0 32 32" fill="none" xmlns="http://www.w3.org/2000/svg">
<path fill-rule="evenodd" clip-rule="evenodd" d="M16 32C24.8366 32 32 24.8366 32 16C32 7.16344 24.8366 0 16 0C7.16344 0 0 7.16344 0 16C0 24.8366 7.16344 32 16 32ZM24.2885 19.1697C24.0949 18.9908 23.9012 18.8119 23.7104 18.6301C23.0602 18.0115 23.0186 17.6525 23.542 16.9403C23.8453 16.5251 24.1612 16.1188 24.477 15.7126C24.7545 15.3556 25.032 14.9988 25.3007 14.6362C25.321 14.6087 25.3413 14.5813 25.3616 14.5539C25.8792 13.8551 26.3984 13.1543 26.6702 12.3196C26.8495 11.7667 26.6905 11.5231 26.11 11.4266C26.011 11.4101 25.9077 11.4086 25.8055 11.4086L22.3606 11.4056C21.9361 11.3976 21.7012 11.5785 21.5514 11.9461C21.3494 12.4414 21.1409 12.9372 20.8984 13.4146C20.3519 14.5002 19.7403 15.5487 18.8833 16.4359C18.8711 16.4485 18.8587 16.4613 18.8463 16.4743C18.6661 16.662 18.4645 16.872 18.1684 16.7776C17.7731 16.6359 17.6573 16.0006 17.6634 15.7865L17.6604 11.9084C17.5832 11.3554 17.4581 11.1085 16.8946 11H13.3152C12.8379 11 12.5985 11.1809 12.3439 11.4716C12.1974 11.6401 12.1523 11.75 12.455 11.8059C13.0482 11.9157 13.3831 12.2911 13.4712 12.8709C13.6148 13.8 13.604 14.7308 13.5222 15.6632C13.4974 15.9343 13.4494 16.2068 13.3398 16.4598C13.167 16.8589 12.8874 16.9402 12.5201 16.6949C12.1881 16.4734 11.9549 16.1586 11.7263 15.8438C10.8677 14.6615 10.1837 13.386 9.62473 12.0453C9.46258 11.6584 9.18458 11.4235 8.76465 11.4175C7.73023 11.4007 6.69715 11.3993 5.66394 11.4189C5.04172 11.4293 4.85644 11.7246 5.10979 12.2746C6.23537 14.716 7.48772 17.0909 9.12308 19.2521C9.96301 20.362 10.928 21.3424 12.1724 22.0369C13.5839 22.8246 15.1034 23.0609 16.7044 22.9873C17.4535 22.954 17.6789 22.7627 17.7129 22.0353C17.7376 21.5367 17.7947 21.0414 18.0463 20.594C18.2934 20.1542 18.6687 20.0704 19.101 20.3441C19.3172 20.481 19.4981 20.6542 19.6709 20.8383C19.8073 20.9839 19.942 21.1309 20.0767 21.278C20.3586 21.5856 20.6405 21.8932 20.9372 22.1879C21.4851 22.7327 22.1367 23.0534 22.9536 22.9873L26.1207 22.9887C26.6302 22.9556 26.8958 22.3457 26.6026 21.7915C26.3957 21.4016 26.1252 21.055 25.8395 20.719C25.3638 20.1631 24.8264 19.6666 24.2885 19.1697Z" fill="white"/>
</svg>
