<svg width="80" height="80" viewBox="0 0 80 80" fill="none" xmlns="http://www.w3.org/2000/svg">
<path d="M18.001 21V17C18.001 14.7909 19.7918 13 22.001 13H70.001C72.2101 13 74.001 14.7909 74.001 17V49C74.001 51.2091 72.2101 53 70.001 53H49.001" stroke="#34353E" stroke-width="3"/>
<path d="M24.001 20L46.001 39L68.001 20" stroke="#34353E" stroke-width="3" stroke-linecap="round" stroke-linejoin="round"/>
<path d="M53.001 34L68.001 47" stroke="#34353E" stroke-width="3" stroke-linecap="round" stroke-linejoin="round"/>
<path d="M26.001 45L40.001 33" stroke="#34353E" stroke-width="3" stroke-linejoin="round"/>
<path d="M20.0649 54.917C15.5328 50.3028 6.62944 39.8515 4.77573 33.8243C4.72209 33.6499 4.69841 33.4726 4.70376 33.2902C4.8199 29.3299 7.3391 25.2192 9.98961 22.678C10.5212 22.1683 11.3134 22.0505 11.9687 22.3866C16.139 24.5251 19.1283 28.5613 20.6189 33.3463C20.8176 33.9842 20.6525 34.6803 20.1701 35.1424C18.8541 36.4028 17.1142 37.6168 15.9318 37.8652C17.3078 42.1204 19.7477 46.0315 24.3454 50.7126" stroke="#34353E" stroke-width="3"/>
<path d="M20.0227 54.8744C24.5547 59.4885 34.8445 68.5782 40.8374 70.5398C41.0108 70.5965 41.1877 70.6234 41.3702 70.6213C45.3319 70.5763 49.4872 68.1313 52.0756 65.5269C52.5947 65.0045 52.7267 64.2146 52.4025 63.5533C50.3392 59.3453 46.3573 56.284 41.5998 54.7077C40.9656 54.4976 40.2667 54.6502 39.796 55.1243C38.5121 56.4174 37.267 58.1352 36.9975 59.313C32.7677 57.8608 28.901 55.3511 24.3032 50.67" stroke="#34353E" stroke-width="3"/>
</svg>
