<svg width="80" height="80" viewBox="0 0 80 80" fill="none" xmlns="http://www.w3.org/2000/svg">
<circle cx="40" cy="40" r="33.5" stroke="#34353E" stroke-width="3"/>
<path fill-rule="evenodd" clip-rule="evenodd" d="M66.0016 40C66.0016 54.3594 54.361 66 40.0016 66C27.0025 66 16.2314 56.4604 14.3074 44H12.2852C14.2261 57.5692 25.8957 68 40.0016 68C55.4656 68 68.0016 55.464 68.0016 40C68.0016 24.536 55.4656 12 40.0016 12C25.8957 12 14.2261 22.4308 12.2852 36H14.3074C16.2314 23.5396 27.0025 14 40.0016 14C54.361 14 66.0016 25.6406 66.0016 40Z" fill="#34353E"/>
<path fill-rule="evenodd" clip-rule="evenodd" d="M56.9984 40C56.9984 49.3888 49.3872 57 39.9984 57C31.9873 57 25.2704 51.4587 23.4716 44H20.3984C22.2515 53.129 30.3225 60 39.9984 60C51.0441 60 59.9984 51.0457 59.9984 40C59.9984 28.9543 51.0441 20 39.9984 20C30.3225 20 22.2515 26.871 20.3984 36H23.4716C25.2704 28.5413 31.9873 23 39.9984 23C49.3872 23 56.9984 30.6112 56.9984 40Z" fill="#34353E"/>
<rect x="38" y="13" width="4" height="8" fill="#34353E"/>
<rect x="38" y="59" width="4" height="8" fill="#34353E"/>
<rect x="19.4922" y="22.3223" width="4" height="8" transform="rotate(-45 19.4922 22.3223)" fill="#34353E"/>
<rect x="52.0195" y="54.8496" width="4" height="8" transform="rotate(-45 52.0195 54.8496)" fill="#34353E"/>
<rect x="57.6797" y="19.4941" width="4" height="8" transform="rotate(45 57.6797 19.4941)" fill="#34353E"/>
<rect x="25.1523" y="52.0215" width="4" height="8" transform="rotate(45 25.1523 52.0215)" fill="#34353E"/>
<rect x="12" y="42" width="4" height="14" transform="rotate(-90 12 42)" fill="#34353E"/>
<rect x="59" y="42" width="4" height="8" transform="rotate(-90 59 42)" fill="#34353E"/>
</svg>
