<svg width="80" height="80" viewBox="0 0 80 80" fill="none" xmlns="http://www.w3.org/2000/svg">
<path fill-rule="evenodd" clip-rule="evenodd" d="M67.05 8H13.95V10C13.95 11.1046 14.8305 12 15.9167 12H65.0833C66.1695 12 67.05 11.1046 67.05 10V8ZM11 5V10C11 12.7614 13.2013 15 15.9167 15H65.0833C67.7987 15 70 12.7614 70 10V5H11Z" fill="#34353E"/>
<path fill-rule="evenodd" clip-rule="evenodd" d="M26 15H29V22.3787L36.0607 29.4393L33.9393 31.5607L26 23.6213V15Z" fill="#34353E"/>
<path fill-rule="evenodd" clip-rule="evenodd" d="M55 15H52V22.3787L44.9393 29.4393L47.0607 31.5607L55 23.6213V15Z" fill="#34353E"/>
<path fill-rule="evenodd" clip-rule="evenodd" d="M27 30.5C27 29.6716 27.6716 29 28.5 29H52.5C53.3284 29 54 29.6716 54 30.5C54 31.3284 53.3284 32 52.5 32H28.5C27.6716 32 27 31.3284 27 30.5Z" fill="#34353E"/>
<path fill-rule="evenodd" clip-rule="evenodd" d="M39 30V14H42V30H39Z" fill="#34353E"/>
<path fill-rule="evenodd" clip-rule="evenodd" d="M25.9991 41L31.9991 30L34.6328 31.4365L28.6328 42.4365L25.9991 41Z" fill="#34353E"/>
<path fill-rule="evenodd" clip-rule="evenodd" d="M53.8168 38.7793L49.0009 29.997L46.3704 31.4395L51.1863 40.2217L53.8168 38.7793Z" fill="#34353E"/>
<path fill-rule="evenodd" clip-rule="evenodd" d="M30.056 64.84L31.024 66.3226C33.26 69.7473 37.1177 72 41.5 72C44.9497 72 48.0683 70.6065 50.3332 68.3445L51.6119 67.0674L53.3387 67.6009C54.1761 67.8596 55.0689 68 56 68C60.9706 68 65 63.9706 65 59C65 54.7672 62.0751 51.2102 58.1325 50.2534L56.1713 49.7775L55.8729 47.7816C55.0454 42.2463 50.2659 38 44.5 38C40.3836 38 36.7695 40.1607 34.7338 43.4241L33.4396 45.4989L31.1465 44.6496C30.0146 44.2304 28.7876 44 27.5 44C21.701 44 17 48.701 17 54.5C17 60.299 21.701 65 27.5 65C27.7664 65 28.0299 64.9901 28.2902 64.9708L30.056 64.84ZM28.512 67.9626C28.1779 67.9874 27.8404 68 27.5 68C20.0442 68 14 61.9558 14 54.5C14 47.0442 20.0442 41 27.5 41C29.1485 41 30.728 41.2955 32.1884 41.8364C34.749 37.7314 39.3055 35 44.5 35C51.7734 35 57.7961 40.3553 58.8399 47.338C64.0966 48.6137 68 53.351 68 59C68 65.6274 62.6274 71 56 71C54.7653 71 53.5741 70.8135 52.4531 70.4672C49.6487 73.268 45.7766 75 41.5 75C36.0622 75 31.2784 72.1998 28.512 67.9626Z" fill="#34353E"/>
</svg>
