<svg width="305" height="227" viewBox="0 0 305 227" fill="none" xmlns="http://www.w3.org/2000/svg">
<path fill-rule="evenodd" clip-rule="evenodd" d="M0 59.9836C0 47.4228 10.1825 37.2402 22.7433 37.2402C35.3041 37.2402 45.4867 47.4228 45.4867 59.9836V182.078H36.3893V59.9836C36.3893 52.4471 30.2798 46.3376 22.7433 46.3376C15.2069 46.3376 9.09733 52.4471 9.09733 59.9836V182.078H0V59.9836Z" fill="#606D7C"/>
<path fill-rule="evenodd" clip-rule="evenodd" d="M0 182.078C0 169.628 10.243 159.62 22.5995 159.62C35.1136 159.62 45.4867 169.756 45.4867 182.363V185.063H36.3893V182.363C36.3893 174.873 30.1827 168.717 22.5995 168.717C15.1739 168.717 9.09733 174.746 9.09733 182.078C9.09733 189.457 15.0791 195.439 22.4579 195.439H128.879V204.536H22.4579C10.0548 204.536 0 194.481 0 182.078Z" fill="#606D7C"/>
<path fill-rule="evenodd" clip-rule="evenodd" d="M127.363 64.2477H37.9062V55.1504H127.363V64.2477Z" fill="#606D7C"/>
<rect x="65.1992" y="92.5322" width="9.09733" height="86.5614" fill="#606D7C"/>
<rect x="101.586" y="107.457" width="9.09733" height="47.758" fill="#606D7C"/>
<rect x="65.1992" y="92.5322" width="8.95463" height="54.584" transform="rotate(-90 65.1992 92.5322)" fill="#606D7C"/>
<rect x="65.1992" y="179.094" width="8.95463" height="54.584" transform="rotate(-90 65.1992 179.094)" fill="#606D7C"/>
<rect x="110.684" y="137.305" width="8.95463" height="9.09733" transform="rotate(-90 110.684 137.305)" fill="#606D7C"/>
<rect x="74.2969" y="125.365" width="8.95463" height="27.292" transform="rotate(-90 74.2969 125.365)" fill="#606D7C"/>
<path fill-rule="evenodd" clip-rule="evenodd" d="M131.911 8.95463H271.403C273.078 8.95463 274.436 10.291 274.436 11.9395V140.851C277.574 141.32 280.616 142.076 283.533 143.091V11.9395C283.533 5.3455 278.103 0 271.403 0H131.911C125.212 0 119.781 5.3455 119.781 11.9395V202.972C119.781 209.566 125.212 214.911 131.911 214.911H223.962C222.24 212.097 220.796 209.1 219.667 205.956H131.911C130.236 205.956 128.879 204.62 128.879 202.972V11.9395C128.879 10.291 130.236 8.95463 131.911 8.95463Z" fill="#606D7C"/>
<path fill-rule="evenodd" clip-rule="evenodd" d="M266.855 217.753C282.901 217.753 295.663 204.986 295.663 189.539C295.663 174.093 282.901 161.326 266.855 161.326C250.808 161.326 238.047 174.093 238.047 189.539C238.047 204.986 250.808 217.753 266.855 217.753ZM266.855 226.85C287.789 226.85 304.76 210.146 304.76 189.539C304.76 168.933 287.789 152.229 266.855 152.229C245.92 152.229 228.949 168.933 228.949 189.539C228.949 210.146 245.92 226.85 266.855 226.85Z" fill="#606D7C"/>
<path fill-rule="evenodd" clip-rule="evenodd" d="M286.971 179.1C288.616 180.999 288.41 183.871 286.511 185.516L265.836 203.425C264.059 204.964 261.403 204.896 259.707 203.269L250.059 194.005C248.246 192.265 248.188 189.386 249.928 187.574C251.667 185.761 254.547 185.703 256.359 187.443L263.015 193.833L280.555 178.64C282.454 176.995 285.327 177.201 286.971 179.1Z" fill="#606D7C"/>
<rect x="150.105" y="131.335" width="103.103" height="8.95463" rx="2" fill="#606D7C"/>
<rect x="150.105" y="152.229" width="57.6164" height="8.95463" rx="2" fill="#606D7C"/>
<path fill-rule="evenodd" clip-rule="evenodd" d="M168.3 35.9616V101.343H235.014V35.9616H168.3ZM165.268 26.8643C161.918 26.8643 159.203 29.5796 159.203 32.9291V104.376C159.203 107.725 161.918 110.441 165.268 110.441H238.047C241.396 110.441 244.112 107.725 244.112 104.376V32.9291C244.112 29.5796 241.396 26.8643 238.047 26.8643H165.268Z" fill="#606D7C"/>
<ellipse cx="201.659" cy="68.6524" rx="6.06489" ry="5.96975" fill="#606D7C"/>
<path fill-rule="evenodd" clip-rule="evenodd" d="M216.819 53.8227H186.495L186.495 83.4812H216.819V53.8227ZM186.495 47.7578C183.145 47.7578 180.43 50.4732 180.43 53.8227V83.4812C180.43 86.8307 183.145 89.5461 186.495 89.5461H216.819C220.169 89.5461 222.884 86.8307 222.884 83.4812V53.8227C222.884 50.4732 220.169 47.7578 216.819 47.7578H186.495Z" fill="#606D7C"/>
</svg>
