<svg width="193" height="384" viewBox="0 0 193 384" fill="none" xmlns="http://www.w3.org/2000/svg">
<circle cx="16.9688" cy="86.9707" r="3" fill="#D7D8DC"/>
<rect x="7.77734" y="79.1924" width="2" height="8" rx="1" transform="rotate(-45 7.77734 79.1924)" fill="#D7D8DC"/>
<rect x="19.0938" y="90.5059" width="2" height="8" rx="1" transform="rotate(-45 19.0938 90.5059)" fill="#D7D8DC"/>
<rect x="9.19141" y="96.1631" width="2" height="8" rx="1" transform="rotate(-135 9.19141 96.1631)" fill="#D7D8DC"/>
<rect x="20.5039" y="84.8496" width="2" height="8" rx="1" transform="rotate(-135 20.5039 84.8496)" fill="#D7D8DC"/>
<rect x="105" y="8" width="4" height="8" stroke="#D7D8DC" stroke-width="2"/>
<path d="M117 2L109 8V16L117 22V2Z" stroke="#D7D8DC" stroke-width="2"/>
<path d="M83.8721 49.8921C84.4106 49.7697 84.9589 50.1073 84.9903 50.6587C85.0222 51.2181 84.9756 51.7808 84.8507 52.3304C84.6515 53.2061 84.2583 54.026 83.7001 54.7295C83.1419 55.433 82.4328 56.0022 81.6253 56.3952C80.8177 56.7881 79.9322 56.9948 79.0341 56.9999C78.1361 57.005 77.2483 56.8085 76.4363 56.4247C75.6243 56.041 74.9089 55.4799 74.3426 54.7827C73.7764 54.0856 73.374 53.2703 73.1649 52.3969C73.0337 51.8488 72.9807 51.2866 73.0062 50.7269C73.0314 50.1752 73.5757 49.8313 74.1156 49.9477C74.6555 50.064 74.9888 50.6008 75.01 51.1526C75.0199 51.4137 75.0556 51.674 75.1168 51.9296C75.2559 52.5109 75.5238 53.0535 75.9006 53.5174C76.2774 53.9813 76.7535 54.3547 77.2939 54.6101C77.8343 54.8655 78.4251 54.9963 79.0227 54.9929C79.6204 54.9895 80.2097 54.852 80.7471 54.5905C81.2845 54.329 81.7564 53.9501 82.1279 53.4819C82.4994 53.0138 82.761 52.4681 82.8936 51.8854C82.9519 51.629 82.9845 51.3684 82.9915 51.1072C83.0063 50.5551 83.3336 50.0146 83.8721 49.8921Z" fill="#D7D8DC"/>
<rect x="78" y="55" width="2" height="8" rx="1" fill="#D7D8DC"/>
<rect x="168" y="45" width="2" height="10" rx="1" fill="#D7D8DC"/>
<rect x="164" y="51" width="2" height="10" rx="1" transform="rotate(-90 164 51)" fill="#D7D8DC"/>
<circle cx="39" cy="12" r="3" stroke="#D7D8DC" stroke-width="2"/>
<path d="M70 128H76" stroke="#D7D8DC" stroke-width="2" stroke-linecap="round" stroke-linejoin="round"/>
<mask id="mask0" mask-type="alpha" maskUnits="userSpaceOnUse" x="95" y="70" width="98" height="314">
<rect x="95" y="70" width="98" height="314" fill="#C4C4C4"/>
</mask>
<g mask="url(#mask0)">
<path d="M106.743 153.004C106.743 154.53 105.438 155.837 103.915 155.837C102.391 155.837 101.086 154.53 101.086 153.004C101.086 151.479 102.391 150.172 103.915 150.172C105.438 150.172 106.743 151.479 106.743 153.004Z" fill="white" fill-opacity="0.5"/>
<path d="M106.743 178.061C106.743 179.586 105.438 180.894 103.915 180.894C102.391 180.894 101.086 179.586 101.086 178.061C101.086 176.536 102.391 175.229 103.915 175.229C105.438 175.229 106.743 176.536 106.743 178.061Z" fill="white" fill-opacity="0.5"/>
<path d="M106.743 203.227C106.743 204.752 105.438 206.06 103.915 206.06C102.391 206.06 101.086 204.752 101.086 203.227C101.086 201.702 102.391 200.395 103.915 200.395C105.438 200.395 106.743 201.702 106.743 203.227Z" fill="white" fill-opacity="0.5"/>
<path d="M133.614 153.004C133.614 154.53 132.309 155.837 130.786 155.837C129.263 155.837 127.957 154.53 127.957 153.004C127.957 151.479 129.263 150.172 130.786 150.172C132.309 150.172 133.614 151.479 133.614 153.004Z" fill="white" fill-opacity="0.5"/>
<path d="M133.614 178.061C133.614 179.586 132.309 180.894 130.786 180.894C129.263 180.894 127.957 179.586 127.957 178.061C127.957 176.536 129.263 175.229 130.786 175.229C132.309 175.229 133.614 176.536 133.614 178.061Z" fill="white" fill-opacity="0.5"/>
<path d="M133.614 203.227C133.614 204.752 132.309 206.06 130.786 206.06C129.263 206.06 127.957 204.752 127.957 203.227C127.957 201.702 129.263 200.395 130.786 200.395C132.309 200.395 133.614 201.702 133.614 203.227Z" fill="white" fill-opacity="0.5"/>
<path d="M160.595 153.004C160.595 154.53 159.289 155.837 157.766 155.837C156.243 155.837 154.938 154.53 154.938 153.004C154.938 151.479 156.243 150.172 157.766 150.172C159.289 150.172 160.595 151.479 160.595 153.004Z" fill="white" fill-opacity="0.5"/>
<path d="M160.595 178.061C160.595 179.586 159.289 180.894 157.766 180.894C156.243 180.894 154.938 179.586 154.938 178.061C154.938 176.536 156.243 175.229 157.766 175.229C159.289 175.229 160.595 176.536 160.595 178.061Z" fill="white" fill-opacity="0.5"/>
<path d="M160.595 203.227C160.595 204.752 159.289 206.06 157.766 206.06C156.243 206.06 154.938 204.752 154.938 203.227C154.938 201.702 156.243 200.395 157.766 200.395C159.289 200.395 160.595 201.702 160.595 203.227Z" fill="white" fill-opacity="0.5"/>
<path d="M133.614 77.8326C133.614 79.3578 132.309 80.6651 130.786 80.6651C129.263 80.6651 127.957 79.3578 127.957 77.8326C127.957 76.3073 129.263 75 130.786 75C132.309 75 133.614 76.3073 133.614 77.8326Z" fill="white" fill-opacity="0.5"/>
<path d="M133.614 102.889C133.614 104.414 132.309 105.722 130.786 105.722C129.263 105.722 127.957 104.414 127.957 102.889C127.957 101.364 129.263 100.057 130.786 100.057C132.309 100.057 133.614 101.364 133.614 102.889Z" fill="white" fill-opacity="0.5"/>
<path d="M133.614 127.947C133.614 129.472 132.309 130.779 130.786 130.779C129.263 130.779 127.957 129.472 127.957 127.947C127.957 126.422 129.263 125.114 130.786 125.114C132.309 125.114 133.614 126.422 133.614 127.947Z" fill="white" fill-opacity="0.5"/>
<path d="M160.595 77.8326C160.595 79.3578 159.289 80.6651 157.766 80.6651C156.243 80.6651 154.938 79.3578 154.938 77.8326C154.938 76.3073 156.243 75 157.766 75C159.289 75 160.595 76.3073 160.595 77.8326Z" fill="white" fill-opacity="0.5"/>
<path d="M160.595 102.889C160.595 104.414 159.289 105.722 157.766 105.722C156.243 105.722 154.938 104.414 154.938 102.889C154.938 101.364 156.243 100.057 157.766 100.057C159.289 100.057 160.595 101.364 160.595 102.889Z" fill="white" fill-opacity="0.5"/>
<path d="M160.595 127.947C160.595 129.472 159.289 130.779 157.766 130.779C156.243 130.779 154.938 129.472 154.938 127.947C154.938 126.422 156.243 125.114 157.766 125.114C159.289 125.114 160.595 126.422 160.595 127.947Z" fill="white" fill-opacity="0.5"/>
<path d="M187.579 77.8326C187.579 79.3578 186.274 80.6651 184.751 80.6651C183.227 80.6651 181.922 79.3578 181.922 77.8326C181.922 76.3073 183.227 75 184.751 75C186.274 75 187.579 76.3073 187.579 77.8326Z" fill="white" fill-opacity="0.5"/>
<path d="M187.579 102.889C187.579 104.414 186.274 105.722 184.751 105.722C183.227 105.722 181.922 104.414 181.922 102.889C181.922 101.364 183.227 100.057 184.751 100.057C186.274 100.057 187.579 101.364 187.579 102.889Z" fill="white" fill-opacity="0.5"/>
<path d="M187.579 127.947C187.579 129.472 186.274 130.779 184.751 130.779C183.227 130.779 181.922 129.472 181.922 127.947C181.922 126.422 183.227 125.114 184.751 125.114C186.274 125.114 187.579 126.422 187.579 127.947Z" fill="white" fill-opacity="0.5"/>
<path d="M106.657 77.8326C106.657 79.3578 105.352 80.6651 103.829 80.6651C102.306 80.6651 101 79.3578 101 77.8326C101 76.3073 102.306 75 103.829 75C105.352 75 106.657 76.3073 106.657 77.8326Z" fill="white" fill-opacity="0.5"/>
<path d="M106.657 102.889C106.657 104.414 105.352 105.722 103.829 105.722C102.306 105.722 101 104.414 101 102.889C101 101.364 102.306 100.057 103.829 100.057C105.352 100.057 106.657 101.364 106.657 102.889Z" fill="white" fill-opacity="0.5"/>
<path d="M106.657 127.947C106.657 129.472 105.352 130.779 103.829 130.779C102.306 130.779 101 129.472 101 127.947C101 126.422 102.306 125.114 103.829 125.114C105.352 125.114 106.657 126.422 106.657 127.947Z" fill="white" fill-opacity="0.5"/>
<path d="M187.579 153.004C187.579 154.53 186.274 155.837 184.751 155.837C183.227 155.837 181.922 154.53 181.922 153.004C181.922 151.479 183.227 150.172 184.751 150.172C186.274 150.172 187.579 151.479 187.579 153.004Z" fill="white" fill-opacity="0.5"/>
<path d="M187.579 178.061C187.579 179.586 186.274 180.894 184.751 180.894C183.227 180.894 181.922 179.586 181.922 178.061C181.922 176.536 183.227 175.229 184.751 175.229C186.274 175.229 187.579 176.536 187.579 178.061Z" fill="white" fill-opacity="0.5"/>
<path d="M187.579 203.227C187.579 204.752 186.274 206.06 184.751 206.06C183.227 206.06 181.922 204.752 181.922 203.227C181.922 201.702 183.227 200.395 184.751 200.395C186.274 200.395 187.579 201.702 187.579 203.227Z" fill="white" fill-opacity="0.5"/>
<path d="M106.743 278.004C106.743 279.53 105.438 280.837 103.915 280.837C102.391 280.837 101.086 279.53 101.086 278.004C101.086 276.479 102.391 275.172 103.915 275.172C105.438 275.172 106.743 276.479 106.743 278.004Z" fill="white" fill-opacity="0.5"/>
<path d="M106.743 303.061C106.743 304.586 105.438 305.894 103.915 305.894C102.391 305.894 101.086 304.586 101.086 303.061C101.086 301.536 102.391 300.229 103.915 300.229C105.438 300.229 106.743 301.536 106.743 303.061Z" fill="white" fill-opacity="0.5"/>
<path d="M133.614 278.004C133.614 279.53 132.309 280.837 130.786 280.837C129.263 280.837 127.957 279.53 127.957 278.004C127.957 276.479 129.263 275.172 130.786 275.172C132.309 275.172 133.614 276.479 133.614 278.004Z" fill="white" fill-opacity="0.5"/>
<path d="M133.614 303.061C133.614 304.586 132.309 305.894 130.786 305.894C129.263 305.894 127.957 304.586 127.957 303.061C127.957 301.536 129.263 300.229 130.786 300.229C132.309 300.229 133.614 301.536 133.614 303.061Z" fill="white" fill-opacity="0.5"/>
<path d="M160.595 278.004C160.595 279.53 159.289 280.837 157.766 280.837C156.243 280.837 154.938 279.53 154.938 278.004C154.938 276.479 156.243 275.172 157.766 275.172C159.289 275.172 160.595 276.479 160.595 278.004Z" fill="white" fill-opacity="0.5"/>
<path d="M160.595 303.061C160.595 304.586 159.289 305.894 157.766 305.894C156.243 305.894 154.938 304.586 154.938 303.061C154.938 301.536 156.243 300.229 157.766 300.229C159.289 300.229 160.595 301.536 160.595 303.061Z" fill="white" fill-opacity="0.5"/>
<path d="M133.614 227.889C133.614 229.414 132.309 230.722 130.786 230.722C129.263 230.722 127.957 229.414 127.957 227.889C127.957 226.364 129.263 225.057 130.786 225.057C132.309 225.057 133.614 226.364 133.614 227.889Z" fill="white" fill-opacity="0.5"/>
<path d="M133.614 252.947C133.614 254.472 132.309 255.779 130.786 255.779C129.263 255.779 127.957 254.472 127.957 252.947C127.957 251.422 129.263 250.114 130.786 250.114C132.309 250.114 133.614 251.422 133.614 252.947Z" fill="white" fill-opacity="0.5"/>
<path d="M160.595 227.889C160.595 229.414 159.289 230.722 157.766 230.722C156.243 230.722 154.938 229.414 154.938 227.889C154.938 226.364 156.243 225.057 157.766 225.057C159.289 225.057 160.595 226.364 160.595 227.889Z" fill="white" fill-opacity="0.5"/>
<path d="M160.595 253.947C160.595 255.472 159.289 256.779 157.766 256.779C156.243 256.779 154.938 255.472 154.938 253.947C154.938 252.422 156.243 251.114 157.766 251.114C159.289 251.114 160.595 252.422 160.595 253.947Z" fill="white" fill-opacity="0.5"/>
<path d="M187.579 227.889C187.579 229.414 186.274 230.722 184.751 230.722C183.227 230.722 181.922 229.414 181.922 227.889C181.922 226.364 183.227 225.057 184.751 225.057C186.274 225.057 187.579 226.364 187.579 227.889Z" fill="white" fill-opacity="0.5"/>
<path d="M187.579 252.947C187.579 254.472 186.274 255.779 184.751 255.779C183.227 255.779 181.922 254.472 181.922 252.947C181.922 251.422 183.227 250.114 184.751 250.114C186.274 250.114 187.579 251.422 187.579 252.947Z" fill="white" fill-opacity="0.5"/>
<path d="M106.657 227.889C106.657 229.414 105.352 230.722 103.829 230.722C102.306 230.722 101 229.414 101 227.889C101 226.364 102.306 225.057 103.829 225.057C105.352 225.057 106.657 226.364 106.657 227.889Z" fill="white" fill-opacity="0.5"/>
<path d="M106.657 252.947C106.657 254.472 105.352 255.779 103.829 255.779C102.306 255.779 101 254.472 101 252.947C101 251.422 102.306 250.114 103.829 250.114C105.352 250.114 106.657 251.422 106.657 252.947Z" fill="white" fill-opacity="0.5"/>
<path d="M187.579 279.004C187.579 280.53 186.274 281.837 184.751 281.837C183.227 281.837 181.922 280.53 181.922 279.004C181.922 277.479 183.227 276.172 184.751 276.172C186.274 276.172 187.579 277.479 187.579 279.004Z" fill="white" fill-opacity="0.5"/>
<path d="M187.579 304.061C187.579 305.586 186.274 306.894 184.751 306.894C183.227 306.894 181.922 305.586 181.922 304.061C181.922 302.536 183.227 301.229 184.751 301.229C186.274 301.229 187.579 302.536 187.579 304.061Z" fill="white" fill-opacity="0.5"/>
<path d="M133.614 327.833C133.614 329.358 132.309 330.665 130.786 330.665C129.263 330.665 127.957 329.358 127.957 327.833C127.957 326.307 129.263 325 130.786 325C132.309 325 133.614 326.307 133.614 327.833Z" fill="white" fill-opacity="0.5"/>
<path d="M133.614 352.889C133.614 354.414 132.309 355.722 130.786 355.722C129.263 355.722 127.957 354.414 127.957 352.889C127.957 351.364 129.263 350.057 130.786 350.057C132.309 350.057 133.614 351.364 133.614 352.889Z" fill="white" fill-opacity="0.5"/>
<path d="M133.614 377.947C133.614 379.472 132.309 380.779 130.786 380.779C129.263 380.779 127.957 379.472 127.957 377.947C127.957 376.422 129.263 375.114 130.786 375.114C132.309 375.114 133.614 376.422 133.614 377.947Z" fill="white" fill-opacity="0.5"/>
<path d="M160.595 327.833C160.595 329.358 159.289 330.665 157.766 330.665C156.243 330.665 154.938 329.358 154.938 327.833C154.938 326.307 156.243 325 157.766 325C159.289 325 160.595 326.307 160.595 327.833Z" fill="white" fill-opacity="0.5"/>
<path d="M160.595 352.889C160.595 354.414 159.289 355.722 157.766 355.722C156.243 355.722 154.938 354.414 154.938 352.889C154.938 351.364 156.243 350.057 157.766 350.057C159.289 350.057 160.595 351.364 160.595 352.889Z" fill="white" fill-opacity="0.5"/>
<path d="M160.595 377.947C160.595 379.472 159.289 380.779 157.766 380.779C156.243 380.779 154.938 379.472 154.938 377.947C154.938 376.422 156.243 375.114 157.766 375.114C159.289 375.114 160.595 376.422 160.595 377.947Z" fill="white" fill-opacity="0.5"/>
<path d="M187.579 327.833C187.579 329.358 186.274 330.665 184.751 330.665C183.227 330.665 181.922 329.358 181.922 327.833C181.922 326.307 183.227 325 184.751 325C186.274 325 187.579 326.307 187.579 327.833Z" fill="white" fill-opacity="0.5"/>
<path d="M187.579 352.889C187.579 354.414 186.274 355.722 184.751 355.722C183.227 355.722 181.922 354.414 181.922 352.889C181.922 351.364 183.227 350.057 184.751 350.057C186.274 350.057 187.579 351.364 187.579 352.889Z" fill="white" fill-opacity="0.5"/>
<path d="M187.579 377.947C187.579 379.472 186.274 380.779 184.751 380.779C183.227 380.779 181.922 379.472 181.922 377.947C181.922 376.422 183.227 375.114 184.751 375.114C186.274 375.114 187.579 376.422 187.579 377.947Z" fill="white" fill-opacity="0.5"/>
<path d="M106.657 327.833C106.657 329.358 105.352 330.665 103.829 330.665C102.306 330.665 101 329.358 101 327.833C101 326.307 102.306 325 103.829 325C105.352 325 106.657 326.307 106.657 327.833Z" fill="white" fill-opacity="0.5"/>
<path d="M106.657 352.889C106.657 354.414 105.352 355.722 103.829 355.722C102.306 355.722 101 354.414 101 352.889C101 351.364 102.306 350.057 103.829 350.057C105.352 350.057 106.657 351.364 106.657 352.889Z" fill="white" fill-opacity="0.5"/>
<path d="M106.657 377.947C106.657 379.472 105.352 380.779 103.829 380.779C102.306 380.779 101 379.472 101 377.947C101 376.422 102.306 375.114 103.829 375.114C105.352 375.114 106.657 376.422 106.657 377.947Z" fill="white" fill-opacity="0.5"/>
</g>
</svg>
