<svg width="213" height="193" viewBox="0 0 213 193" fill="none" xmlns="http://www.w3.org/2000/svg">
<path fill-rule="evenodd" clip-rule="evenodd" d="M41.8276 137.656V113.212C41.8276 103.762 34.1165 96.1016 24.6044 96.1016C15.0924 96.1016 7.38133 103.762 7.38133 113.212V137.656C7.38133 147.106 15.0924 154.766 24.6044 154.766C34.1165 154.766 41.8276 147.106 41.8276 137.656ZM24.6044 88.7686C11.0158 88.7686 0 99.7123 0 113.212V137.656C0 151.156 11.0158 162.099 24.6044 162.099C38.1931 162.099 49.2089 151.156 49.2089 137.656V113.212C49.2089 99.7123 38.1931 88.7686 24.6044 88.7686Z" fill="#606D7C"/>
<path fill-rule="evenodd" clip-rule="evenodd" d="M204.892 137.656V113.212C204.892 103.762 197.181 96.1016 187.669 96.1016C178.157 96.1016 170.446 103.762 170.446 113.212V137.656C170.446 147.106 178.157 154.766 187.669 154.766C197.181 154.766 204.892 147.106 204.892 137.656ZM187.669 88.7686C174.08 88.7686 163.064 99.7123 163.064 113.212V137.656C163.064 151.156 174.08 162.099 187.669 162.099C201.258 162.099 212.273 151.156 212.273 137.656V113.212C212.273 99.7123 201.258 88.7686 187.669 88.7686Z" fill="#606D7C"/>
<path fill-rule="evenodd" clip-rule="evenodd" d="M106.137 10.1875C67.5657 10.1875 36.2978 41.2068 36.2978 79.4709V96.4879H28.9463V79.4709C28.9463 37.179 63.5056 2.89453 106.137 2.89453C148.768 2.89453 183.327 37.179 183.327 79.4709V96.4879H175.976V79.4709C175.976 41.2068 144.708 10.1875 106.137 10.1875Z" fill="#606D7C"/>
<path fill-rule="evenodd" clip-rule="evenodd" d="M149.929 174.025C158.348 169.64 164.548 162.671 171.297 151.486L177.537 155.33C170.469 167.044 163.403 175.315 153.277 180.589C143.246 185.813 130.649 187.863 113.009 188.152L112.89 180.769C130.185 180.486 141.414 178.46 149.929 174.025Z" fill="#606D7C"/>
<path d="M94.3465 179.584C95.1459 174.683 99.767 171.358 104.668 172.157L110.584 173.122C115.485 173.922 118.81 178.543 118.011 183.444C117.211 188.345 112.59 191.67 107.689 190.871L101.773 189.906C96.8721 189.106 93.5471 184.485 94.3465 179.584Z" fill="#606D7C"/>
<path fill-rule="evenodd" clip-rule="evenodd" d="M104.739 14.6657C80.2361 14.6657 56.6335 26.8824 45.827 50.6979C44.1541 54.3847 39.8144 56.0149 36.1339 54.3391C32.4535 52.6633 30.8261 48.316 32.499 44.6292C46.0931 14.6704 75.5616 -4.07934e-06 104.739 0C133.913 4.07934e-06 163.848 14.6419 178.693 44.3842C180.501 48.0064 179.036 52.4111 175.42 54.2222C171.804 56.0334 167.407 54.5652 165.599 50.9429C153.603 26.911 129.247 14.6657 104.739 14.6657Z" fill="#606D7C"/>
</svg>
