<svg width="200" height="38" viewBox="0 0 200 38" fill="none" xmlns="http://www.w3.org/2000/svg">
<g clip-path="url(#clip0)">
<path d="M14.2513 0.432778L22.1978 0.417969V13.295L22.0823 13.29C16.602 13.2782 14.2819 13.2782 14.2769 19.3559V37.4289H1.08203V13.3276C1.08203 6.21623 7.00568 0.432778 14.2513 0.432778Z" fill="#34353E" fill-opacity="0.5"/>
<path d="M22.218 37.4072L14.2734 37.4279V24.5173H14.4502C19.9197 24.5391 22.1815 24.5391 22.1924 18.4555V0.416992H35.3764V24.4857C35.3754 31.5931 29.4607 37.4072 22.218 37.4072Z" fill="#34353E"/>
<path d="M43.7871 10.1091V27.7359H48.3088L48.2239 16.2776L57.1982 27.7339H62.3696V10.1091H57.8449L57.9387 21.7253L48.8706 10.1091H43.7871ZM74.5397 10.1091L65.7885 27.7359H70.5659L71.9106 24.8728H80.5275L81.808 27.7359H87.3861L78.8383 10.1091H74.5397ZM76.3671 15.2439L79.1947 21.9682H73.2543L76.3671 15.2439ZM90.8356 10.1091V27.7359H95.3485L95.2576 16.2776L104.237 27.7339H109.411V10.1091H104.89L104.981 21.7253L95.9132 10.1091H90.8356ZM123.226 9.59766C117.282 9.59766 113.621 13.2397 113.621 18.9284C113.621 24.622 117.281 28.2483 123.226 28.2483C129.166 28.2483 132.811 24.621 132.811 18.9284C132.811 13.2604 129.166 9.59766 123.226 9.59766ZM123.226 13.8686C125.88 13.8686 127.611 15.624 127.611 18.9294C127.611 22.2377 125.877 23.9941 123.226 23.9941C120.544 23.9941 118.814 22.2377 118.814 18.9294C118.815 15.624 120.572 13.8686 123.226 13.8686Z" fill="#34353E" fill-opacity="0.5"/>
<path d="M152.922 10.423C150.356 9.8889 147.904 9.59766 145.566 9.59766C139.626 9.59766 135.959 13.2397 135.959 18.9294C135.959 24.7306 139.51 28.2483 146.061 28.2483C148.602 28.2483 150.99 27.9116 153.236 27.2096V26.7367C153.236 25.2933 153.333 24.0178 153.529 22.8646C151.553 23.9506 149.391 24.4443 146.896 24.4443C143.139 24.4443 141.159 22.5783 141.159 19.0241C141.159 15.2666 143.228 13.3325 147.323 13.3325C149.074 13.3325 151.012 13.8054 153.178 14.7058C153.013 13.2841 152.922 11.8674 152.922 10.423ZM164.423 10.1091L155.665 27.728H160.435L161.787 24.8728H170.405L171.685 27.728H177.266L168.723 10.1091H164.423ZM166.246 15.2439L169.076 21.9702H163.133L166.246 15.2439ZM180.712 10.1091V27.728H189.531C195.785 27.728 198.843 24.9419 198.843 18.7754C198.843 13.1775 195.652 10.111 189.801 10.111L180.712 10.1091ZM185.838 13.9367H188.182C191.909 13.9367 193.646 15.3317 193.646 18.7734C193.646 20.9177 193.088 22.3532 191.803 23.1648C190.856 23.7453 189.864 23.7897 188.698 23.7897H185.838V13.9367Z" fill="#34353E"/>
</g>
<defs>
<clipPath id="clip0">
<rect width="200" height="37.8452" fill="white"/>
</clipPath>
</defs>
</svg>
