<svg width="80" height="80" viewBox="0 0 80 80" fill="none" xmlns="http://www.w3.org/2000/svg">
<path fill-rule="evenodd" clip-rule="evenodd" d="M66.05 8H12.95V10C12.95 11.1046 13.8305 12 14.9167 12H64.0833C65.1695 12 66.05 11.1046 66.05 10V8ZM10 5V10C10 12.7614 12.2013 15 14.9167 15H64.0833C66.7987 15 69 12.7614 69 10V5H10Z" fill="#34353E"/>
<path fill-rule="evenodd" clip-rule="evenodd" d="M25 15H28V22.3787L35.0607 29.4393L32.9393 31.5607L25 23.6213V15Z" fill="#34353E"/>
<path fill-rule="evenodd" clip-rule="evenodd" d="M54.0625 15H51.0625V22.3787L44.0018 29.4393L46.1232 31.5607L54.0625 23.6213V15Z" fill="#34353E"/>
<path fill-rule="evenodd" clip-rule="evenodd" d="M26 30.5C26 29.6716 26.6716 29 27.5 29H51.5C52.3284 29 53 29.6716 53 30.5C53 31.3284 52.3284 32 51.5 32H27.5C26.6716 32 26 31.3284 26 30.5Z" fill="#34353E"/>
<path fill-rule="evenodd" clip-rule="evenodd" d="M38 30V14H41V30H38Z" fill="#34353E"/>
<circle cx="24" cy="38" r="2" fill="#34353E"/>
<circle cx="40" cy="38" r="2" fill="#34353E"/>
<circle cx="56" cy="38" r="2" fill="#34353E"/>
<circle cx="24" cy="68" r="2" fill="#34353E"/>
<circle cx="40" cy="68" r="2" fill="#34353E"/>
<circle cx="56" cy="68" r="2" fill="#34353E"/>
<circle cx="32" cy="43" r="2" fill="#34353E"/>
<circle cx="16" cy="43" r="2" fill="#34353E"/>
<circle cx="48" cy="43" r="2" fill="#34353E"/>
<circle cx="64" cy="43" r="2" fill="#34353E"/>
<circle cx="32" cy="63" r="2" fill="#34353E"/>
<circle cx="16" cy="63" r="2" fill="#34353E"/>
<circle cx="48" cy="63" r="2" fill="#34353E"/>
<circle cx="64" cy="63" r="2" fill="#34353E"/>
<circle cx="24" cy="48" r="2" fill="#34353E"/>
<circle cx="8" cy="48" r="2" fill="#34353E"/>
<circle cx="40" cy="48" r="2" fill="#34353E"/>
<circle cx="56" cy="48" r="2" fill="#34353E"/>
<circle cx="72" cy="48" r="2" fill="#34353E"/>
<circle cx="24" cy="58" r="2" fill="#34353E"/>
<circle cx="8" cy="58" r="2" fill="#34353E"/>
<circle cx="40" cy="58" r="2" fill="#34353E"/>
<circle cx="56" cy="58" r="2" fill="#34353E"/>
<circle cx="72" cy="58" r="2" fill="#34353E"/>
<circle cx="32" cy="53" r="2" fill="#34353E"/>
<circle cx="16" cy="53" r="2" fill="#34353E"/>
<circle cx="48" cy="53" r="2" fill="#34353E"/>
<circle cx="64" cy="53" r="2" fill="#34353E"/>
</svg>
