<svg width="80" height="80" viewBox="0 0 80 80" fill="none" xmlns="http://www.w3.org/2000/svg">
<path d="M19.0909 63.9545V16.0454C19.0909 12.1544 15.9366 9 12.0455 9V9C8.15436 9 5 12.1544 5 16.0455V63.9545" stroke="#34353E" stroke-width="3"/>
<path d="M19.0909 65.1289V63.9546C19.0909 60.0635 15.9366 56.9092 12.0455 56.9092V56.9092C8.15436 56.9092 5 60.0635 5 63.9546V63.9546C5 67.8457 8.15436 71.0001 12.0455 71.0001H64.8864" stroke="#34353E" stroke-width="3"/>
<path d="M36.0004 71.0004H75.4549V14.6367H19.0913" stroke="#34353E" stroke-width="3"/>
<path d="M35.001 42.2334L44.7281 51.9604L66.9615 29.7271" stroke="#34353E" stroke-width="3" stroke-linecap="round" stroke-linejoin="round"/>
<path d="M60 26H63V28L60 31V26Z" fill="#34353E"/>
<path d="M60 26H63V28L60 31V26Z" fill="#34353E"/>
<path d="M60 26H63V28L60 31V26Z" fill="#34353E"/>
<path d="M60 43L63 40V59H60V43Z" fill="#34353E"/>
<path d="M60 43L63 40V59H60V43Z" fill="#34353E"/>
<path d="M60 43L63 40V59H60V43Z" fill="#34353E"/>
<rect x="28" y="25" width="3" height="34" fill="#34353E"/>
<rect x="28" y="25" width="3" height="34" fill="#34353E"/>
<rect x="28" y="25" width="3" height="34" fill="#34353E"/>
<rect x="28" y="57" width="35" height="3" fill="#34353E"/>
<rect x="28" y="25" width="35" height="3" fill="#34353E"/>
</svg>
