<svg width="198" height="41" viewBox="0 0 198 41" fill="none" xmlns="http://www.w3.org/2000/svg">
<g clip-path="url(#clip0)">
<path fill-rule="evenodd" clip-rule="evenodd" d="M4.5364 19.9147C4.8448 11.3615 11.918 4.51888 20.5929 4.51888C29.2677 4.51888 36.341 11.3615 36.6493 19.9147H41.1857C40.8674 8.86966 31.7747 0 20.5929 0C9.41104 0 0.318344 8.85977 0 19.9147H4.5364Z" fill="#34353E"/>
<path fill-rule="evenodd" clip-rule="evenodd" d="M0 21.1025C0.318344 32.1476 9.41104 41.0074 20.5929 41.0074C31.7747 41.0074 40.8674 32.1476 41.1857 21.1025H36.6493C36.331 29.6558 29.2677 36.4885 20.5929 36.4885C11.918 36.4885 4.85475 29.6558 4.5364 21.1025H0Z" fill="#34353E"/>
<path fill-rule="evenodd" clip-rule="evenodd" d="M20.0779 10.3455L25.7584 10.207C25.7584 10.207 34.2442 19.6601 34.3039 19.9073H34.2741C33.5379 19.8183 19.6103 19.8974 17.2824 19.9073H16.9542L9.18457 10.2664H14.8849L19.2025 15.4082L24.2562 15.3686L20.0879 10.3356L20.0779 10.3455Z" fill="#34353E"/>
<path fill-rule="evenodd" clip-rule="evenodd" d="M20.0787 30.6644L25.7591 30.8028C25.7591 30.8028 34.245 21.3497 34.3047 21.1025H34.2748C33.5387 21.1915 19.7305 21.1124 17.323 21.1025H16.9649L9.19531 30.7435H14.8957L19.2132 25.6016L24.2669 25.6412L20.0986 30.6743L20.0787 30.6644Z" fill="#34353E"/>
<path d="M51.4404 30.932V10.2262H63.7365V30.932H59.5483V13.2322H55.6286V30.932H51.4404ZM70.9092 31.1792C69.2975 31.1792 68.0739 30.7441 67.2184 29.8839C66.3628 29.0236 65.935 27.7876 65.935 26.1659V20.8955C65.935 19.2838 66.3628 18.0576 67.2184 17.1974C68.0739 16.3371 69.3075 15.902 70.9092 15.902C72.5307 15.902 73.7742 16.3371 74.6397 17.1974C75.5052 18.0576 75.943 19.2937 75.943 20.8955V26.1659C75.943 27.7777 75.5052 29.0137 74.6397 29.874C73.7742 30.7441 72.5307 31.1693 70.9092 31.1693V31.1792ZM70.9191 28.5292C71.3867 28.5292 71.6951 28.3512 71.8542 28.0051C72.0134 27.6491 72.093 27.135 72.093 26.4527V20.6483C72.093 19.9562 72.0134 19.4321 71.8542 19.0761C71.6951 18.7201 71.3867 18.5521 70.9191 18.5521C70.4714 18.5521 70.163 18.73 70.0138 19.0959C69.8546 19.4618 69.785 19.9759 69.785 20.6483V26.4527C69.785 27.1251 69.8646 27.6392 70.0138 28.0051C70.173 28.3611 70.4714 28.5391 70.9191 28.5391V28.5292ZM76.6791 30.932L79.8128 23.4665L76.8682 16.1492H80.3401L82.8669 23.2094H83.1256V16.1492H86.3588V23.2094H86.6274L89.2637 16.1492H92.7257L89.6716 23.4665L92.9147 30.932H89.6019L86.6274 23.7631H86.3588V30.932H83.1256V23.7631H82.8471L79.9919 30.932H76.6692H76.6791ZM95.9389 30.932V13.3311H92.6063V10.2262H103.45V13.3311H100.177V30.932H95.9389ZM106.862 21.9041H109.14V20.4506C109.14 19.8177 109.051 19.3629 108.862 19.086C108.673 18.8091 108.374 18.6707 107.976 18.6707C107.578 18.6707 107.29 18.8289 107.121 19.1355C106.952 19.442 106.872 19.9957 106.872 20.7769V21.8942L106.862 21.9041ZM107.986 31.1891C106.325 31.1891 105.071 30.7342 104.246 29.8344C103.42 28.9346 103.002 27.6392 103.002 25.9385V21.1526C103.002 19.4618 103.42 18.1664 104.256 17.2567C105.091 16.3569 106.335 15.902 107.976 15.902C109.658 15.902 110.881 16.3569 111.637 17.2567C112.393 18.1565 112.771 19.5013 112.771 21.2812V23.7532H106.852V26.1758C106.852 26.9075 106.922 27.4613 107.071 27.8271C107.23 28.193 107.519 28.3809 107.966 28.3809C108.742 28.3809 109.12 27.8271 109.12 26.7197V25.3452H112.751V26.5516C112.751 28.0447 112.344 29.1917 111.518 29.9827C110.702 30.7738 109.518 31.1693 107.976 31.1693L107.986 31.1891ZM113.627 30.9419L116.82 22.9226L113.756 16.1492H117.626L119.367 19.9364L120.859 16.1492H124.033L120.969 23.4862L124.351 30.9419H120.471L118.541 26.6999L116.97 30.9419H113.637H113.627ZM125.644 30.9419V10.2361H129.892V18.6905H130.469L133.663 10.2361H137.871L134.041 19.9759L138.1 30.9419H133.772L130.479 21.6273H129.902V30.9419H125.654H125.644ZM143.75 28.3907C143.979 28.3907 144.208 28.3116 144.447 28.1435C144.685 27.9754 144.884 27.7975 145.024 27.5898V23.5456C144.327 23.9015 143.75 24.3663 143.283 24.9497C142.815 25.5331 142.586 26.1264 142.586 26.7592C142.586 27.2536 142.696 27.659 142.905 27.9458C143.114 28.2424 143.402 28.3907 143.76 28.3907H143.75ZM142.308 31.1891C141.641 31.1792 141.044 31.0012 140.517 30.6354C139.99 30.2794 139.612 29.8344 139.353 29.3005C139.094 28.7665 138.975 28.2029 138.975 27.6195C138.975 27.2338 139.005 26.868 139.085 26.5219C139.164 26.1758 139.254 25.8594 139.363 25.5825C139.472 25.3056 139.622 25.0486 139.831 24.7915C140.03 24.5443 140.219 24.3168 140.398 24.129C140.577 23.9411 140.806 23.7532 141.094 23.5653C141.383 23.3775 141.631 23.2193 141.84 23.1006C142.049 22.9819 142.318 22.8435 142.656 22.6952C142.994 22.5469 143.253 22.4282 143.452 22.3491C143.651 22.27 143.919 22.1612 144.268 22.0327C144.616 21.9041 144.864 21.8052 145.024 21.7459V20.3814C145.024 19.8474 144.954 19.4519 144.815 19.1948C144.675 18.9278 144.407 18.7993 144.019 18.7993C143.362 18.7993 143.014 19.264 142.974 20.1935L142.905 21.2021L139.224 21.0538C139.224 20.8857 139.234 20.7176 139.264 20.5396C139.373 18.9575 139.86 17.7907 140.706 17.0491C141.562 16.3074 142.775 15.9317 144.357 15.9317C145.819 15.9317 146.934 16.3272 147.67 17.1282C148.416 17.9291 148.784 19.0168 148.784 20.411V27.2437C148.784 28.3809 148.874 29.6169 149.063 30.9518H145.581C145.372 29.8641 145.252 29.1521 145.213 28.8258C145.014 29.4982 144.665 30.0618 144.178 30.5167C143.691 30.9715 143.064 31.199 142.308 31.199V31.1891ZM155.798 28.6182C156.265 28.6182 156.574 28.4204 156.723 28.0249C156.872 27.6294 156.942 26.8086 156.942 25.5726V21.2713C156.942 20.4605 156.872 19.8869 156.723 19.5705C156.583 19.2442 156.315 19.086 155.917 19.086C155.609 19.086 155.36 19.1948 155.151 19.4024C154.952 19.62 154.763 19.9858 154.594 20.5099V25.4045C154.594 26.7295 154.663 27.5997 154.813 28.0051C154.952 28.4105 155.28 28.6182 155.788 28.6182H155.798ZM155.589 31.1792C154.663 31.1693 153.887 31.0408 153.261 30.7936C152.634 30.5464 152.137 30.1607 151.788 29.6564C151.44 29.1521 151.182 28.5588 151.032 27.8963C150.883 27.2239 150.804 26.4131 150.804 25.4836V17.6621C150.804 16.6436 150.863 15.7438 150.963 14.9923C151.072 14.2309 151.211 13.608 151.4 13.1136C151.58 12.6192 151.838 12.2039 152.147 11.8677C152.465 11.5216 152.793 11.2645 153.121 11.0865C153.45 10.8986 153.868 10.7404 154.365 10.5921C154.872 10.4438 155.35 10.3152 155.817 10.2164C156.285 10.1274 156.842 9.97904 157.509 9.78128C158.175 9.5934 158.802 9.37586 159.379 9.14844L159.727 12.1149C159.14 12.3917 158.553 12.6093 157.966 12.7576C157.379 12.9158 156.912 13.0048 156.574 13.0543C156.235 13.0938 155.917 13.163 155.599 13.252C155.29 13.341 155.051 13.4794 154.912 13.6772C154.763 13.8651 154.644 14.1716 154.564 14.577C154.474 14.9824 154.435 15.5559 154.435 16.2778L154.425 17.4248C155.27 16.9897 156.116 16.7623 156.962 16.7623C158.205 16.7623 159.14 17.1776 159.747 18.0181C160.354 18.8586 160.652 20.2429 160.652 22.2008V25.632C160.652 26.7394 160.533 27.6689 160.294 28.4204C160.055 29.1719 159.697 29.7553 159.23 30.1508C158.752 30.5562 158.225 30.8331 157.648 30.9814C157.101 31.1298 156.454 31.199 155.698 31.199C155.658 31.199 155.609 31.199 155.579 31.199L155.589 31.1792ZM166.233 21.914H168.511V20.4605C168.511 19.8276 168.422 19.3728 168.233 19.0959C168.044 18.819 167.745 18.6806 167.347 18.6806C166.95 18.6806 166.661 18.8388 166.492 19.1453C166.323 19.4519 166.243 20.0056 166.243 20.7868V21.9041L166.233 21.914ZM167.357 31.199C165.696 31.199 164.443 30.7441 163.617 29.8443C162.791 28.9445 162.373 27.6491 162.373 25.9484V21.1625C162.373 19.4716 162.791 18.1763 163.627 17.2666C164.462 16.3668 165.706 15.9119 167.347 15.9119C169.029 15.9119 170.252 16.3668 171.008 17.2666C171.765 18.1664 172.143 19.5112 172.143 21.2911V23.7631H166.223V26.1857C166.223 26.9174 166.293 27.4711 166.442 27.837C166.601 28.2029 166.89 28.3907 167.338 28.3907C168.113 28.3907 168.492 27.837 168.492 26.7295V25.3551H172.123V26.5614C172.123 28.0545 171.715 29.2016 170.889 29.9926C170.073 30.7837 168.889 31.1792 167.347 31.1792L167.357 31.199ZM173.127 31.0111V28.3215C173.257 28.3314 173.386 28.3314 173.515 28.3314C173.804 28.3314 174.063 28.3018 174.281 28.2325C174.59 28.1337 174.829 27.9952 175.018 27.8073C175.207 27.6195 175.356 27.303 175.465 26.8383C175.585 26.3736 175.654 25.9187 175.704 25.4639C175.754 25.009 175.803 24.3465 175.863 23.4862L176.4 16.1492H185.493V30.9419H181.593V18.8487H179.713L179.365 23.7829C179.236 25.8001 178.997 27.3228 178.669 28.3611C178.34 29.3894 177.863 30.1014 177.246 30.4969C176.629 30.8924 175.744 31.0902 174.6 31.0902C174.222 31.0902 173.734 31.0605 173.127 31.0012V31.0111ZM191.651 28.7368H191.711C192.755 28.7269 193.472 28.5687 193.87 28.2919C194.277 28.015 194.476 27.4613 194.476 26.6307C194.476 25.7902 194.287 25.2167 193.889 24.92C193.501 24.6234 192.795 24.4652 191.77 24.4454H191.641V28.7368H191.651ZM187.771 30.9518V16.1591H191.651V22.1612H191.83C192.696 22.1612 193.432 22.2008 194.059 22.2898C194.685 22.3689 195.252 22.5073 195.77 22.7051C196.287 22.9028 196.705 23.1698 197.013 23.506C197.331 23.8422 197.57 24.2674 197.739 24.7816C197.908 25.2958 197.998 25.8989 197.998 26.6109C197.998 28.2029 197.521 29.3202 196.565 29.9728C195.61 30.6255 194.009 30.9518 191.751 30.9518H187.771Z" fill="#34353E"/>
</g>
<defs>
<clipPath id="clip0">
<rect width="198" height="41" fill="white"/>
</clipPath>
</defs>
</svg>
