<svg width="134" height="50" viewBox="0 0 134 50" fill="none" xmlns="http://www.w3.org/2000/svg">
<path d="M63.4422 48.0665H60.0513L57.0006 43.3993H53.7312V48.0665H50.875V36.4716H58.7508C59.5651 36.4716 60.1971 36.5445 60.6468 36.6903C61.376 36.9091 61.9351 37.3102 62.3362 37.8936C62.7373 38.477 62.9318 39.1576 62.9318 39.9355C62.9318 40.4945 62.8345 41.005 62.6279 41.4669C62.3848 42.0138 62.0567 42.4149 61.6191 42.6701C61.1816 42.9253 60.6225 43.1077 59.954 43.2292L63.4422 48.0786V48.0665ZM53.7433 38.5013V41.3453H58.4591C59.5165 41.3453 60.0513 40.8835 60.0513 39.9598C60.0513 38.9874 59.48 38.5013 58.3497 38.5013H53.7433ZM64.6576 36.4594H67.5138V43.5209C67.5138 43.9949 67.5989 44.396 67.7812 44.7484C67.9635 45.0887 68.2066 45.3561 68.5226 45.5506C68.8386 45.7451 69.1911 45.8788 69.58 45.9638C69.9689 46.0489 70.3821 46.0975 70.8562 46.0975C71.2572 46.0975 71.634 46.0611 71.9865 45.9881C72.3389 45.9152 72.6914 45.7937 73.0317 45.6357C73.372 45.4655 73.6394 45.2346 73.846 44.9186C74.0405 44.6026 74.1499 44.238 74.1499 43.8126V36.4473H77.0061V43.8247C77.0061 45.344 76.447 46.4986 75.3167 47.2765C74.1985 48.0543 72.7157 48.4433 70.8926 48.4433C69.0331 48.4433 67.5381 48.0543 66.3835 47.2643C65.241 46.4743 64.6698 45.3197 64.6698 43.8004V36.4594H64.6576ZM79.3639 36.4594H86.7779C87.2154 36.4594 87.5679 36.4716 87.8474 36.4959C88.127 36.5202 88.4916 36.6053 88.9291 36.7511C89.3667 36.897 89.7191 37.1157 89.9865 37.4196C90.4241 37.9179 90.6307 38.5378 90.6307 39.3035C90.6307 40.531 89.9987 41.3575 88.7347 41.7707C90.3755 42.1596 91.2019 43.132 91.2141 44.6998C91.2141 45.5141 91.0439 46.1583 90.7158 46.6566C90.497 46.9848 90.2539 47.2522 89.9744 47.4588C89.6948 47.6654 89.3788 47.8112 89.0142 47.8963C88.6496 47.9814 88.3579 48.03 88.127 48.0422C87.896 48.0543 87.5922 48.0665 87.2033 48.0665H79.3518V36.4716L79.3639 36.4594ZM82.1958 41.005H86.5105C87.4342 41.005 87.8839 40.5796 87.8839 39.7288C87.8717 38.8902 87.422 38.4648 86.5226 38.4648H82.1958V41.0172V41.005ZM82.1958 46.0125H86.6685C87.7988 46.0125 88.37 45.4898 88.37 44.4324C88.37 43.4966 87.8596 43.0226 86.8508 43.0226H82.1958V46.0125ZM104.316 48.0543H93.3289V36.4594H103.988V38.5499H96.1972V41.163H103.733V43.2292H96.1972V45.9881H104.316V48.0543ZM117.6 48.0543H105.835V45.9395L113.723 38.5134H106.407V36.4594H117.6V38.5134L109.7 45.9395H117.6V48.0543ZM132.866 48.0543H129.997V43.0712H123.094V48.0543H120.226V36.4594H123.094V40.9321H129.997V36.4594H132.866V48.0543Z" fill="#34353E"/>
<path d="M30.5963 27.9613H22.6148L15.4354 17.1157H7.72122V27.9613H1V1H19.5597C21.4692 1 22.9585 1.16548 24.0278 1.49645C25.7336 2.00564 27.0575 2.94763 27.9995 4.32242C28.9414 5.67176 29.4124 7.25023 29.4124 9.05783C29.4124 10.3562 29.1706 11.5401 28.6869 12.6094C28.1268 13.8823 27.3248 14.8116 26.281 15.3972C25.2626 15.9827 23.9642 16.4155 22.3857 16.6956L30.5963 27.9613ZM7.72122 5.73541V12.3421H18.8342C21.3292 12.3421 22.5767 11.2728 22.5767 9.13421C22.5767 6.86834 21.24 5.73541 18.5668 5.73541H7.72122Z" fill="#34353E"/>
<path d="M44.3639 18.796H31.8762V13.8314H44.3639V18.796Z" fill="#34353E"/>
<path d="M48.5486 1H66.0391C67.0574 1 67.8976 1.02546 68.5595 1.07638C69.2215 1.1273 70.0743 1.33097 71.1182 1.6874C72.162 2.01837 72.9894 2.52755 73.6004 3.21495C74.6188 4.36061 75.128 5.82451 75.128 7.60666C75.128 10.4581 73.6386 12.3675 70.6599 13.335C74.5297 14.226 76.4773 16.4919 76.5028 20.1326C76.5028 22.0166 76.1082 23.5314 75.3189 24.677C74.8097 25.4408 74.2242 26.0646 73.5622 26.5483C72.9258 27.032 72.1747 27.3757 71.3091 27.5794C70.469 27.7576 69.7816 27.8722 69.2469 27.9231C68.7123 27.9485 67.9867 27.9613 67.0702 27.9613H48.5486V1ZM55.2316 11.5783H65.3898C67.5539 11.5783 68.6359 10.5854 68.6359 8.59957C68.6104 6.63921 67.5411 5.65903 65.428 5.65903H55.2316V11.5783ZM55.2316 23.2259H65.7717C68.445 23.2259 69.7816 22.0038 69.7816 19.5597C69.7816 17.3703 68.585 16.2755 66.1918 16.2755H55.2316V23.2259Z" fill="#34353E"/>
<path d="M89.5445 27.9613H82.7851V1H89.5445V27.9613Z" fill="#34353E"/>
<path d="M133.156 27.9613H126.74L126.893 7.22477L118.224 27.9613H112.076L103.331 7.22477C103.433 20.3617 103.483 27.2739 103.483 27.9613H97.0677V1H106.844L115.207 20.7818L123.494 1H133.156V27.9613Z" fill="#34353E"/>
</svg>
