<svg width="80" height="80" viewBox="0 0 80 80" fill="none" xmlns="http://www.w3.org/2000/svg">
<path d="M19.0909 63.9545V16.0454C19.0909 12.1544 15.9366 9 12.0455 9V9C8.15436 9 5 12.1544 5 16.0455V63.9545" stroke="#34353E" stroke-width="3"/>
<path d="M19.0909 65.1289V63.9546C19.0909 60.0635 15.9366 56.9092 12.0455 56.9092V56.9092C8.15436 56.9092 5 60.0635 5 63.9546V63.9546C5 67.8457 8.15436 71.0001 12.0455 71.0001H64.8864" stroke="#34353E" stroke-width="3"/>
<path d="M35.9989 71.0003H75.4535V14.6367H19.0898" stroke="#34353E" stroke-width="3"/>
<rect x="27.6367" y="24.5908" width="39.2727" height="36.4545" stroke="#34353E" stroke-width="3"/>
<line x1="52.9102" y1="45.5449" x2="67.0011" y2="45.5449" stroke="#34353E" stroke-width="3"/>
<path d="M26.1367 41.6436H41.0105" stroke="#34353E" stroke-width="3"/>
<line x1="41.8594" y1="47.9844" x2="41.8594" y2="32.4844" stroke="#34353E" stroke-width="3"/>
<line x1="41.8594" y1="60.667" x2="41.8594" y2="54.4044" stroke="#34353E" stroke-width="3"/>
</svg>
