<svg width="166" height="48" viewBox="0 0 166 48" fill="none" xmlns="http://www.w3.org/2000/svg">
<path d="M97.5548 46.9513H94.2994L91.3708 42.4709H88.2322V46.9513H85.4902V35.8202H93.051C93.8327 35.8202 94.4395 35.8902 94.8712 36.0302C95.5712 36.2403 96.108 36.6253 96.493 37.1853C96.878 37.7454 97.0647 38.3988 97.0647 39.1455C97.0647 39.6823 96.9714 40.1723 96.773 40.6157C96.5397 41.1407 96.2246 41.5258 95.8046 41.7708C95.3846 42.0158 94.8478 42.1908 94.2061 42.3075L97.5548 46.963V46.9513ZM88.2438 37.7687V40.499H92.771C93.7861 40.499 94.2994 40.0556 94.2994 39.1689C94.2994 38.2355 93.7511 37.7687 92.6659 37.7687H88.2438ZM98.7215 35.8085H101.463V42.5876C101.463 43.0426 101.545 43.4276 101.72 43.766C101.895 44.0927 102.129 44.3494 102.432 44.5361C102.735 44.7228 103.074 44.8511 103.447 44.9328C103.82 45.0145 104.217 45.0611 104.672 45.0611C105.057 45.0611 105.419 45.0261 105.757 44.9561C106.096 44.8861 106.434 44.7694 106.761 44.6178C107.087 44.4544 107.344 44.2327 107.542 43.9294C107.729 43.626 107.834 43.276 107.834 42.8676V35.7969H110.576V42.8792C110.576 44.3377 110.039 45.4462 108.954 46.1929C107.881 46.9396 106.457 47.313 104.707 47.313C102.922 47.313 101.487 46.9396 100.378 46.1812C99.2816 45.4228 98.7332 44.3144 98.7332 42.8559V35.8085H98.7215ZM112.84 35.8085H119.957C120.377 35.8085 120.715 35.8202 120.984 35.8435C121.252 35.8669 121.602 35.9486 122.022 36.0886C122.442 36.2286 122.781 36.4386 123.037 36.7303C123.457 37.2087 123.656 37.8037 123.656 38.5388C123.656 39.7173 123.049 40.5107 121.836 40.9074C123.411 41.2808 124.204 42.2142 124.216 43.7193C124.216 44.5011 124.052 45.1195 123.737 45.5978C123.527 45.9129 123.294 46.1696 123.026 46.3679C122.757 46.5663 122.454 46.7063 122.104 46.788C121.754 46.8696 121.474 46.9163 121.252 46.928C121.03 46.9396 120.739 46.9513 120.365 46.9513H112.828V35.8202L112.84 35.8085ZM115.558 40.1723H119.7C120.587 40.1723 121.019 39.7639 121.019 38.9472C121.007 38.1421 120.575 37.7337 119.712 37.7337H115.558V40.184V40.1723ZM115.558 44.9795H119.852C120.937 44.9795 121.485 44.4777 121.485 43.4626C121.485 42.5642 120.995 42.1092 120.027 42.1092H115.558V44.9795ZM136.794 46.9396H126.246V35.8085H136.479V37.8154H129V40.324H136.234V42.3075H129V44.9561H136.794V46.9396ZM149.547 46.9396H138.252V44.9094L145.825 37.7804H138.801V35.8085H149.547V37.7804L141.963 44.9094H149.547V46.9396ZM164.201 46.9396H161.448V42.1558H154.82V46.9396H152.067V35.8085H154.82V40.1023H161.448V35.8085H164.201V46.9396Z" fill="#34353E"/>
<path d="M0.959961 21.1603L6.86242 19.6572C8.13334 22.3457 11.054 23.6899 15.6245 23.6899C16.1377 23.6899 16.6632 23.6655 17.2009 23.6166C17.7386 23.5433 18.4229 23.4089 19.2539 23.2133C20.0849 23.0178 20.757 22.6756 21.2703 22.1868C21.808 21.6736 22.0768 21.0381 22.0768 20.2804C22.0768 19.9383 22.0157 19.6327 21.8935 19.3639C21.7958 19.095 21.588 18.8629 21.2703 18.6673C20.977 18.4718 20.6959 18.3129 20.4271 18.1907C20.1827 18.0685 19.7916 17.9463 19.2539 17.8241C18.7162 17.7019 18.2763 17.6164 17.9341 17.5675C17.6164 17.4942 17.1031 17.4086 16.3943 17.3109C14.3413 16.9931 12.9115 16.7732 12.105 16.651C11.2984 16.5043 10.4063 16.3088 9.4287 16.0644C8.45107 15.82 7.6323 15.5389 6.9724 15.2212C4.25947 13.9503 2.90301 11.8972 2.90301 9.06209C2.90301 7.22903 3.47737 5.68926 4.62608 4.44278C5.7748 3.17186 7.22903 2.27976 8.98877 1.76651C10.7485 1.22881 12.7527 0.959961 15.0012 0.959961C21.7224 0.959961 26.244 3.02521 28.5659 7.15571L22.4434 8.69548C21.3436 6.61801 18.8018 5.57928 14.8179 5.57928C11.054 5.57928 9.17207 6.58135 9.17207 8.5855C9.17207 9.63645 9.85642 10.3819 11.2251 10.8218C11.8117 10.9929 14.5857 11.5184 19.5472 12.3983C20.4515 12.5694 21.197 12.716 21.7835 12.8382C22.3701 12.9604 23.1156 13.2048 24.0199 13.5714C24.9486 13.938 25.6818 14.3657 26.2195 14.8546C26.7572 15.3434 27.2338 16.0155 27.6493 16.8709C28.0648 17.7019 28.2726 18.6673 28.2726 19.7672C28.2726 25.5596 23.8854 28.4559 15.1112 28.4559C11.4451 28.4559 8.48773 27.8571 6.23918 26.6595C4.01506 25.4619 2.25532 23.6288 0.959961 21.1603Z" fill="#34353E"/>
<path d="M32.3423 14.7079C32.3423 12.2883 32.7822 10.1741 33.6621 8.36553C34.5419 6.53247 35.7273 5.10268 37.2182 4.07617C38.7335 3.02521 40.3955 2.2431 42.2041 1.72985C44.0372 1.21659 45.9924 0.959961 48.0699 0.959961C50.1963 0.959961 52.1638 1.19215 53.9724 1.65652C55.8054 2.1209 57.4919 2.85412 59.0316 3.8562C60.5958 4.85827 61.8301 6.26362 62.7344 8.07224C63.6387 9.88086 64.0909 12.0072 64.0909 14.4513C64.0909 18.8018 62.71 22.2357 59.9482 24.7531C57.2108 27.2461 53.3247 28.4925 48.2899 28.4925C43.2551 28.4925 39.3323 27.2461 36.5216 24.7531C33.7354 22.2601 32.3423 18.9117 32.3423 14.7079ZM39.0146 14.8912C39.0146 15.9911 39.1857 17.0542 39.5279 18.0808C39.87 19.0828 40.3833 20.036 41.0676 20.9403C41.7764 21.8202 42.7418 22.529 43.9639 23.0667C45.2103 23.5799 46.6279 23.8366 48.2166 23.8366C49.8297 23.8366 51.235 23.5799 52.4326 23.0667C53.6302 22.529 54.5345 21.9057 55.1455 21.197C55.781 20.4637 56.282 19.6327 56.6486 18.704C57.0397 17.7752 57.2719 17.0176 57.3452 16.431C57.443 15.82 57.4919 15.2578 57.4919 14.7446C57.4919 12.2516 56.6731 10.113 55.0355 8.32887C53.4225 6.52025 51.1495 5.61594 48.2166 5.61594C45.2348 5.61594 42.9496 6.54469 41.3609 8.40219C39.7967 10.2353 39.0146 12.3983 39.0146 14.8912Z" fill="#34353E"/>
<path d="M97.9839 27.6493H91.6048L75.6205 9.50203V27.6493H69.4615V1.76651H75.9505L91.8248 19.8405V1.76651H97.9839V27.6493Z" fill="#34353E"/>
<path d="M133.086 27.6493H125.827L123.628 22.7734H110.356L108.157 27.6493H101.081L113.582 1.76651H120.585L133.086 27.6493ZM121.538 18.1907L117.029 8.07224L112.446 18.1907H121.538Z" fill="#34353E"/>
<path d="M164.395 27.6493H156.733L149.84 17.2375H142.435V27.6493H135.982V1.76651H153.8C155.633 1.76651 157.063 1.92537 158.089 2.2431C159.727 2.73192 160.998 3.63623 161.902 4.95604C162.806 6.2514 163.258 7.76673 163.258 9.50203C163.258 10.7485 163.026 11.885 162.562 12.9115C162.024 14.1336 161.254 15.0257 160.252 15.5878C159.274 16.1499 158.028 16.5654 156.513 16.8343L164.395 27.6493ZM142.435 6.3125V12.6549H153.103C155.498 12.6549 156.696 11.6284 156.696 9.57535C156.696 7.40012 155.413 6.3125 152.847 6.3125H142.435Z" fill="#34353E"/>
</svg>
