<svg width="80" height="80" viewBox="0 0 80 80" fill="none" xmlns="http://www.w3.org/2000/svg">
<path fill-rule="evenodd" clip-rule="evenodd" d="M26 27.1367H15L15 53.1367H26V27.1367ZM15 24.1367C13.3431 24.1367 12 25.4799 12 27.1367V53.1367C12 54.7936 13.3431 56.1367 15 56.1367H29V24.1367H15Z" fill="#34353E"/>
<path fill-rule="evenodd" clip-rule="evenodd" d="M47.5 11.5068C47.5 11.0787 46.9971 10.8486 46.6732 11.1284L27.9804 27.2721L26.0195 25.0016L44.7123 8.8579C46.98 6.8994 50.5 8.51041 50.5 11.5068V68.767C50.5 71.7634 46.98 73.3744 44.7123 71.4159L26.0195 55.2721L27.9804 53.0017L46.6732 69.1454C46.9971 69.4252 47.5 69.195 47.5 68.767V11.5068Z" fill="#34353E"/>
<path fill-rule="evenodd" clip-rule="evenodd" d="M55.2052 26.8649C55.9077 26.4259 56.8331 26.6394 57.2722 27.3419C59.8941 31.537 61.2502 35.8087 61.2502 40.1369C61.2502 44.4651 59.8941 48.7368 57.2722 52.9319C56.8331 53.6344 55.9077 53.848 55.2052 53.4089C54.5027 52.9699 54.2891 52.0444 54.7282 51.3419C57.1063 47.537 58.2502 43.8087 58.2502 40.1369C58.2502 36.4651 57.1063 32.7368 54.7282 28.9319C54.2891 28.2294 54.5027 27.304 55.2052 26.8649Z" fill="#34353E"/>
<path fill-rule="evenodd" clip-rule="evenodd" d="M61.1399 22.908C61.8186 22.4329 62.7539 22.598 63.229 23.2767C70.5905 33.7931 70.5905 46.4806 63.229 56.997C62.7539 57.6757 61.8186 57.8408 61.1399 57.3657C60.4613 56.8906 60.2962 55.9553 60.7713 55.2767C67.4097 45.7931 67.4097 34.4806 60.7713 24.997C60.2962 24.3184 60.4613 23.3831 61.1399 22.908Z" fill="#34353E"/>
</svg>
