<svg width="247" height="51" viewBox="0 0 247 51" fill="none" xmlns="http://www.w3.org/2000/svg">
<path fill-rule="evenodd" clip-rule="evenodd" d="M5.65905 24.7719C6.04376 14.1326 14.8674 5.62104 25.6891 5.62104C36.5108 5.62104 45.3344 14.1326 45.7191 24.7719H51.3782C50.9811 11.033 39.6381 0 25.6891 0C11.74 0 0.397126 11.0207 0 24.7719H5.65905Z" fill="#6B7785"/>
<path fill-rule="evenodd" clip-rule="evenodd" d="M0 26.249C0.397126 39.988 11.74 51.0087 25.6891 51.0087C39.6381 51.0087 50.9811 39.988 51.3782 26.249H45.7191C45.322 36.8884 36.5108 45.3876 25.6891 45.3876C14.8674 45.3876 6.05617 36.8884 5.65905 26.249H0Z" fill="#6B7785"/>
<path fill-rule="evenodd" clip-rule="evenodd" d="M25.0462 12.8685L32.1324 12.6963C32.1324 12.6963 42.7183 24.455 42.7928 24.7625H42.7555C41.8372 24.6518 24.4629 24.7502 21.5589 24.7625H21.1494L11.457 12.7701H18.5681L23.9541 19.166L30.2585 19.1168L25.0586 12.8562L25.0462 12.8685Z" fill="#6B7785"/>
<path fill-rule="evenodd" clip-rule="evenodd" d="M25.0494 38.143L32.1356 38.3152C32.1356 38.3152 42.7215 26.5565 42.796 26.249H42.7587C41.8404 26.3597 24.615 26.2613 21.6118 26.249H21.165L11.4727 38.2414H18.5837L23.9697 31.8455L30.2741 31.8947L25.0742 38.1553L25.0494 38.143Z" fill="#6B7785"/>
<path d="M64.1719 38.4765V12.7206H79.5109V38.4765H74.2862V16.4597H69.3966V38.4765H64.1719ZM88.4586 38.784C86.4482 38.784 84.9217 38.2428 83.8544 37.1727C82.7872 36.1026 82.2535 34.5651 82.2535 32.548V25.9921C82.2535 23.9873 82.7872 22.4621 83.8544 21.392C84.9217 20.3219 86.4606 19.7807 88.4586 19.7807C90.4815 19.7807 92.0327 20.3219 93.1124 21.392C94.1921 22.4621 94.7382 23.9996 94.7382 25.9921V32.548C94.7382 34.5528 94.1921 36.0903 93.1124 37.1604C92.0327 38.2428 90.4815 38.7717 88.4586 38.7717V38.784ZM88.471 35.4876C89.0543 35.4876 89.439 35.2662 89.6376 34.8357C89.8361 34.3929 89.9354 33.7534 89.9354 32.9047V25.6846C89.9354 24.8236 89.8361 24.1718 89.6376 23.729C89.439 23.2862 89.0543 23.0771 88.471 23.0771C87.9126 23.0771 87.5279 23.2985 87.3417 23.7536C87.1431 24.2087 87.0563 24.8482 87.0563 25.6846V32.9047C87.0563 33.7411 87.1555 34.3806 87.3417 34.8357C87.5403 35.2785 87.9126 35.4999 88.471 35.4999V35.4876ZM95.6565 38.4765L99.5657 29.1901L95.8923 20.0882H100.223L103.376 28.8703H103.698V20.0882H107.732V28.8703H108.067L111.355 20.0882H115.674L111.864 29.1901L115.91 38.4765H111.777L108.067 29.5591H107.732V38.4765H103.698V29.5591H103.351L99.7891 38.4765H95.6441H95.6565ZM119.683 38.4765V16.5827H115.525V12.7206H129.052V16.5827H124.969V38.4765H119.683ZM133.309 27.2467H136.151V25.4386C136.151 24.6514 136.039 24.0857 135.803 23.7413C135.568 23.3969 135.195 23.2247 134.699 23.2247C134.203 23.2247 133.843 23.4215 133.632 23.8028C133.421 24.1841 133.321 24.8728 133.321 25.8445V27.2344L133.309 27.2467ZM134.711 38.7963C132.639 38.7963 131.075 38.2305 130.045 37.1112C129.015 35.9919 128.494 34.3806 128.494 32.2651V26.3119C128.494 24.2087 129.015 22.5974 130.058 21.4658C131.1 20.3465 132.651 19.7807 134.699 19.7807C136.796 19.7807 138.323 20.3465 139.266 21.4658C140.209 22.5851 140.681 24.2579 140.681 26.4718V29.5468H133.297V32.5603C133.297 33.4705 133.383 34.1592 133.57 34.6143C133.768 35.0694 134.128 35.3031 134.687 35.3031C135.655 35.3031 136.126 34.6143 136.126 33.2368V31.5271H140.656V33.0277C140.656 34.8849 140.147 36.3117 139.117 37.2957C138.099 38.2797 136.623 38.7717 134.699 38.7717L134.711 38.7963ZM141.748 38.4888L145.732 28.5136L141.909 20.0882H146.737L148.909 24.799L150.77 20.0882H154.729L150.907 29.2147L155.126 38.4888H150.286L147.879 33.2122L145.918 38.4888H141.76H141.748ZM156.739 38.4888V12.7329H162.039V23.2493H162.758L166.742 12.7329H171.992L167.214 24.8482L172.277 38.4888H166.879L162.771 26.9023H162.051V38.4888H156.752H156.739ZM179.326 35.3154C179.611 35.3154 179.897 35.217 180.195 35.0079C180.493 34.7988 180.741 34.5774 180.915 34.3191V29.2885C180.046 29.7313 179.326 30.3094 178.743 31.0351C178.159 31.7608 177.874 32.4988 177.874 33.286C177.874 33.901 178.011 34.4052 178.271 34.7619C178.532 35.1309 178.892 35.3154 179.338 35.3154H179.326ZM177.527 38.7963C176.695 38.784 175.95 38.5626 175.293 38.1075C174.635 37.6647 174.163 37.1112 173.841 36.447C173.518 35.7828 173.369 35.0817 173.369 34.356C173.369 33.8764 173.406 33.4213 173.506 32.9908C173.605 32.5603 173.717 32.1667 173.853 31.8223C173.99 31.4779 174.176 31.1581 174.436 30.8383C174.685 30.5308 174.92 30.2479 175.144 30.0142C175.367 29.7805 175.653 29.5468 176.012 29.3131C176.372 29.0794 176.683 28.8826 176.943 28.735C177.204 28.5874 177.539 28.4152 177.961 28.2307C178.383 28.0462 178.706 27.8986 178.954 27.8002C179.202 27.7018 179.537 27.5665 179.971 27.4066C180.406 27.2467 180.716 27.1237 180.915 27.0499V25.3525C180.915 24.6883 180.828 24.1964 180.654 23.8766C180.48 23.5445 180.145 23.3846 179.661 23.3846C178.842 23.3846 178.408 23.9627 178.358 25.1188L178.271 26.3734L173.679 26.1889C173.679 25.9798 173.692 25.7707 173.729 25.5493C173.866 23.5814 174.474 22.13 175.529 21.2075C176.596 20.285 178.11 19.8176 180.083 19.8176C181.907 19.8176 183.297 20.3096 184.216 21.3059C185.146 22.3022 185.606 23.6552 185.606 25.3894V33.8887C185.606 35.3031 185.717 36.8406 185.953 38.5011H181.609C181.349 37.1481 181.2 36.2625 181.15 35.8566C180.902 36.693 180.468 37.3941 179.86 37.9599C179.252 38.5257 178.47 38.8086 177.527 38.8086V38.7963ZM194.355 35.5983C194.938 35.5983 195.323 35.3523 195.509 34.8603C195.695 34.3683 195.782 33.3475 195.782 31.81V26.4595C195.782 25.4509 195.695 24.7375 195.509 24.344C195.335 23.9381 195 23.7413 194.504 23.7413C194.119 23.7413 193.809 23.8766 193.548 24.1349C193.3 24.4054 193.064 24.8605 192.853 25.5124V31.6009C192.853 33.2491 192.94 34.3314 193.126 34.8357C193.3 35.34 193.709 35.5983 194.342 35.5983H194.355ZM194.094 38.784C192.94 38.7717 191.972 38.6118 191.19 38.3043C190.408 37.9968 189.788 37.5171 189.353 36.8898C188.919 36.2625 188.596 35.5245 188.41 34.7004C188.224 33.8641 188.125 32.8555 188.125 31.6993V21.9701C188.125 20.7032 188.199 19.5839 188.323 18.6491C188.46 17.702 188.634 16.9271 188.869 16.3121C189.093 15.6971 189.416 15.1805 189.8 14.7623C190.197 14.3319 190.607 14.0121 191.016 13.7907C191.426 13.557 191.947 13.3602 192.568 13.1757C193.201 12.9912 193.796 12.8313 194.38 12.7083C194.963 12.5976 195.658 12.4131 196.489 12.1671C197.321 11.9334 198.103 11.6628 198.822 11.3799L199.257 15.0698C198.525 15.4142 197.792 15.6848 197.06 15.8693C196.328 16.0661 195.745 16.1768 195.323 16.2383C194.901 16.2875 194.504 16.3736 194.107 16.4843C193.722 16.595 193.424 16.7672 193.25 17.0132C193.064 17.2469 192.915 17.6282 192.816 18.1325C192.704 18.6368 192.655 19.3502 192.655 20.2481L192.642 21.6749C193.697 21.1337 194.752 20.8508 195.807 20.8508C197.358 20.8508 198.525 21.3674 199.282 22.4129C200.039 23.4584 200.411 25.1803 200.411 27.6157V31.8838C200.411 33.2614 200.262 34.4175 199.964 35.3523C199.666 36.2871 199.22 37.0128 198.636 37.5048C198.041 38.0091 197.383 38.3535 196.663 38.538C195.98 38.7225 195.174 38.8086 194.231 38.8086C194.181 38.8086 194.119 38.8086 194.082 38.8086L194.094 38.784ZM207.373 27.259H210.215V25.4509C210.215 24.6637 210.103 24.098 209.867 23.7536C209.632 23.4092 209.259 23.237 208.763 23.237C208.267 23.237 207.907 23.4338 207.696 23.8151C207.485 24.1964 207.385 24.8851 207.385 25.8568V27.2467L207.373 27.259ZM208.775 38.8086C206.703 38.8086 205.139 38.2428 204.109 37.1235C203.079 36.0042 202.558 34.3929 202.558 32.2774V26.3242C202.558 24.221 203.079 22.6097 204.122 21.4781C205.164 20.3588 206.715 19.793 208.763 19.793C210.86 19.793 212.387 20.3588 213.33 21.4781C214.273 22.5974 214.745 24.2702 214.745 26.4841V29.5591H207.361V32.5726C207.361 33.4828 207.448 34.1715 207.634 34.6266C207.832 35.0817 208.192 35.3154 208.751 35.3154C209.719 35.3154 210.19 34.6266 210.19 33.2491V31.5394H214.72V33.04C214.72 34.8972 214.211 36.324 213.181 37.308C212.163 38.292 210.687 38.784 208.763 38.784L208.775 38.8086ZM215.973 38.5749V35.2293C216.135 35.2416 216.296 35.2416 216.457 35.2416C216.817 35.2416 217.14 35.2047 217.413 35.1186C217.798 34.9956 218.095 34.8234 218.331 34.5897C218.567 34.356 218.753 33.9625 218.89 33.3844C219.039 32.8063 219.125 32.2405 219.188 31.6747C219.25 31.1089 219.312 30.2848 219.386 29.2147L220.056 20.0882H231.399V38.4888H226.534V23.4461H224.189L223.755 29.5837C223.593 32.0929 223.295 33.9871 222.886 35.2785C222.476 36.5577 221.881 37.4433 221.111 37.9353C220.342 38.4273 219.237 38.6733 217.81 38.6733C217.338 38.6733 216.73 38.6364 215.973 38.5626V38.5749ZM239.081 35.7459H239.156C240.459 35.7336 241.352 35.5368 241.849 35.1924C242.357 34.848 242.606 34.1592 242.606 33.1261C242.606 32.0806 242.37 31.3672 241.873 30.9982C241.389 30.6292 240.508 30.4324 239.23 30.4078H239.069V35.7459H239.081ZM234.241 38.5011V20.1005H239.081V27.5665H239.304C240.384 27.5665 241.303 27.6157 242.084 27.7264C242.866 27.8248 243.574 27.997 244.219 28.243C244.864 28.489 245.385 28.8211 245.77 29.2393C246.167 29.6575 246.465 30.1864 246.676 30.826C246.887 31.4656 246.999 32.2159 246.999 33.1015C246.999 35.0817 246.403 36.4716 245.212 37.2834C244.02 38.0952 242.022 38.5011 239.205 38.5011H234.241Z" fill="#6B7785"/>
</svg>
