<svg width="199" height="28" viewBox="0 0 199 28" fill="none" xmlns="http://www.w3.org/2000/svg">
<path d="M29.5963 26.9613H21.6148L14.4354 16.1157H6.72122V26.9613H0V0H18.5597C20.4692 0 21.9585 0.165485 23.0278 0.496454C24.7336 1.00564 26.0575 1.94763 26.9995 3.32242C27.9415 4.67176 28.4124 6.25023 28.4124 8.05783C28.4124 9.35625 28.1706 10.5401 27.6869 11.6094C27.1268 12.8823 26.3248 13.8116 25.281 14.3972C24.2626 14.9827 22.9642 15.4155 21.3857 15.6956L29.5963 26.9613ZM6.72122 4.73541V11.3421H17.8342C20.3292 11.3421 21.5767 10.2728 21.5767 8.13421C21.5767 5.86834 20.24 4.73541 17.5668 4.73541H6.72122Z" fill="#6B7785"/>
<path d="M34.0838 0H40.805V16.4212C40.805 17.5159 41.0087 18.4706 41.416 19.2853C41.8488 20.0746 42.4344 20.6983 43.1727 21.1566C43.9365 21.5894 44.7639 21.9076 45.655 22.1113C46.5715 22.315 47.5771 22.4168 48.6719 22.4168C49.6139 22.4168 50.505 22.3404 51.3451 22.1877C52.1853 22.0095 53 21.7294 53.7892 21.3475C54.6039 20.9656 55.2404 20.4183 55.6986 19.7054C56.1824 18.9671 56.4242 18.1015 56.4242 17.1086V0H63.1454V17.1468C63.1454 20.6856 61.8216 23.3588 59.1738 25.1664C56.526 26.974 53.0509 27.8778 48.7483 27.8778C44.3693 27.8778 40.8305 26.9613 38.1318 25.1282C35.4331 23.2951 34.0838 20.6092 34.0838 17.0704V0Z" fill="#6B7785"/>
<path d="M70.7826 0H88.2731C89.2914 0 90.1316 0.0254594 90.7935 0.0763771C91.4555 0.127296 92.3083 0.33097 93.3522 0.687399C94.396 1.01837 95.2234 1.52755 95.8344 2.21495C96.8528 3.36061 97.362 4.82451 97.362 6.60666C97.362 9.45809 95.8726 11.3675 92.8939 12.335C96.7637 13.226 98.7113 15.4919 98.7368 19.1326C98.7368 21.0166 98.3422 22.5314 97.5529 23.677C97.0437 24.4408 96.4582 25.0646 95.7962 25.5483C95.1598 26.032 94.4087 26.3757 93.5431 26.5794C92.703 26.7576 92.0156 26.8722 91.4809 26.9231C90.9463 26.9485 90.2207 26.9613 89.3042 26.9613H70.7826V0ZM77.4656 10.5783H87.6238C89.7879 10.5783 90.8699 9.58538 90.8699 7.59957C90.8444 5.63921 89.7751 4.65903 87.662 4.65903H77.4656V10.5783ZM77.4656 22.2259H88.0057C90.6789 22.2259 92.0156 21.0038 92.0156 18.5597C92.0156 16.3703 90.819 15.2755 88.4258 15.2755H77.4656V22.2259Z" fill="#6B7785"/>
<path d="M130.873 26.9613H104.981V0H130.109V4.84997H111.74V10.922H129.498V15.7338H111.74V22.1495H130.873V26.9613Z" fill="#6B7785"/>
<path d="M162.32 26.9613H134.595V22.0349L153.193 4.7736H135.932V0H162.32V4.7736L143.684 22.0349H162.32V26.9613Z" fill="#6B7785"/>
<path d="M198.429 26.9613H191.669V15.3901H175.401V26.9613H168.641V0H175.401V10.3873H191.669V0H198.429V26.9613Z" fill="#6B7785"/>
</svg>
