<svg width="55" height="43" viewBox="0 0 55 43" fill="none" xmlns="http://www.w3.org/2000/svg">
<path fill-rule="evenodd" clip-rule="evenodd" d="M43.4626 19.6681L45.3255 15.3808H25.6755L21.7455 9.94516H22.1793C32.4382 9.94516 42.7225 9.94516 52.9814 9.94516H54.0022L47.3671 25.1038L39.8644 25.1293L52.3434 42.355H45.1979L40.2727 35.5413L28.7889 19.6681L43.4371 19.6426L43.4626 19.6681ZM14.9062 0.50293L18.8363 5.93859L14.9062 0.528449V0.50293Z" fill="white"/>
<path fill-rule="evenodd" clip-rule="evenodd" d="M25.6727 15.3808H25.6216L21.2833 25.1548H14.98L21.7427 9.97068L25.6727 15.4063V15.3808ZM40.2698 35.5668L39.4787 34.4694C26.9486 34.4694 13.5509 34.4439 1.02078 34.4439H0L14.9034 0.50293L18.8334 5.91307L8.67665 29.0083L35.5232 29.0338L28.7605 19.6936H28.8116L40.2954 35.5668H40.2698Z" fill="white"/>
</svg>
