<svg width="18" height="18" viewBox="0 0 18 18" fill="none" xmlns="http://www.w3.org/2000/svg">
<path fill-rule="evenodd" clip-rule="evenodd" d="M11 12.502V11.708L10.726 11.432C9.589 12.407 8.115 13 6.5 13C2.91 13 -1.90735e-06 10.09 -1.90735e-06 6.5C-1.90735e-06 2.91 2.91 0 6.5 0C10.09 0 13 2.91 13 6.5C13 8.115 12.408 9.588 11.434 10.725L11.708 11.001H12.5L17.491 15.999L16 17.49L11 12.502ZM11 6.5C11 4.014 8.98599 2 6.49999 2C4.01499 2 1.99999 4.014 1.99999 6.5C1.99999 8.985 4.01499 11 6.49999 11C8.98599 11 11 8.985 11 6.5Z" fill="#7BB933"/>
</svg>
