<svg width="18" height="18" viewBox="0 0 18 18" fill="none" xmlns="http://www.w3.org/2000/svg">
<path fill-rule="evenodd" clip-rule="evenodd" d="M7.00076 12.502V11.708L7.27477 11.432C8.41177 12.407 9.88577 13 11.5008 13C15.0908 13 18.0008 10.09 18.0008 6.5C18.0008 2.91 15.0908 0 11.5008 0C7.91076 0 5.00076 2.91 5.00076 6.5C5.00076 8.115 5.59276 9.588 6.56676 10.725L6.29276 11.001H5.50076L0.509766 15.999L2.00076 17.49L7.00076 12.502ZM7.00077 6.5C7.00077 4.014 9.01477 2 11.5008 2C13.9858 2 16.0008 4.014 16.0008 6.5C16.0008 8.985 13.9858 11 11.5008 11C9.01477 11 7.00077 8.985 7.00077 6.5Z" fill="#34353E"/>
</svg>
