<svg width="13" height="13" viewBox="0 0 13 13" fill="none" xmlns="http://www.w3.org/2000/svg">
<path fill-rule="evenodd" clip-rule="evenodd" d="M0.00169928 2.49992C0.00174621 2.22381 0.22559 2 0.501699 2H6.5C6.77614 2 7 2.22386 7 2.5C7 2.77614 6.77614 3 6.5 3H1.00161L1.00008 12H10V6.5C10 6.22386 10.2239 6 10.5 6C10.7761 6 11 6.22386 11 6.5V12.5C11 12.7761 10.7761 13 10.5 13H0.5C0.367377 13 0.240187 12.9473 0.146417 12.8535C0.052646 12.7597 -2.25233e-05 12.6325 7.22562e-09 12.4999L0.00169928 2.49992Z" fill="white"/>
<path fill-rule="evenodd" clip-rule="evenodd" d="M12.8536 0.146447C13.0488 0.341709 13.0488 0.658291 12.8536 0.853553L4.85355 8.85355C4.65829 9.04882 4.34171 9.04882 4.14645 8.85355C3.95118 8.65829 3.95118 8.34171 4.14645 8.14645L12.1464 0.146447C12.3417 -0.0488155 12.6583 -0.0488155 12.8536 0.146447Z" fill="white"/>
<path fill-rule="evenodd" clip-rule="evenodd" d="M7 0.5C7 0.223858 7.22386 0 7.5 0H12.5C12.7761 0 13 0.223858 13 0.5V5.5C13 5.77614 12.7761 6 12.5 6C12.2239 6 12 5.77614 12 5.5V1H7.5C7.22386 1 7 0.776142 7 0.5Z" fill="white"/>
</svg>
