<svg width="32" height="32" viewBox="0 0 32 32" fill="none" xmlns="http://www.w3.org/2000/svg">
<path fill-rule="evenodd" clip-rule="evenodd" d="M16 32C24.8366 32 32 24.8366 32 16C32 7.16344 24.8366 0 16 0C7.16344 0 0 7.16344 0 16C0 24.8366 7.16344 32 16 32ZM25.7931 11.2386C25.7931 11.2386 25.5862 9.77271 25 9.125C24.299 8.33744 23.5096 8.27764 23.0945 8.24619C23.0604 8.24361 23.0288 8.24121 23 8.23862C20.2069 8.0341 16 8 16 8C16 8 11.7931 8.0341 9 8.23862L8.94083 8.24373C8.53646 8.27795 7.72146 8.34692 7 9.125C6.3793 9.77275 6.20691 11.2386 6.20691 11.2386C6.20691 11.2386 6 12.9773 6 14.7159V16.3182C6 18.0569 6.20691 19.7614 6.20691 19.7614C6.20691 19.7614 6.41383 21.2273 7 21.875C7.61599 22.5671 8.39112 22.6747 8.90081 22.7455C9.01883 22.7619 9.12263 22.7763 9.20691 22.7955C10.7931 22.9659 16 23 16 23C16 23 20.2069 23 23 22.7614L23.0592 22.7563C23.4635 22.722 24.2785 22.6531 25 21.875C25.5862 21.2273 25.7931 19.7614 25.7931 19.7614C25.7931 19.7614 26 18.0227 26 16.3182V14.7159C26 12.9773 25.7931 11.2386 25.7931 11.2386ZM13.7812 12.4447V19.1114L19.3368 15.8549L13.7812 12.4447Z" fill="white"/>
</svg>
