<svg width="80" height="80" viewBox="0 0 80 80" fill="none" xmlns="http://www.w3.org/2000/svg">
<path d="M50.665 69.2051L60.7916 74.5095V64L50.665 69.2051Z" fill="#34353E"/>
<circle cx="39.9984" cy="38.6663" r="31.8333" stroke="#34353E" stroke-width="3"/>
<circle cx="26.501" cy="28.5" r="4.5" fill="#34353E"/>
<path fill-rule="evenodd" clip-rule="evenodd" d="M31.9932 34.4282V37.1191C27.3362 38.3689 24.905 41.1537 23.707 45.0001H15.9994C15.9413 39.2565 16.95 35 22.6793 34L26.4978 37H26.5002L30.3187 34C30.9289 34.1065 31.4856 34.25 31.9932 34.4282Z" fill="#34353E"/>
<circle r="4.5" transform="matrix(-1 0 0 1 53.501 28.5)" fill="#34353E"/>
<path fill-rule="evenodd" clip-rule="evenodd" d="M48.001 34.4306V37.1191C52.658 38.3689 55.0892 41.1537 56.2872 45.0001H63.9987C64.0567 39.2565 63.0482 35 57.32 34L53.5022 37H53.4998L49.682 34C49.0691 34.107 48.5103 34.2513 48.001 34.4306Z" fill="#34353E"/>
<path d="M45.6678 40L40.3345 44.0909H39.001V55H54.9978C55.0788 47.1679 53.67 41.3636 45.6678 40Z" fill="#34353E"/>
<path d="M34.3341 40L39.6674 44.0909H41.001V55H25.0042C24.9231 47.1679 26.3319 41.3636 34.3341 40Z" fill="#34353E"/>
<circle cx="40.001" cy="32" r="7" fill="#34353E"/>
</svg>
