<svg width="80" height="80" viewBox="0 0 80 80" fill="none" xmlns="http://www.w3.org/2000/svg">
<path d="M20.866 73.141L1.73205 40L20.866 6.85898H59.134L78.2679 40L59.134 73.141H20.866Z" stroke="#34353E" stroke-width="3"/>
<path d="M31.0539 22C26.0958 22 22.2156 26.0958 22 31.2695V31.485V31.9162V32.1317C22.2156 35.5808 24.1557 38.3832 26.7425 39.8922C23.9401 41.6168 22 44.6347 22 48.2994C22 53.4731 26.0958 57.7844 31.0539 57.7844C33.6407 57.7844 35.7964 56.7066 37.521 54.982L35.1497 52.3952C34.0719 53.6886 32.5629 54.3353 31.0539 54.3353C27.8204 54.3353 25.2335 51.5329 25.2335 48.2994C25.2335 44.8503 27.8204 42.2635 30.8383 42.2635H34.9341V40.1078V39.6766V37.521H30.8383C27.8204 37.521 25.2335 34.7186 25.2335 31.485C25.2335 28.2515 27.8204 25.4491 31.0539 25.4491C32.5629 25.4491 34.0719 26.0958 35.1497 27.1737L37.521 24.8024C35.7964 23.0778 33.6407 22 31.0539 22ZM41.8323 37.9521V41.4012H43.1257C43.7725 41.4012 43.988 41.6168 44.4192 42.0479L47.8683 48.0838L44.4192 53.9042C43.988 54.5509 43.7725 54.7665 42.9102 54.7665H41.8323V58H42.9102C44.6347 58 46.3593 57.3533 47.2216 55.6287L49.8084 51.3174L52.1796 55.6287C53.0419 57.3533 54.7665 58 56.491 58H57.7844V54.7665H56.491C55.8443 54.7665 55.4132 54.5509 55.1976 53.9042L51.7485 48.0838L55.1976 42.0479C55.4132 41.6168 55.8443 41.4012 56.491 41.4012H57.5689V37.9521H56.491C54.7665 37.9521 53.0419 38.8144 52.1796 40.5389L49.8084 44.6347L47.4371 40.5389C46.3593 38.8144 44.6347 37.9521 43.1257 37.9521H41.8323Z" fill="#34353E"/>
</svg>
