<svg width="80" height="80" viewBox="0 0 80 80" fill="none" xmlns="http://www.w3.org/2000/svg">
<path d="M17 58.5H15.5C15.5 59.1067 15.8655 59.6536 16.426 59.8858C16.9865 60.118 17.6317 59.9897 18.0607 59.5607L17 58.5ZM25.4142 50.0858L24.3536 49.0251L25.4142 50.0858ZM18.5 58.5V50.5H15.5V58.5H18.5ZM16 48H12V51H16V48ZM11.5 47.5V15H8.5V47.5H11.5ZM12 14.5H58V11.5H12V14.5ZM58.5 15V47.5H61.5V15H58.5ZM58 48H26.8284V51H58V48ZM24.3536 49.0251L15.9393 57.4393L18.0607 59.5607L26.4749 51.1464L24.3536 49.0251ZM26.8284 48C25.9002 48 25.0099 48.3687 24.3536 49.0251L26.4749 51.1464C26.5686 51.0527 26.6958 51 26.8284 51V48ZM58.5 47.5C58.5 47.7761 58.2761 48 58 48V51C59.933 51 61.5 49.433 61.5 47.5H58.5ZM58 14.5C58.2761 14.5 58.5 14.7239 58.5 15H61.5C61.5 13.067 59.933 11.5 58 11.5V14.5ZM11.5 15C11.5 14.7239 11.7239 14.5 12 14.5V11.5C10.067 11.5 8.5 13.067 8.5 15H11.5ZM12 48C11.7239 48 11.5 47.7761 11.5 47.5H8.5C8.5 49.433 10.067 51 12 51V48ZM18.5 50.5C18.5 49.1193 17.3807 48 16 48V51C15.7239 51 15.5 50.7761 15.5 50.5H18.5Z" fill="#34353E"/>
<path d="M64 67.5H65.5C65.5 68.1067 65.1345 68.6536 64.574 68.8858C64.0135 69.118 63.3683 68.9897 62.9393 68.5607L64 67.5ZM55.5858 59.0858L56.6464 58.0251L55.5858 59.0858ZM62.5 67.5V59.5H65.5V67.5H62.5ZM65 57H69V60H65V57ZM69.5 56.5V25H72.5V56.5H69.5ZM23 57H54.1716V60H23V57ZM56.6464 58.0251L65.0607 66.4393L62.9393 68.5607L54.5251 60.1464L56.6464 58.0251ZM69 24.5H60V21.5H69V24.5ZM22.5 54.5V56.5H19.5V54.5H22.5ZM54.1716 57C55.0998 57 55.9901 57.3687 56.6464 58.0251L54.5251 60.1464C54.4314 60.0527 54.3042 60 54.1716 60V57ZM23 60C21.067 60 19.5 58.433 19.5 56.5H22.5C22.5 56.7761 22.7239 57 23 57V60ZM69.5 25C69.5 24.7239 69.2761 24.5 69 24.5V21.5C70.933 21.5 72.5 23.067 72.5 25H69.5ZM69 57C69.2761 57 69.5 56.7761 69.5 56.5H72.5C72.5 58.433 70.933 60 69 60V57ZM62.5 59.5C62.5 58.1193 63.6193 57 65 57V60C65.2761 60 65.5 59.7761 65.5 59.5H62.5Z" fill="#34353E"/>
<path d="M34.3824 36.281C34.3824 30.8674 40.999 32.6721 40.999 26.6574C40.999 20.6427 31.9764 19.4395 30.1719 25.4546" stroke="#34353E" stroke-width="3" stroke-linecap="round" stroke-linejoin="round"/>
<circle cx="34.3831" cy="41.6952" r="1.80453" fill="#34353E"/>
</svg>
