<svg width="312" height="232" viewBox="0 0 312 232" fill="none" xmlns="http://www.w3.org/2000/svg">
<rect width="26.0447" height="15.6268" transform="matrix(-1 0 0 1 43.627 137.558)" fill="#606D7C"/>
<rect width="19.5335" height="2.60447" transform="matrix(-0.911336 0.411663 0.411663 0.911336 39.9512 129.744)" fill="#606D7C"/>
<path fill-rule="evenodd" clip-rule="evenodd" d="M77.9186 214.861C68.6761 214.317 58.2518 212.954 49.355 210.437C43.3029 208.725 38.1431 206.53 34.5477 203.833C30.9854 201.161 29.1993 198.202 29.1993 194.856C29.1993 191.069 31.3939 188.241 35.6088 185.731C39.8906 183.181 45.6902 181.311 51.8781 179.331L52.0636 179.272C54.8394 178.384 57.6933 177.47 60.4377 176.458C60.2076 174.76 60.0356 173.043 59.9236 171.309C56.9698 172.448 53.7194 173.492 50.3543 174.569L50.1689 174.628C44.2024 176.537 37.875 178.562 33.0504 181.435C28.109 184.378 24.1993 188.551 24.1993 194.856C24.1993 200.3 27.2153 204.584 31.5477 207.833C35.8472 211.058 41.675 213.461 47.994 215.248C59.1081 218.392 72.3163 219.789 82.959 220.084C81.1948 218.427 79.5124 216.684 77.9186 214.861ZM61.8621 149.012C62.2599 147.382 62.712 145.773 63.2165 144.188C57.0245 142.857 49.9195 142.864 44.6273 142.87L44.6272 142.87C44.2865 142.87 43.9533 142.871 43.6284 142.871L43.6283 147.871C43.9043 147.871 44.1839 147.87 44.4666 147.87C49.8111 147.867 56.3062 147.863 61.8621 149.012Z" fill="#606D7C"/>
<rect x="190.541" y="218.188" width="26.9562" height="13.4781" fill="#606D7C"/>
<rect x="262.428" y="218.188" width="26.9562" height="13.4781" fill="#606D7C"/>
<path fill-rule="evenodd" clip-rule="evenodd" d="M173.077 104.703V29.6973H306.844V217.637H186.063C184.365 219.39 182.579 221.059 180.715 222.637H307.844C310.053 222.637 311.844 220.846 311.844 218.637V28.6973C311.844 26.4881 310.053 24.6973 307.844 24.6973H172.077C169.868 24.6973 168.077 26.4881 168.077 28.6973V101.749C169.786 102.669 171.453 103.655 173.077 104.703Z" fill="#606D7C"/>
<path fill-rule="evenodd" clip-rule="evenodd" d="M284.382 54.7002H195.542V71.6564H284.382V54.7002ZM190.542 49.7002V76.6564H289.382V49.7002H190.542Z" fill="#606D7C"/>
<path fill-rule="evenodd" clip-rule="evenodd" d="M284.382 90.6416H195.542V107.598H284.382V90.6416ZM190.542 85.6416V112.598H289.382V85.6416H190.542Z" fill="#606D7C"/>
<path fill-rule="evenodd" clip-rule="evenodd" d="M197.391 202.452H289.382V175.496H206.224C206.018 177.181 205.756 178.848 205.438 180.496H284.382V197.452H199.953C199.161 199.155 198.306 200.823 197.391 202.452Z" fill="#606D7C"/>
<path fill-rule="evenodd" clip-rule="evenodd" d="M206.769 166.511C206.769 166.507 206.769 166.504 206.769 166.5C206.769 164.823 206.712 163.16 206.602 161.511H284.382V126.584H195.542V127.44C194.272 125.42 192.907 123.466 191.452 121.584H289.382V166.511H206.769Z" fill="#606D7C"/>
<path d="M64.5607 93.45L28.1113 72.4483L125.08 19.3129C126.775 18.3841 128.902 19.0052 129.831 20.7004L145.417 49.1436L64.5607 93.45Z" stroke="#606D7C" stroke-width="5"/>
<path d="M46.8389 91.8066L63.1202 101.15L144.28 56.6772L148.45 64.2878C148.981 65.2564 148.626 66.472 147.657 67.0028L61.4214 114.257C60.4527 114.788 59.2372 114.433 58.7064 113.464L46.8389 91.8066Z" fill="#606D7C"/>
<path d="M26.4298 87.8945C26.1644 87.4102 26.3419 86.8024 26.8262 86.537L35.3138 81.8861L50.7081 109.98L42.2205 114.631C41.7362 114.896 41.1284 114.719 40.863 114.234L26.4298 87.8945Z" fill="#606D7C"/>
<path fill-rule="evenodd" clip-rule="evenodd" d="M147.252 94.3275C145.604 94.0101 143.937 93.7478 142.252 93.5425V89.3244V76.9678C142.252 74.7586 144.043 72.9678 146.252 72.9678H153.27H158.27V77.9678V97.36C156.629 96.7668 154.962 96.2303 153.27 95.7529V77.9678H147.252V94.3244V94.3275ZM118.906 94.4023L115.23 87.0502L111.467 89.2001L114.567 95.4001C112.924 95.8313 111.303 96.318 109.706 96.858L104.88 87.2056L112.99 82.5712L117.338 80.0867L119.577 84.5657L124.079 93.5684C122.335 93.786 120.61 94.0647 118.906 94.4023Z" fill="#606D7C"/>
<path fill-rule="evenodd" clip-rule="evenodd" d="M133.003 222.895C164.39 222.895 189.835 197.593 189.835 166.381C189.835 135.169 164.39 109.867 133.003 109.867C101.615 109.867 76.1708 135.169 76.1708 166.381C76.1708 197.593 101.615 222.895 133.003 222.895ZM133.003 228.194C167.333 228.194 195.163 200.519 195.163 166.381C195.163 132.243 167.333 104.568 133.003 104.568C98.6727 104.568 70.8428 132.243 70.8428 166.381C70.8428 200.519 98.6727 228.194 133.003 228.194Z" fill="#606D7C"/>
<path fill-rule="evenodd" clip-rule="evenodd" d="M179.123 166.381C179.123 191.705 158.519 212.235 133.101 212.235C110.092 212.235 91.0262 195.411 87.6205 173.436H84.041C87.4766 197.366 108.133 215.762 133.101 215.762C160.474 215.762 182.663 193.653 182.663 166.381C182.663 139.109 160.474 117 133.101 117C108.133 117 87.4766 135.396 84.041 159.327H87.6205C91.0262 137.351 110.092 120.527 133.101 120.527C158.519 120.527 179.123 141.057 179.123 166.381Z" fill="#606D7C"/>
<path fill-rule="evenodd" clip-rule="evenodd" d="M163.405 166.381C163.405 183.078 149.79 196.614 132.994 196.614C118.662 196.614 106.646 186.759 103.428 173.494H97.9307C101.246 189.729 115.684 201.949 132.994 201.949C152.754 201.949 168.772 186.024 168.772 166.381C168.772 146.737 152.754 130.812 132.994 130.812C115.684 130.812 101.246 143.032 97.9307 159.267H103.428C106.646 146.002 118.662 136.148 132.994 136.148C149.79 136.148 163.405 149.683 163.405 166.381Z" fill="#606D7C"/>
<path d="M129.185 118.381H136.824V132.884H129.185V118.381Z" fill="#606D7C"/>
<path d="M129.185 199.877H136.824V214.38H129.185V199.877Z" fill="#606D7C"/>
<path d="M96.582 135.161L101.605 130.166L111.652 140.156L106.629 145.152L96.582 135.161Z" fill="#606D7C"/>
<path d="M154.353 192.606L159.376 187.611L169.422 197.602L164.399 202.597L154.353 192.606Z" fill="#606D7C"/>
<path d="M164.403 130.166L169.427 135.161L159.38 145.152L154.357 140.156L164.403 130.166Z" fill="#606D7C"/>
<path d="M106.634 187.611L111.657 192.607L101.611 202.597L96.5872 197.602L106.634 187.611Z" fill="#606D7C"/>
<path d="M83.3428 170.18V162.583H108.346V170.18H83.3428Z" fill="#606D7C"/>
<path d="M166.687 170.18V162.583H181.272V170.18H166.687Z" fill="#606D7C"/>
</svg>
