<svg width="175" height="219" viewBox="0 0 175 219" fill="none" xmlns="http://www.w3.org/2000/svg">
<path fill-rule="evenodd" clip-rule="evenodd" d="M163.333 8.75H11.6667C10.0558 8.75 8.75 10.0558 8.75 11.6667V207.083C8.75 208.694 10.0558 210 11.6667 210H163.333C164.944 210 166.25 208.694 166.25 207.083V11.6667C166.25 10.0558 164.944 8.75 163.333 8.75ZM11.6667 0C5.22335 0 0 5.22335 0 11.6667V207.083C0 213.527 5.22334 218.75 11.6667 218.75H163.333C169.777 218.75 175 213.527 175 207.083V11.6667C175 5.22335 169.777 0 163.333 0H11.6667Z" fill="#606D7C"/>
<path fill-rule="evenodd" clip-rule="evenodd" d="M141.458 27.708H33.5417C31.9308 27.708 30.625 29.0138 30.625 30.6247V56.8747C30.625 58.4855 31.9308 59.7913 33.5417 59.7913H141.458C143.069 59.7913 144.375 58.4855 144.375 56.8747V30.6247C144.375 29.0138 143.069 27.708 141.458 27.708ZM33.5417 18.958C27.0983 18.958 21.875 24.1814 21.875 30.6247V56.8747C21.875 63.318 27.0983 68.5413 33.5417 68.5413H141.458C147.902 68.5413 153.125 63.318 153.125 56.8747V30.6247C153.125 24.1814 147.902 18.958 141.458 18.958H33.5417Z" fill="#606D7C"/>
<path fill-rule="evenodd" clip-rule="evenodd" d="M46.6667 84.583H33.5417C31.9308 84.583 30.625 85.8888 30.625 87.4997V100.625C30.625 102.235 31.9308 103.541 33.5417 103.541H46.6667C48.2775 103.541 49.5833 102.236 49.5833 100.625V87.4997C49.5833 85.8888 48.2775 84.583 46.6667 84.583ZM33.5417 75.833C27.0983 75.833 21.875 81.0564 21.875 87.4997V100.625C21.875 107.068 27.0983 112.291 33.5417 112.291H46.6667C53.11 112.291 58.3333 107.068 58.3333 100.625V87.4997C58.3333 81.0564 53.11 75.833 46.6667 75.833H33.5417Z" fill="#606D7C"/>
<path fill-rule="evenodd" clip-rule="evenodd" d="M46.6667 128.333H33.5417C31.9308 128.333 30.625 129.639 30.625 131.25V142.916C30.625 144.527 31.9308 145.833 33.5417 145.833H46.6667C48.2775 145.833 49.5833 144.527 49.5833 142.916V131.25C49.5833 129.639 48.2775 128.333 46.6667 128.333ZM33.5417 119.583C27.0983 119.583 21.875 124.806 21.875 131.25V142.916C21.875 149.36 27.0983 154.583 33.5417 154.583H46.6667C53.11 154.583 58.3333 149.36 58.3333 142.916V131.25C58.3333 124.806 53.11 119.583 46.6667 119.583H33.5417Z" fill="#606D7C"/>
<path fill-rule="evenodd" clip-rule="evenodd" d="M46.6667 170.625H33.5417C31.9308 170.625 30.625 171.931 30.625 173.542V186.667C30.625 188.277 31.9308 189.583 33.5417 189.583H46.6667C48.2775 189.583 49.5833 188.277 49.5833 186.667V173.542C49.5833 171.931 48.2775 170.625 46.6667 170.625ZM33.5417 161.875C27.0983 161.875 21.875 167.098 21.875 173.542V186.667C21.875 193.11 27.0983 198.333 33.5417 198.333H46.6667C53.11 198.333 58.3333 193.11 58.3333 186.667V173.542C58.3333 167.098 53.11 161.875 46.6667 161.875H33.5417Z" fill="#606D7C"/>
<path fill-rule="evenodd" clip-rule="evenodd" d="M93.3333 84.583H81.6667C80.0558 84.583 78.75 85.8888 78.75 87.4997V100.625C78.75 102.236 80.0558 103.541 81.6667 103.541H93.3333C94.9442 103.541 96.25 102.236 96.25 100.625V87.4997C96.25 85.8888 94.9442 84.583 93.3333 84.583ZM81.6667 75.833C75.2233 75.833 70 81.0564 70 87.4997V100.625C70 107.068 75.2233 112.291 81.6667 112.291H93.3333C99.7766 112.291 105 107.068 105 100.625V87.4997C105 81.0564 99.7766 75.833 93.3333 75.833H81.6667Z" fill="#606D7C"/>
<path fill-rule="evenodd" clip-rule="evenodd" d="M93.3333 128.333H81.6667C80.0558 128.333 78.75 129.639 78.75 131.25V142.916C78.75 144.527 80.0558 145.833 81.6667 145.833H93.3333C94.9442 145.833 96.25 144.527 96.25 142.916V131.25C96.25 129.639 94.9442 128.333 93.3333 128.333ZM81.6667 119.583C75.2233 119.583 70 124.806 70 131.25V142.916C70 149.36 75.2233 154.583 81.6667 154.583H93.3333C99.7766 154.583 105 149.36 105 142.916V131.25C105 124.806 99.7766 119.583 93.3333 119.583H81.6667Z" fill="#606D7C"/>
<path fill-rule="evenodd" clip-rule="evenodd" d="M93.3333 170.625H81.6667C80.0558 170.625 78.75 171.931 78.75 173.542V186.667C78.75 188.277 80.0558 189.583 81.6667 189.583H93.3333C94.9442 189.583 96.25 188.277 96.25 186.667V173.542C96.25 171.931 94.9442 170.625 93.3333 170.625ZM81.6667 161.875C75.2233 161.875 70 167.098 70 173.542V186.667C70 193.11 75.2233 198.333 81.6667 198.333H93.3333C99.7766 198.333 105 193.11 105 186.667V173.542C105 167.098 99.7766 161.875 93.3333 161.875H81.6667Z" fill="#606D7C"/>
<path fill-rule="evenodd" clip-rule="evenodd" d="M141.46 84.583H128.335C126.724 84.583 125.418 85.8888 125.418 87.4997V100.625C125.418 102.236 126.724 103.541 128.335 103.541H141.46C143.07 103.541 144.376 102.236 144.376 100.625V87.4997C144.376 85.8888 143.07 84.583 141.46 84.583ZM128.335 75.833C121.891 75.833 116.668 81.0564 116.668 87.4997V100.625C116.668 107.068 121.891 112.291 128.335 112.291H141.46C147.903 112.291 153.126 107.068 153.126 100.625V87.4997C153.126 81.0564 147.903 75.833 141.46 75.833H128.335Z" fill="#606D7C"/>
<path fill-rule="evenodd" clip-rule="evenodd" d="M141.46 128.333H128.335C126.724 128.333 125.418 129.639 125.418 131.25V142.916C125.418 144.527 126.724 145.833 128.335 145.833H141.46C143.07 145.833 144.376 144.527 144.376 142.916V131.25C144.376 129.639 143.07 128.333 141.46 128.333ZM128.335 119.583C121.891 119.583 116.668 124.806 116.668 131.25V142.916C116.668 149.36 121.891 154.583 128.335 154.583H141.46C147.903 154.583 153.126 149.36 153.126 142.916V131.25C153.126 124.806 147.903 119.583 141.46 119.583H128.335Z" fill="#606D7C"/>
<path fill-rule="evenodd" clip-rule="evenodd" d="M141.46 170.625H128.335C126.724 170.625 125.418 171.931 125.418 173.542V186.667C125.418 188.277 126.724 189.583 128.335 189.583H141.46C143.07 189.583 144.376 188.277 144.376 186.667V173.542C144.376 171.931 143.07 170.625 141.46 170.625ZM128.335 161.875C121.891 161.875 116.668 167.098 116.668 173.542V186.667C116.668 193.11 121.891 198.333 128.335 198.333H141.46C147.903 198.333 153.126 193.11 153.126 186.667V173.542C153.126 167.098 147.903 161.875 141.46 161.875H128.335Z" fill="#606D7C"/>
<path d="M103.541 49.583H109.374V55.4163H103.541V49.583Z" fill="#606D7C"/>
<path d="M113.75 49.583H119.583V55.4163H113.75V49.583Z" fill="#606D7C"/>
<path d="M123.957 49.583H129.79V55.4163H123.957V49.583Z" fill="#606D7C"/>
<path d="M134.166 49.583H139.999V55.4163H134.166V49.583Z" fill="#606D7C"/>
</svg>
