<svg width="293" height="206" viewBox="0 0 293 206" fill="none" xmlns="http://www.w3.org/2000/svg">
<path fill-rule="evenodd" clip-rule="evenodd" d="M80.2083 166.664L86.5011 176.053H200.568C199.763 173.019 199.212 169.881 198.938 166.664H80.2083ZM39.1217 10.1754V105.36L29.7324 91.3508V7.04567C29.7324 3.58862 32.5349 0.786133 35.992 0.786133H261.335C264.793 0.786133 267.595 3.58863 267.595 7.04567V109.026C264.561 108.221 261.423 107.67 258.206 107.397V10.1754H39.1217Z" fill="#606D7C"/>
<path fill-rule="evenodd" clip-rule="evenodd" d="M140.839 104.069V53.9922H150.229V104.069H140.839Z" fill="#606D7C"/>
<path fill-rule="evenodd" clip-rule="evenodd" d="M223.778 91.5495L186.221 91.5495L186.221 82.1602L223.778 82.1602L223.778 91.5495Z" fill="#606D7C"/>
<path fill-rule="evenodd" clip-rule="evenodd" d="M167.443 91.5495L148.664 91.5495L148.664 82.1602L167.443 82.1602L167.443 91.5495Z" fill="#606D7C"/>
<path fill-rule="evenodd" clip-rule="evenodd" d="M142.403 79.0309L76.6777 79.0309L76.6777 69.6416L142.403 69.6416L142.403 79.0309Z" fill="#606D7C"/>
<path fill-rule="evenodd" clip-rule="evenodd" d="M76.681 27.3896H71.9863V32.0843V129.107V133.802H76.681H151.795V124.413H81.3756V36.779H219.086V119.369C221.986 117.023 225.13 114.966 228.475 113.244V32.0843V27.3896H223.78H76.681ZM199.838 151.016C200.496 147.773 201.441 144.634 202.645 141.626H178.399V124.413H169.009V146.321V151.016H173.704H199.838Z" fill="#606D7C"/>
<path fill-rule="evenodd" clip-rule="evenodd" d="M107.424 203.302C108.24 201.772 108.147 199.918 107.182 198.478L8.59391 51.3786C7.44332 49.6618 5.30541 48.8994 3.32816 49.5007C1.35092 50.102 -0.000549316 51.9256 -0.000549316 53.9922L-0.000549316 201.091C-0.000549316 203.684 2.10133 205.786 4.69411 205.786H103.282C105.015 205.786 106.608 204.831 107.424 203.302ZM94.484 196.397H9.38877L9.38877 69.4294L94.484 196.397Z" fill="#606D7C"/>
<path fill-rule="evenodd" clip-rule="evenodd" d="M69.8757 182.938C70.6882 181.398 70.5812 179.534 69.5978 178.097L28.9108 118.631C27.7485 116.932 25.6152 116.189 23.6488 116.797C21.6824 117.405 20.3416 119.224 20.3416 121.282L20.3416 180.748C20.3416 183.341 22.4435 185.442 25.0363 185.442H65.7233C67.4648 185.442 69.0632 184.478 69.8757 182.938ZM56.8228 176.053H29.7309V136.457L56.8228 176.053Z" fill="#606D7C"/>
<path fill-rule="evenodd" clip-rule="evenodd" d="M260.986 133.2V129.107C260.986 125.65 258.184 122.848 254.727 122.848H249.163C245.706 122.848 242.903 125.65 242.903 129.107V133.2C240.799 133.826 238.786 134.666 236.89 135.693L233.994 132.797C231.549 130.353 227.586 130.353 225.142 132.797L221.207 136.731C218.763 139.176 218.763 143.139 221.207 145.584L224.103 148.48C223.075 150.376 222.236 152.389 221.61 154.493H217.517C214.06 154.493 211.258 157.296 211.258 160.753V166.317C211.258 169.774 214.06 172.576 217.517 172.576H221.61C222.236 174.681 223.075 176.694 224.103 178.59L221.208 181.485C218.763 183.93 218.763 187.893 221.208 190.337L225.142 194.272C227.586 196.716 231.55 196.716 233.994 194.272L236.889 191.377C238.786 192.404 240.798 193.243 242.903 193.87V197.962C242.903 201.419 245.706 204.222 249.163 204.222H254.727C258.184 204.222 260.986 201.419 260.986 197.962V193.87C263.091 193.243 265.104 192.404 267 191.376L269.895 194.272C272.34 196.716 276.303 196.716 278.748 194.272L282.682 190.337C285.127 187.893 285.127 183.93 282.682 181.485L279.787 178.59C280.814 176.694 281.653 174.681 282.28 172.576H286.372C289.829 172.576 292.632 169.774 292.632 166.317V160.753C292.632 157.296 289.829 154.493 286.372 154.493H282.28C281.642 152.352 280.785 150.306 279.733 148.381L282.606 145.508C285.05 143.064 285.05 139.1 282.606 136.656L278.671 132.722C276.227 130.277 272.263 130.277 269.819 132.722L266.901 135.64C265.034 134.636 263.054 133.815 260.986 133.2ZM268.521 163.535C268.521 172.689 261.1 180.111 251.945 180.111C242.79 180.111 235.369 172.689 235.369 163.535C235.369 154.38 242.79 146.958 251.945 146.958C261.1 146.958 268.521 154.38 268.521 163.535Z" fill="#606D7C"/>
</svg>
