<svg width="269" height="224" viewBox="0 0 269 224" fill="none" xmlns="http://www.w3.org/2000/svg">
<path fill-rule="evenodd" clip-rule="evenodd" d="M84.1758 8.85876C84.1758 3.9662 88.142 0 93.0345 0H234.775C239.667 0 243.633 3.9662 243.633 8.85876V110.102C243.633 114.994 239.667 118.96 234.775 118.96H93.0345C88.142 118.96 84.1758 114.994 84.1758 110.102V87.322H91.769V110.102C91.769 110.801 92.3356 111.367 93.0345 111.367H234.775C235.474 111.367 236.04 110.801 236.04 110.102V8.85876C236.04 8.15982 235.474 7.59322 234.775 7.59322H93.0345C92.3356 7.59322 91.769 8.15982 91.769 8.85876V69.6045H84.1758V8.85876Z" fill="#606D7C"/>
<path fill-rule="evenodd" clip-rule="evenodd" d="M108.221 188.565C115.211 188.565 120.877 182.899 120.877 175.91C120.877 168.92 115.211 163.254 108.221 163.254C101.232 163.254 95.5659 168.92 95.5659 175.91C95.5659 182.899 101.232 188.565 108.221 188.565ZM108.221 196.158C119.404 196.158 128.47 187.093 128.47 175.91C128.47 164.727 119.404 155.661 108.221 155.661C97.0383 155.661 87.9727 164.727 87.9727 175.91C87.9727 187.093 97.0383 196.158 108.221 196.158Z" fill="#606D7C"/>
<path fill-rule="evenodd" clip-rule="evenodd" d="M108.222 197.424C96.3397 197.424 86.7075 207.056 86.7075 218.938V224.001H79.1143V218.938C79.1143 202.863 92.1461 189.831 108.222 189.831C124.297 189.831 137.329 202.863 137.329 218.938V224.001H129.736V218.938C129.736 207.056 120.104 197.424 108.222 197.424Z" fill="#606D7C"/>
<path fill-rule="evenodd" clip-rule="evenodd" d="M174.029 188.565C181.018 188.565 186.684 182.899 186.684 175.91C186.684 168.92 181.018 163.254 174.029 163.254C167.039 163.254 161.373 168.92 161.373 175.91C161.373 182.899 167.039 188.565 174.029 188.565ZM174.029 196.158C185.212 196.158 194.277 187.093 194.277 175.91C194.277 164.727 185.212 155.661 174.029 155.661C162.846 155.661 153.78 164.727 153.78 175.91C153.78 187.093 162.846 196.158 174.029 196.158Z" fill="#606D7C"/>
<path fill-rule="evenodd" clip-rule="evenodd" d="M174.029 197.423C162.147 197.423 152.515 207.056 152.515 218.937V224H144.922V218.937C144.922 202.862 157.954 189.83 174.029 189.83C190.105 189.83 203.137 202.862 203.137 218.937V224H195.543V218.937C195.543 207.056 185.911 197.423 174.029 197.423Z" fill="#606D7C"/>
<path fill-rule="evenodd" clip-rule="evenodd" d="M239.837 188.565C246.827 188.565 252.493 182.899 252.493 175.91C252.493 168.92 246.827 163.254 239.837 163.254C232.848 163.254 227.182 168.92 227.182 175.91C227.182 182.899 232.848 188.565 239.837 188.565ZM239.837 196.158C251.02 196.158 260.086 187.093 260.086 175.91C260.086 164.727 251.02 155.661 239.837 155.661C228.654 155.661 219.589 164.727 219.589 175.91C219.589 187.093 228.654 196.158 239.837 196.158Z" fill="#606D7C"/>
<path fill-rule="evenodd" clip-rule="evenodd" d="M239.838 197.424C227.956 197.424 218.324 207.056 218.324 218.938V224.001H210.73V218.938C210.73 202.863 223.762 189.831 239.838 189.831C255.913 189.831 268.945 202.863 268.945 218.938V224.001H261.352V218.938C261.352 207.056 251.72 197.424 239.838 197.424Z" fill="#606D7C"/>
<path fill-rule="evenodd" clip-rule="evenodd" d="M37.3511 56.9489C44.3405 56.9489 50.0065 51.2829 50.0065 44.2935C50.0065 37.3041 44.3405 31.6381 37.3511 31.6381C30.3618 31.6381 24.6958 37.3041 24.6958 44.2935C24.6958 51.2829 30.3618 56.9489 37.3511 56.9489ZM37.3511 64.5421C48.5341 64.5421 57.5997 55.4765 57.5997 44.2935C57.5997 33.1105 48.5341 24.0449 37.3511 24.0449C26.1681 24.0449 17.1025 33.1105 17.1025 44.2935C17.1025 55.4765 26.1681 64.5421 37.3511 64.5421Z" fill="#606D7C"/>
<path fill-rule="evenodd" clip-rule="evenodd" d="M119.611 75.9321H15.8369V68.3389H119.611C125.202 68.3389 129.735 72.8717 129.735 78.4632C129.735 84.0547 125.202 88.5875 119.611 88.5875H65.1928C63.096 88.5875 61.3962 90.2873 61.3962 92.3841V194.26C61.3962 200.201 56.5801 205.017 50.6392 205.017C44.6982 205.017 39.8821 200.201 39.8821 194.26V141.74H47.4753V194.26C47.4753 196.007 48.8918 197.424 50.6392 197.424C52.3865 197.424 53.803 196.007 53.803 194.26V92.3841C53.803 86.0936 58.9024 80.9942 65.1928 80.9942H119.611C121.009 80.9942 122.142 79.861 122.142 78.4632C122.142 77.0653 121.009 75.9321 119.611 75.9321Z" fill="#606D7C"/>
<path fill-rule="evenodd" clip-rule="evenodd" d="M20.9004 194.259V132.881H13.3072V194.259C13.3072 200.2 18.1233 205.016 24.0642 205.016C30.0052 205.016 34.8213 200.2 34.8213 194.259V143.005H27.2281V194.259C27.2281 196.007 25.8116 197.423 24.0642 197.423C22.3169 197.423 20.9004 196.007 20.9004 194.259Z" fill="#606D7C"/>
<path fill-rule="evenodd" clip-rule="evenodd" d="M0.650391 84.7908C0.650391 75.7047 8.01619 68.3389 17.1024 68.3389H19.6334V75.9321H17.1024C12.2098 75.9321 8.24361 79.8983 8.24361 84.7908V131.616C8.24361 133.014 9.37681 134.147 10.7747 134.147C12.1726 134.147 13.3058 133.014 13.3058 131.616V109.526C13.3058 107.43 15.0056 105.73 17.1024 105.73C19.1992 105.73 20.899 107.43 20.899 109.526V131.616C20.899 137.207 16.3662 141.74 10.7747 141.74C5.18319 141.74 0.650391 137.207 0.650391 131.616V84.7908Z" fill="#606D7C"/>
<path fill-rule="evenodd" clip-rule="evenodd" d="M47.4761 144.271H27.2275V136.678H47.4761V144.271Z" fill="#606D7C"/>
<path fill-rule="evenodd" clip-rule="evenodd" d="M166.437 54.4186H156.313V64.5429H166.437V54.4186ZM156.313 49.3564C153.517 49.3564 151.251 51.6228 151.251 54.4186V64.5429C151.251 67.3386 153.517 69.605 156.313 69.605H166.437C169.233 69.605 171.5 67.3386 171.5 64.5429V54.4186C171.5 51.6228 169.233 49.3564 166.437 49.3564H156.313Z" fill="#606D7C"/>
<path fill-rule="evenodd" clip-rule="evenodd" d="M113.284 39.2323C116.08 39.2323 118.347 36.9659 118.347 34.1702C118.347 31.3744 116.08 29.108 113.284 29.108C110.489 29.108 108.222 31.3744 108.222 34.1702C108.222 36.9659 110.489 39.2323 113.284 39.2323ZM113.284 44.2945C118.876 44.2945 123.409 39.7617 123.409 34.1702C123.409 28.5787 118.876 24.0459 113.284 24.0459C107.693 24.0459 103.16 28.5787 103.16 34.1702C103.16 39.7617 107.693 44.2945 113.284 44.2945Z" fill="#606D7C"/>
<path fill-rule="evenodd" clip-rule="evenodd" d="M209.465 94.9159C212.261 94.9159 214.527 92.6495 214.527 89.8538C214.527 87.058 212.261 84.7916 209.465 84.7916C206.669 84.7916 204.403 87.058 204.403 89.8538C204.403 92.6495 206.669 94.9159 209.465 94.9159ZM209.465 99.9781C215.057 99.9781 219.589 95.4453 219.589 89.8538C219.589 84.2623 215.057 79.7295 209.465 79.7295C203.874 79.7295 199.341 84.2623 199.341 89.8538C199.341 95.4453 203.874 99.9781 209.465 99.9781Z" fill="#606D7C"/>
<path fill-rule="evenodd" clip-rule="evenodd" d="M209.465 64.5429C212.261 64.5429 214.527 62.2765 214.527 59.4807C214.527 56.685 212.261 54.4186 209.465 54.4186C206.669 54.4186 204.403 56.685 204.403 59.4807C204.403 62.2765 206.669 64.5429 209.465 64.5429ZM209.465 69.605C215.057 69.605 219.589 65.0722 219.589 59.4807C219.589 53.8892 215.057 49.3564 209.465 49.3564C203.874 49.3564 199.341 53.8892 199.341 59.4807C199.341 65.0722 203.874 69.605 209.465 69.605Z" fill="#606D7C"/>
<path fill-rule="evenodd" clip-rule="evenodd" d="M209.465 34.1698C212.261 34.1698 214.527 31.9034 214.527 29.1077C214.527 26.3119 212.261 24.0455 209.465 24.0455C206.669 24.0455 204.403 26.3119 204.403 29.1077C204.403 31.9034 206.669 34.1698 209.465 34.1698ZM209.465 39.232C215.057 39.232 219.589 34.6992 219.589 29.1077C219.589 23.5162 215.057 18.9834 209.465 18.9834C203.874 18.9834 199.341 23.5162 199.341 29.1077C199.341 34.6992 203.874 39.232 209.465 39.232Z" fill="#606D7C"/>
<path fill-rule="evenodd" clip-rule="evenodd" d="M184.154 56.9492H201.872V62.0114H189.216V87.3221H184.154V56.9492Z" fill="#606D7C"/>
<path fill-rule="evenodd" clip-rule="evenodd" d="M184.154 26.5762H201.872V31.6383H189.216V62.0112H184.154V26.5762Z" fill="#606D7C"/>
<path fill-rule="evenodd" clip-rule="evenodd" d="M158.843 36.7008H120.877V31.6387H163.905V51.8873H158.843V36.7008Z" fill="#606D7C"/>
<path fill-rule="evenodd" clip-rule="evenodd" d="M163.907 87.3226H201.873V92.3848H158.845V69.6051H163.907V87.3226Z" fill="#606D7C"/>
</svg>
