<svg width="158" height="55" viewBox="0 0 158 55" fill="none" xmlns="http://www.w3.org/2000/svg">
<g clip-path="url(#clip0)">
<path fill-rule="evenodd" clip-rule="evenodd" d="M43.0646 42.6748L37.2487 34.4632L-0.0078125 34.4946L12.8279 0.015625L17.784 7.00249L10.217 27.3508H32.1675L25.8044 18.3228H40.7195L41.4387 16.423C41.4387 16.423 27.3209 16.423 23.9595 16.423C23.2091 18.4641 22.2867 20.9134 20.5825 25.4667C18.6908 25.4667 15.4858 25.4667 12.9843 25.4667L19.066 9.26341H51.7104L45.6287 25.4667H39.5313L51.7573 42.6748H43.049H43.0646Z" fill="#34353E"/>
<path fill-rule="evenodd" clip-rule="evenodd" d="M63.7485 12.8749L62.4664 16.3291H64.0611C64.8585 16.3291 65.5308 16.2192 66.0311 16.0151C66.5626 15.7796 66.9691 15.2929 67.2349 14.5706C67.4694 13.8955 67.4538 13.4402 67.0786 13.2361C66.7346 13.0005 66.203 12.8906 65.4526 12.8906H63.7485V12.8749ZM53.1953 25.4356L59.1676 9.26375H69.1579C70.4712 9.26375 71.5343 9.42076 72.3629 9.68767C73.1603 9.98599 73.6919 10.457 73.9576 11.085C74.1922 11.7288 74.1453 12.5609 73.77 13.5815C72.9414 15.8267 71.1278 17.2555 68.3293 17.8992V17.9306C69.4237 18.1504 70.1116 18.6999 70.4087 19.6734C70.4556 20.0502 70.4868 20.5055 70.4399 20.9923C70.393 21.479 70.2992 22.0599 70.1429 22.8136C70.0022 23.5358 69.9084 24.101 69.8458 24.4464C69.7989 24.7605 69.7677 25.1216 69.7677 25.467H63.342C63.3732 25.2315 63.4983 24.6977 63.6859 23.8655C63.9048 23.0334 64.0299 22.3896 64.1393 21.9343C64.2175 21.479 64.2488 21.1022 64.2175 20.8353C64.1706 20.4898 64.0299 20.2386 63.7954 20.1444C63.5608 20.0345 63.2169 19.9874 62.7635 19.9874H61.4033L59.3552 25.4827H53.1953V25.4356ZM76.381 9.26375L72.7382 19.0925C72.1753 20.6154 72.0503 21.8715 72.3629 22.8607C72.7069 23.8498 73.3792 24.5721 74.411 25.0274C75.4429 25.4827 76.7249 25.7182 78.304 25.7182C80.0081 25.7182 81.5246 25.4984 82.8848 25.0431C84.245 24.5878 85.4176 23.8655 86.4494 22.8136C87.4813 21.793 88.3099 20.427 88.9509 18.747L92.4374 9.24805H86.4182L82.8535 18.8884C82.5409 19.7676 82.1344 20.4113 81.7122 20.8667C81.2589 21.322 80.6804 21.5418 79.8987 21.5418C78.6167 21.5418 78.3196 20.6625 78.9919 18.857L82.5409 9.24805H76.381V9.26375ZM95.7518 18.7941L94.5324 22.107H96.1271C96.7681 22.107 97.3778 21.9657 97.9406 21.6831C98.5035 21.4476 98.8943 21.008 99.1132 20.427C99.5197 19.328 98.9569 18.7941 97.4091 18.7941H95.7518ZM87.4969 25.4356L93.4692 9.26375H103.6C104.585 9.26375 105.461 9.40506 106.211 9.64057C106.962 9.87608 107.462 10.3157 107.759 10.928C108.056 11.5247 107.993 12.294 107.65 13.2518C107.243 14.3508 106.633 15.1987 105.867 15.8424C105.07 16.4547 104.085 16.9101 102.85 17.2084V17.2555C103.522 17.334 104.069 17.5695 104.476 17.9463C104.898 18.3231 105.148 18.7784 105.242 19.3123C105.351 19.8461 105.289 20.3799 105.085 20.9138C104.632 22.2012 103.96 23.159 103.116 23.8027C102.287 24.4778 101.365 24.9018 100.348 25.1216C99.3321 25.31 98.1595 25.4199 96.8306 25.4199H87.5126L87.4969 25.4356ZM98.1595 12.3411L96.9869 15.4499H98.5347C99.1757 15.4499 99.7386 15.34 100.27 15.1045C100.802 14.8689 101.177 14.4607 101.365 13.8955C101.583 13.3303 101.521 12.9377 101.224 12.6865C100.927 12.451 100.458 12.3411 99.8324 12.3411H98.1595ZM118.359 25.4356L119.766 21.5575H111.714L112.512 19.3594H120.079L121.517 15.4813H113.95L114.81 13.1576H122.721L124.159 9.27945H110.229L104.241 25.4513H118.359V25.4356ZM124.081 13.4088H131.695L121.173 20.5369L119.36 25.4356H134.228L135.823 21.1179H127.943L138.152 14.1624L139.966 9.26375H125.629L124.081 13.4088ZM145.641 14.8532L147.689 9.26375H141.513L135.541 25.4356H141.717L143.874 19.6263H147.97L145.844 25.4356H152.02L157.992 9.26375H151.816L149.737 14.8532H145.641Z" fill="#34353E"/>
<path d="M96.4394 52.3625L94.1412 49.7248C94.4851 49.5364 95.0323 49.2066 95.7046 48.6257C96.4081 48.0762 97.0179 47.4325 97.5963 46.7259C100.348 43.4444 100.833 39.849 100.833 38.2789C100.833 37.3211 100.739 35.0916 99.0347 33.0348C96.0016 29.4393 90.4671 29.4707 89.4665 29.4707C87.6686 29.4707 83.1346 29.5963 79.0072 32.7836C75.896 35.2015 73.5039 39.2052 73.5039 43.256C73.5039 45.7054 74.3325 47.244 74.8797 48.0448C77.7252 52.3154 83.3848 52.2526 84.573 52.2526C86.7774 52.2526 88.4503 51.9386 89.2789 51.7659C89.6228 51.6717 89.9512 51.5775 90.2639 51.4833L93.3751 55.0159L96.4394 52.3782V52.3625ZM87.9656 42.7536L84.9951 45.4227L86.4647 47.1498C86.0739 47.2126 85.8237 47.244 85.3703 47.244C83.0408 47.244 82.009 46.145 81.5868 45.1872C81.2741 44.5749 81.2741 44.0254 81.2741 43.7428C81.2741 41.9686 82.306 39.4093 83.2597 37.9335C85.1202 34.9503 87.481 34.338 88.9818 34.338C90.5765 34.338 92.2494 35.0131 92.7966 36.6774C93.0155 37.2269 93.0155 37.8393 93.0155 38.0277C93.0155 39.8647 92.1243 42.2669 91.155 43.8056C90.7016 44.5121 90.3577 44.8732 90.1231 45.1558L87.9812 42.7536H87.9656ZM102.631 36.0651L100.426 42.628C99.9727 44.0725 99.2067 46.2549 99.2067 47.7936C99.2067 50.6197 101.411 52.1584 104.006 52.1898C104.929 52.1898 106.539 52.0014 108.353 50.5883C108.869 50.1644 109.15 49.8818 109.369 49.6306C109.525 49.4736 109.682 49.2851 109.822 49.1124L108.9 51.6874H116.545L121.861 36.0651H113.997L111.214 44.1667C111.12 44.4493 110.792 45.5798 110.057 46.3805C109.385 47.087 108.712 47.244 108.29 47.244C107.649 47.244 107.165 46.8829 107.165 46.1764C107.165 45.6583 107.29 45.25 107.618 44.3708L110.432 36.0808H102.631V36.0651ZM123.158 36.0651L117.718 51.6874H125.55L131.022 36.0651H123.158ZM125.3 30.0516L123.643 34.7776H131.445L133.102 30.0516H125.3ZM132.383 36.0651L130.913 40.2101H138.558L128.099 47.7308L126.754 51.6874H143.999L145.562 47.2126H137.698L147.579 40.1159L149.017 36.0651H132.383Z" fill="#34353E" fill-opacity="0.5"/>
</g>
<defs>
<clipPath id="clip0">
<rect width="158" height="55" fill="white"/>
</clipPath>
</defs>
</svg>
