<svg width="170" height="58" viewBox="0 0 170 58" fill="none" xmlns="http://www.w3.org/2000/svg">
<path d="M87.0746 41.209C87.0746 41.3144 87.0549 41.408 87.014 41.4858C86.9745 41.5662 86.8888 41.6321 86.7557 41.6848C86.624 41.7376 86.4381 41.7771 86.1996 41.8035C85.9611 41.8325 85.6422 41.843 85.2455 41.843C84.9634 41.8465 84.6813 41.8333 84.4008 41.8035C84.2198 41.7868 84.0422 41.7437 83.8736 41.6756C83.7498 41.6227 83.643 41.5365 83.5653 41.4265C83.4843 41.3032 83.4209 41.1692 83.3768 41.0284L81.0126 34.9674C80.7546 34.3224 80.4666 33.6899 80.1495 33.0718C79.8727 32.5238 79.5141 32.021 79.086 31.581C78.6725 31.1619 78.1791 30.8302 77.635 30.6055C77.0789 30.3735 76.4095 30.2602 75.6293 30.2602H73.3468V41.209C73.3468 41.3144 73.3165 41.408 73.2559 41.4858C73.184 41.5746 73.0878 41.6405 72.9791 41.6756C72.8109 41.7324 72.6374 41.7721 72.4612 41.7943C72.1878 41.8301 71.9121 41.8468 71.6363 41.8443C71.3042 41.8443 71.0301 41.8272 70.8113 41.7956C70.6323 41.772 70.4558 41.7318 70.2842 41.6756C70.1732 41.6446 70.0754 41.5779 70.0061 41.4858C69.952 41.4038 69.924 41.3073 69.9257 41.209V17.4026C69.9257 16.8846 70.0615 16.5247 70.3329 16.3191C70.6044 16.1134 70.8917 16.0106 71.1961 16.0106H76.6598C77.5892 16.0047 78.5179 16.058 79.4405 16.1701C80.4328 16.3441 81.3118 16.6143 82.0735 16.9861C82.797 17.3292 83.4479 17.808 83.9909 18.3965C84.5075 18.9673 84.895 19.6198 85.1533 20.3553C85.4115 21.0896 85.5394 21.9016 85.5394 22.79C85.5394 23.6508 85.4234 24.4219 85.1915 25.1061C84.9728 25.7658 84.6326 26.3787 84.1886 26.9133C83.7511 27.4379 83.2266 27.8914 82.6191 28.275C82.0089 28.6599 81.3276 28.9828 80.5712 29.2491C80.9955 29.4363 81.3803 29.6709 81.7243 29.9543C82.0669 30.2391 82.3898 30.5805 82.6863 30.9773C82.9854 31.3767 83.2661 31.8341 83.531 32.3508C83.7972 32.8649 84.0608 33.4502 84.327 34.1L86.6305 39.7616C86.815 40.2388 86.9336 40.5736 86.989 40.7661C87.047 40.9533 87.0746 41.1022 87.0746 41.209ZM81.9285 23.1433C81.9285 22.1375 81.7019 21.2847 81.2525 20.59C80.8031 19.8953 80.048 19.3957 78.9884 19.0899C78.6206 18.9917 78.2449 18.9256 77.8657 18.8922C77.3208 18.847 76.7743 18.8267 76.2276 18.8315H73.3468V27.4946H76.6849C77.585 27.4946 78.3638 27.3865 79.0174 27.1677C79.6737 26.9476 80.2206 26.6444 80.6568 26.2529C81.0943 25.8614 81.4159 25.4013 81.6215 24.8714C81.8271 24.3442 81.9285 23.7681 81.9285 23.1446V23.1433ZM106.187 31.5111C106.187 32.0278 106.057 32.3943 105.798 32.6131C105.552 32.826 105.236 32.9421 104.91 32.94H93.134C93.134 33.9339 93.2316 34.8263 93.4332 35.6212C93.6335 36.4174 93.9656 37.1002 94.4308 37.6697C94.8973 38.2391 95.5022 38.6768 96.2454 38.9826C96.9926 39.2871 97.9033 39.4373 98.9812 39.4373C99.8352 39.4373 100.593 39.3688 101.258 39.2291C101.924 39.0907 102.499 38.9351 102.985 38.7624C103.472 38.5911 103.869 38.4355 104.183 38.2971C104.496 38.1561 104.732 38.0875 104.892 38.0875C104.982 38.086 105.07 38.1118 105.145 38.1614C105.22 38.211 105.278 38.2823 105.312 38.3657C105.35 38.4579 105.382 38.5871 105.402 38.7532C105.421 38.9206 105.432 39.121 105.432 39.3596C105.436 39.6227 105.412 39.8855 105.362 40.1439C105.345 40.2386 105.311 40.3296 105.262 40.4128C105.213 40.4965 105.152 40.5731 105.083 40.6408C105.01 40.7147 104.796 40.8333 104.437 40.9994C104.081 41.1642 103.617 41.3263 103.047 41.4858C102.477 41.644 101.819 41.7864 101.07 41.9142C100.321 42.0394 99.5229 42.1027 98.6755 42.1027C97.2048 42.1027 95.916 41.8971 94.8116 41.4858C93.7505 41.1048 92.7943 40.4789 92.0205 39.6588C91.2667 38.8508 90.6947 37.8384 90.3126 36.6191C89.9264 35.3998 89.7354 33.9814 89.7354 32.364C89.7354 30.8283 89.9357 29.4468 90.3323 28.2209C90.729 26.9963 91.3036 25.955 92.0495 25.1021C92.794 24.2499 93.7216 23.5771 94.7629 23.1341C95.8224 22.6767 97.0071 22.4486 98.3171 22.4486C99.7206 22.4486 100.916 22.6727 101.904 23.1235C102.893 23.573 103.703 24.1807 104.338 24.9426C104.987 25.7291 105.463 26.643 105.736 27.6251C106.036 28.6533 106.184 29.7474 106.184 30.9153V31.5111H106.187ZM102.889 30.5357C102.928 28.8141 102.546 27.4643 101.739 26.4823C100.933 25.5015 99.7364 25.0125 98.1497 25.0125C97.3366 25.0125 96.6236 25.1628 96.0122 25.4686C95.4185 25.7584 94.8937 26.1719 94.473 26.6813C94.049 27.2043 93.7239 27.8002 93.5136 28.4398C93.2847 29.116 93.156 29.8221 93.1314 30.5357H102.889ZM126.57 41.2301C126.57 41.3355 126.544 41.4252 126.491 41.4977C126.423 41.5818 126.334 41.6468 126.233 41.6862C126.113 41.7389 125.948 41.7784 125.736 41.8048C125.472 41.8351 125.206 41.8483 124.94 41.8443C124.609 41.8443 124.336 41.8312 124.125 41.8048C123.915 41.7784 123.747 41.7389 123.629 41.6862C123.528 41.6468 123.439 41.5818 123.37 41.4977C123.315 41.4195 123.287 41.3256 123.29 41.2301V30.7571C123.29 29.7355 123.211 28.9143 123.051 28.2908C122.915 27.718 122.679 27.1734 122.356 26.6813C122.06 26.2386 121.652 25.8821 121.173 25.6478C120.69 25.4093 120.132 25.288 119.495 25.288C118.674 25.288 117.854 25.5819 117.03 26.1646C116.209 26.7472 115.349 27.6014 114.447 28.7271V41.2288C114.45 41.3241 114.422 41.4178 114.368 41.4963C114.3 41.581 114.21 41.646 114.109 41.6848C113.99 41.7376 113.824 41.7771 113.612 41.8035C113.401 41.8325 113.128 41.843 112.799 41.843C112.48 41.843 112.214 41.8298 112.003 41.8035C111.83 41.7871 111.66 41.7471 111.498 41.6848C111.394 41.6492 111.303 41.5836 111.237 41.4963C111.188 41.4162 111.163 41.3229 111.167 41.2288V23.3437C111.164 23.2503 111.185 23.1578 111.228 23.0748C111.285 22.9864 111.368 22.9174 111.465 22.877C111.609 22.81 111.764 22.7698 111.922 22.7584C112.107 22.7386 112.352 22.7281 112.658 22.7281C112.949 22.7281 113.193 22.7386 113.382 22.7584C113.538 22.7684 113.69 22.8087 113.831 22.877C113.936 22.9363 114.011 23.0023 114.059 23.0748C114.107 23.1559 114.131 23.2492 114.128 23.3437V25.7085C115.135 24.5814 116.137 23.7576 117.137 23.2356C118.139 22.7109 119.147 22.4499 120.168 22.4499C121.358 22.4499 122.362 22.6529 123.175 23.0563C123.953 23.4311 124.631 23.986 125.152 24.675C125.657 25.3513 126.017 26.1422 126.237 27.0491C126.457 27.956 126.563 29.0461 126.563 30.3182V41.2301H126.57ZM147.489 24.1583C147.489 24.6223 147.427 24.9558 147.301 25.1614C147.176 25.3684 147.013 25.4699 146.814 25.4699H144.25C144.715 25.9471 145.041 26.4717 145.225 27.0491C145.411 27.6251 145.502 28.2249 145.502 28.8484C145.502 29.8818 145.339 30.7953 145.006 31.5902C144.692 32.3615 144.206 33.0511 143.586 33.607C142.946 34.1712 142.198 34.6011 141.389 34.8712C140.542 35.1612 139.602 35.3062 138.569 35.3062C137.867 35.3105 137.168 35.2137 136.493 35.0188C135.837 34.8263 135.331 34.5851 134.974 34.2938C134.735 34.5311 134.539 34.8039 134.389 35.1084C134.231 35.4367 134.152 35.7975 134.159 36.1617C134.159 36.6243 134.374 37.0093 134.804 37.3138C135.235 37.6183 135.808 37.7857 136.522 37.8107L141.193 38.0084C142.08 38.0388 142.893 38.16 143.637 38.3775C144.378 38.5963 145.021 38.9074 145.564 39.3121C146.107 39.7155 146.531 40.2124 146.836 40.8017C147.141 41.3922 147.293 42.0777 147.293 42.858C147.293 43.6793 147.12 44.4609 146.776 45.2044C146.412 45.972 145.871 46.6428 145.199 47.1619C144.489 47.7248 143.583 48.1677 142.485 48.4933C141.386 48.8188 140.087 48.9797 138.591 48.9797C137.148 48.9797 135.919 48.8584 134.907 48.6132C133.892 48.3667 133.062 48.0332 132.413 47.6114C131.765 47.1856 131.293 46.6794 131.003 46.0902C130.71 45.4934 130.56 44.8361 130.566 44.1709C130.566 43.7333 130.618 43.3088 130.724 42.8989C130.829 42.4903 130.993 42.0974 131.211 41.7283C131.429 41.3566 131.699 41.0033 132.026 40.6646C132.375 40.3039 132.75 39.9691 133.147 39.6628C132.498 39.3306 132.017 38.914 131.707 38.4105C131.399 37.9225 131.237 37.3568 131.24 36.7799C131.24 35.9718 131.406 35.2495 131.737 34.6128C132.062 33.986 132.477 33.41 132.968 32.9031C132.554 32.4074 132.225 31.8467 131.994 31.2435C131.757 30.6279 131.638 29.8832 131.638 29.0105C131.638 27.9889 131.81 27.0754 132.152 26.2674C132.475 25.4891 132.963 24.7906 133.583 24.2203C134.22 23.6473 134.967 23.2108 135.779 22.9377C136.678 22.633 137.621 22.482 138.57 22.4908C139.112 22.4908 139.619 22.5211 140.088 22.5818C140.559 22.6411 141 22.7241 141.411 22.8296H146.814C147.039 22.8296 147.21 22.939 147.321 23.1591C147.433 23.3727 147.489 23.7075 147.489 24.1583ZM144.015 43.036C144.015 42.2675 143.699 41.6756 143.069 41.2564C142.443 40.8412 141.591 40.6184 140.519 40.5934L135.888 40.4352C135.465 40.7648 135.117 41.0785 134.847 41.3764C134.603 41.6386 134.386 41.9258 134.202 42.2332C134.043 42.5048 133.933 42.7723 133.875 43.0373C133.815 43.3009 133.784 43.5712 133.784 43.8506C133.784 44.7127 134.221 45.3665 135.095 45.8081C135.969 46.251 137.188 46.4751 138.751 46.4751C139.744 46.4751 140.576 46.3776 141.245 46.1851C141.913 45.994 142.452 45.7369 142.864 45.4206C143.247 45.1373 143.551 44.7606 143.748 44.3265C143.924 43.9178 144.015 43.4868 144.015 43.036ZM142.364 28.8682C142.364 27.6488 142.029 26.6984 141.361 26.0169C140.693 25.3354 139.742 24.9927 138.51 24.9927C137.874 24.9927 137.322 25.0982 136.852 25.3117C136.381 25.5226 135.989 25.8153 135.68 26.1857C135.365 26.5616 135.129 26.9968 134.986 27.4656C134.832 27.958 134.755 28.471 134.756 28.9868C134.756 30.1653 135.091 31.0933 135.758 31.7682C136.429 32.4431 137.366 32.7818 138.571 32.7818C139.22 32.7818 139.784 32.6803 140.261 32.4734C140.737 32.2678 141.131 31.983 141.442 31.6192C141.754 31.2541 141.986 30.8323 142.138 30.3551C142.289 29.8779 142.364 29.3849 142.364 28.8682ZM164.418 41.2498C164.418 41.408 164.365 41.5267 164.26 41.6058C164.128 41.6969 163.979 41.7581 163.821 41.785C163.635 41.8246 163.364 41.8457 163.007 41.8457C162.664 41.8457 162.387 41.8233 162.182 41.785C162.02 41.7647 161.866 41.7034 161.735 41.6071C161.643 41.5267 161.595 41.4093 161.595 41.2498V39.4598C160.853 40.2661 159.967 40.9268 158.982 41.408C158.023 41.8707 157.005 42.1027 155.933 42.1027C154.992 42.1027 154.14 41.9788 153.38 41.7336C152.666 41.5153 152.004 41.1538 151.435 40.6712C150.894 40.2032 150.466 39.6187 150.183 38.9615C149.884 38.2866 149.735 37.5194 149.735 36.6586C149.735 35.6515 149.942 34.7776 150.353 34.0341C150.761 33.292 151.352 32.6764 152.119 32.1873C152.888 31.6957 153.827 31.3279 154.94 31.084C156.052 30.8388 157.304 30.7163 158.696 30.7163H161.16V29.3256C161.16 28.6375 161.087 28.0258 160.943 27.4959C160.819 27.0048 160.577 26.5514 160.238 26.1751C159.89 25.809 159.456 25.5358 158.975 25.3803C158.46 25.1997 157.824 25.1113 157.069 25.1113C156.262 25.1113 155.536 25.2089 154.894 25.4C154.315 25.5681 153.751 25.7805 153.205 26.0354C152.72 26.2687 152.316 26.4809 151.992 26.6708C151.667 26.8632 151.426 26.9594 151.266 26.9594C151.161 26.9594 151.068 26.9331 150.989 26.8777C150.902 26.8167 150.83 26.7352 150.781 26.6404C150.715 26.5134 150.671 26.3761 150.651 26.2344C150.624 26.0534 150.61 25.8705 150.611 25.6874C150.611 25.3552 150.635 25.0929 150.682 24.9018C150.74 24.6908 150.857 24.5009 151.02 24.3547C151.198 24.182 151.506 23.9803 151.942 23.7483C152.428 23.4958 152.933 23.2833 153.454 23.113C154.02 22.9218 154.645 22.7623 155.321 22.6371C155.996 22.5116 156.681 22.4485 157.368 22.4486C158.651 22.4486 159.745 22.5936 160.645 22.8849C161.547 23.1763 162.277 23.6033 162.831 24.1662C163.388 24.7304 163.791 25.4264 164.044 26.2621C164.296 27.0978 164.422 28.072 164.422 29.1845V41.2498H164.418ZM161.159 33.0811H158.359C157.457 33.0811 156.676 33.1602 156.013 33.3104C155.35 33.462 154.801 33.6901 154.364 33.9867C153.955 34.2547 153.623 34.6245 153.4 35.0597C153.186 35.5099 153.081 36.0036 153.091 36.5018C153.091 37.4284 153.387 38.1666 153.977 38.7163C154.566 39.2673 155.391 39.5415 156.45 39.5415C157.311 39.5415 158.108 39.324 158.842 38.8863C159.58 38.4474 160.35 37.7791 161.158 36.8788V33.0824H161.159V33.0811ZM169.037 18.1883C169.039 18.5116 168.977 18.8321 168.854 19.1313C168.731 19.4304 168.55 19.7022 168.321 19.9309C167.855 20.3901 167.226 20.646 166.571 20.6427C166.216 20.6427 165.887 20.5808 165.59 20.4582C165.301 20.3442 165.038 20.1721 164.819 19.9526C164.599 19.7331 164.427 19.4709 164.313 19.1822C164.188 18.8705 164.126 18.5372 164.131 18.2014C164.13 17.8784 164.193 17.5583 164.317 17.26C164.441 16.9617 164.623 16.691 164.853 16.4639C165.082 16.2367 165.355 16.0576 165.655 15.937C165.954 15.8164 166.275 15.7568 166.598 15.7615C166.951 15.7615 167.28 15.8208 167.58 15.9421C167.879 16.0633 168.136 16.2321 168.35 16.4469C168.567 16.6631 168.735 16.9215 168.857 17.2168C168.975 17.5133 169.037 17.8363 169.037 18.1883ZM168.473 18.2278C168.473 17.9299 168.427 17.661 168.332 17.4171C168.244 17.1852 168.11 16.9732 167.939 16.7936C167.772 16.6189 167.569 16.4826 167.344 16.3942C167.107 16.301 166.854 16.2541 166.599 16.2558C166.309 16.2558 166.05 16.3059 165.816 16.4061C165.591 16.5016 165.388 16.6419 165.219 16.8185C165.049 16.995 164.918 17.204 164.832 17.4329C164.741 17.6701 164.695 17.9223 164.696 18.1764C164.696 18.4703 164.744 18.7379 164.837 18.9805C164.932 19.223 165.061 19.4326 165.229 19.6066C165.396 19.7806 165.595 19.9138 165.826 20.0073C166.055 20.0996 166.305 20.1484 166.571 20.1484C166.859 20.1484 167.121 20.097 167.355 19.9968C167.58 19.9011 167.782 19.761 167.951 19.585C168.12 19.409 168.251 19.2007 168.337 18.9726C168.427 18.7379 168.473 18.4901 168.473 18.2265V18.2278ZM167.732 19.3746C167.733 19.3909 167.73 19.4072 167.723 19.4221C167.717 19.4379 167.701 19.4484 167.677 19.4537C167.642 19.4611 167.606 19.4664 167.57 19.4695C167.508 19.474 167.445 19.4758 167.382 19.4748C167.324 19.4757 167.266 19.4739 167.208 19.4695C167.172 19.4669 167.136 19.4589 167.102 19.4458C167.078 19.4376 167.057 19.4231 167.041 19.4036C167.023 19.3802 167.011 19.3532 167.006 19.3245L166.874 18.8922C166.844 18.7705 166.782 18.6588 166.695 18.5679C166.625 18.5086 166.524 18.4783 166.383 18.4783H166.216V19.3562C166.216 19.4023 166.196 19.4339 166.163 19.4511C166.082 19.4744 165.997 19.4833 165.912 19.4774C165.826 19.4821 165.739 19.4732 165.656 19.4511C165.612 19.4339 165.594 19.4023 165.594 19.3562V17.1021C165.594 17.0111 165.617 16.9386 165.662 16.8859C165.708 16.8345 165.778 16.8068 165.87 16.8068H166.591C166.759 16.8068 166.906 16.8213 167.034 16.8516C167.151 16.8765 167.262 16.9235 167.361 16.99C167.452 17.0533 167.519 17.1311 167.565 17.226C167.614 17.3311 167.638 17.4462 167.635 17.5621C167.635 17.7625 167.582 17.918 167.473 18.0288C167.351 18.1468 167.199 18.2281 167.033 18.2634C167.138 18.2993 167.234 18.3577 167.315 18.4348C167.404 18.5138 167.478 18.6325 167.539 18.7907L167.69 19.1927C167.718 19.2889 167.732 19.3496 167.732 19.3746ZM166.955 17.6373C166.956 17.5925 166.949 17.548 166.935 17.5054C166.922 17.4626 166.897 17.4246 166.863 17.396C166.821 17.3619 166.773 17.3371 166.722 17.3235C166.65 17.3046 166.576 17.2957 166.502 17.2972H166.213V17.9998H166.49C166.665 17.9998 166.786 17.9668 166.853 17.8996C166.887 17.8649 166.914 17.8236 166.931 17.7783C166.949 17.7329 166.957 17.6845 166.955 17.6359V17.6373ZM0.839844 15.1723C0.839844 13.9925 1.70302 12.5965 2.75465 12.0693L24.8494 0.983345C25.901 0.456072 27.6247 0.456072 28.6777 0.983345L50.7737 12.0693C51.8267 12.5965 52.6885 13.9938 52.6885 15.1709V42.6089C52.6885 43.7873 51.8267 45.1846 50.7737 45.7119L28.6777 56.7978C27.626 57.3264 25.9023 57.3264 24.8494 56.7978L2.75465 45.7119C1.70302 45.1846 0.839844 43.7873 0.839844 42.6089V15.1723Z" fill="#34353E"/>
<path d="M51.6428 12.7532L43.6041 16.7868C42.7554 17.2126 41.2689 17.2126 40.4189 16.7868H40.4163L28.3555 10.7337L38.2313 5.77733L36.6394 4.97852L13.0726 16.8039C12.2187 17.2126 10.7546 17.2073 9.91905 16.7868L1.88161 12.7545C1.55548 13.1099 1.29372 13.5193 1.10805 13.9646L9.27859 18.0641C10.0877 18.4714 10.7994 19.6222 10.7994 20.5291V35.8872L0.837891 30.8887V32.4877L24.5259 44.3724C25.335 44.7784 26.0466 45.9305 26.0466 46.8374V57.1232C26.5202 57.1874 27.0003 57.1874 27.4739 57.1232V46.8374C27.4739 45.9305 28.1855 44.7797 28.9946 44.3724L41.2953 38.2033V50.465L42.7225 49.7479V37.0591V37.0393V20.5278C42.7225 19.6209 43.4341 18.4701 44.2432 18.0628L52.4138 13.9619C52.2295 13.517 51.9686 13.1078 51.6428 12.7532Z" fill="white"/>
<path d="M25.167 43.0964C26.017 43.5235 27.5074 43.5235 28.3561 43.0964L39.8094 37.3505C39.9807 37.2608 40.1481 37.1369 40.3036 36.988L26.7602 30.1927L13.2182 36.988C13.3684 37.1316 13.5292 37.2516 13.6926 37.3412L25.167 43.0964ZM27.4758 28.9523L41.1074 35.7937C41.226 35.4931 41.2959 35.1873 41.2959 34.9039V20.5278C41.2959 19.6209 40.5843 18.4701 39.7751 18.0628L28.3561 12.3314C28.0769 12.2 27.7798 12.1107 27.4745 12.0664V28.9523H27.4758ZM12.2298 34.9052C12.2298 35.1873 12.297 35.4945 12.417 35.795L26.0486 28.9536V12.0664C25.7596 12.1079 25.4779 12.19 25.2118 12.3103L13.7493 18.0628C13.7374 18.0681 13.7256 18.0734 13.7163 18.08C12.9191 18.5018 12.2285 19.6341 12.2285 20.5278V34.9039L12.2298 34.9052Z" fill="#34353E" fill-opacity="0.5"/>
</svg>
