<svg width="172" height="24" viewBox="0 0 172 24" fill="none" xmlns="http://www.w3.org/2000/svg">
<path d="M25.6544 23.211H18.736L12.5127 13.874H5.82603V23.211H0V0H16.0878C17.7429 0 19.0339 0.142466 19.9608 0.427398C21.4393 0.865753 22.5869 1.67671 23.4034 2.86028C24.2199 4.02192 24.6282 5.38082 24.6282 6.93699C24.6282 8.05479 24.4186 9.07397 23.9993 9.99452C23.5138 11.0904 22.8186 11.8904 21.9138 12.3945C21.0311 12.8986 19.9056 13.2712 18.5374 13.5123L25.6544 23.211ZM5.82603 4.07671V9.76438H15.4588C17.6215 9.76438 18.7029 8.84384 18.7029 7.00274C18.7029 5.05206 17.5443 4.07671 15.2271 4.07671H5.82603Z" fill="#34353E"/>
<path d="M29.5442 0H35.3702V14.137C35.3702 15.0795 35.5468 15.9014 35.8998 16.6027C36.275 17.2822 36.7826 17.8192 37.4226 18.2137C38.0846 18.5863 38.8018 18.8603 39.5742 19.0356C40.3687 19.211 41.2404 19.2986 42.1893 19.2986C43.0058 19.2986 43.7782 19.2329 44.5065 19.1014C45.2347 18.9479 45.9409 18.7069 46.625 18.3781C47.3312 18.0493 47.8829 17.5781 48.2802 16.9644C48.6995 16.3288 48.9091 15.5836 48.9091 14.7288V0H54.7351V14.7616C54.7351 17.8082 53.5876 20.1096 51.2925 21.6658C48.9974 23.2219 45.9851 24 42.2555 24C38.4598 24 35.3923 23.211 33.053 21.6329C30.7138 20.0548 29.5442 17.7425 29.5442 14.6959V0Z" fill="#34353E"/>
<path d="M61.3551 0H76.516C77.3988 0 78.127 0.021918 78.7008 0.065753C79.2746 0.109589 80.0138 0.284932 80.9186 0.591781C81.8234 0.876713 82.5407 1.31507 83.0703 1.90685C83.953 2.89315 84.3944 4.15342 84.3944 5.68767C84.3944 8.14247 83.1034 9.7863 80.5214 10.6192C83.8758 11.3863 85.564 13.337 85.5861 16.4712C85.5861 18.0932 85.244 19.3973 84.5599 20.3836C84.1186 21.0411 83.611 21.5781 83.0372 21.9945C82.4855 22.411 81.8345 22.7069 81.0842 22.8822C80.3559 23.0356 79.7601 23.1342 79.2966 23.1781C78.8332 23.2 78.2042 23.211 77.4098 23.211H61.3551V0ZM67.148 9.10685H75.9533C77.8291 9.10685 78.767 8.25206 78.767 6.54247C78.7449 4.85479 77.8181 4.01096 75.9864 4.01096H67.148V9.10685ZM67.148 19.1342H76.2843C78.6015 19.1342 79.7601 18.0822 79.7601 15.9781C79.7601 14.0932 78.7228 13.1507 76.6484 13.1507H67.148V19.1342Z" fill="#34353E"/>
<path d="M113.442 23.211H90.9986V0H112.78V4.17534H96.8577V9.40274H112.25V13.5452H96.8577V19.0685H113.442V23.211Z" fill="#34353E"/>
<path d="M140.701 23.211H116.669V18.9699L132.79 4.10959H117.827V0H140.701V4.10959L124.547 18.9699H140.701V23.211Z" fill="#34353E"/>
<path d="M172 23.211H166.141V13.2493H152.039V23.211H146.18V0H152.039V8.94247H166.141V0H172V23.211Z" fill="#34353E"/>
</svg>
