<svg width="144" height="50" viewBox="0 0 144 50" fill="none" xmlns="http://www.w3.org/2000/svg">
<path d="M73.9832 48.9073H70.5923L67.5416 44.2402H64.2722V48.9073H61.416V37.3124H69.2918C70.1061 37.3124 70.7381 37.3853 71.1878 37.5312C71.9171 37.7499 72.4761 38.151 72.8772 38.7344C73.2783 39.3178 73.4728 39.9984 73.4728 40.7763C73.4728 41.3354 73.3755 41.8458 73.1689 42.3077C72.9258 42.8546 72.5977 43.2557 72.1601 43.5109C71.7226 43.7662 71.1635 43.9485 70.495 44.07L73.9832 48.9195V48.9073ZM64.2844 39.3421V42.1861H69.0001C70.0575 42.1861 70.5923 41.7243 70.5923 40.8006C70.5923 39.8283 70.021 39.3421 68.8907 39.3421H64.2844ZM75.1986 37.3002H78.0548V44.3617C78.0548 44.8357 78.1399 45.2368 78.3222 45.5893C78.5045 45.9296 78.7476 46.197 79.0636 46.3914C79.3796 46.5859 79.7321 46.7196 80.121 46.8047C80.5099 46.8897 80.9232 46.9384 81.3972 46.9384C81.7982 46.9384 82.175 46.9019 82.5275 46.829C82.88 46.756 83.2324 46.6345 83.5727 46.4765C83.913 46.3063 84.1804 46.0754 84.387 45.7594C84.5815 45.4434 84.6909 45.0788 84.6909 44.6534V37.2881H87.5471V44.6656C87.5471 46.1848 86.988 47.3394 85.8577 48.1173C84.7395 48.8951 83.2567 49.2841 81.4336 49.2841C79.5741 49.2841 78.0791 48.8951 76.9245 48.1051C75.782 47.3151 75.2108 46.1605 75.2108 44.6412V37.3002H75.1986ZM89.905 37.3002H97.3189C97.7564 37.3002 98.1089 37.3124 98.3884 37.3367C98.668 37.361 99.0326 37.4461 99.4701 37.5919C99.9077 37.7378 100.26 37.9566 100.528 38.2604C100.965 38.7587 101.172 39.3786 101.172 40.1443C101.172 41.3718 100.54 42.1983 99.2757 42.6115C100.916 43.0005 101.743 43.9728 101.755 45.5406C101.755 46.355 101.585 46.9991 101.257 47.4974C101.038 47.8256 100.795 48.093 100.515 48.2996C100.236 48.5062 99.9198 48.6521 99.5552 48.7371C99.1906 48.8222 98.8989 48.8708 98.668 48.883C98.4371 48.8951 98.1332 48.9073 97.7443 48.9073H89.8928V37.3124L89.905 37.3002ZM92.7368 41.8458H97.0515C97.9752 41.8458 98.4249 41.4204 98.4249 40.5697C98.4127 39.731 97.963 39.3056 97.0637 39.3056H92.7368V41.858V41.8458ZM92.7368 46.8533H97.2095C98.3398 46.8533 98.9111 46.3307 98.9111 45.2733C98.9111 44.3374 98.4006 43.8634 97.3918 43.8634H92.7368V46.8533ZM114.857 48.8951H103.87V37.3002H114.529V39.3907H106.738V42.0038H114.274V44.07H106.738V46.829H114.857V48.8951ZM128.141 48.8951H116.376V46.7803L124.264 39.3543H116.948V37.3002H128.141V39.3543L120.241 46.7803H128.141V48.8951ZM143.407 48.8951H140.538V43.912H133.635V48.8951H130.767V37.3002H133.635V41.7729H140.538V37.3002H143.407V48.8951Z" fill="#34353E"/>
<path d="M29.5963 28.8014H21.6148L14.4354 17.9558H6.72122V28.8014H0V1.84015H18.5597C20.4692 1.84015 21.9585 2.00564 23.0278 2.33661C24.7336 2.84579 26.0575 3.78778 26.9995 5.16258C27.9415 6.51191 28.4124 8.09038 28.4124 9.89798C28.4124 11.1964 28.1706 12.3803 27.6869 13.4495C27.1268 14.7225 26.3248 15.6518 25.281 16.2373C24.2626 16.8229 22.9642 17.2557 21.3857 17.5357L29.5963 28.8014ZM6.72122 6.57556V13.1822H17.8342C20.3292 13.1822 21.5767 12.1129 21.5767 9.97436C21.5767 7.7085 20.24 6.57556 17.5668 6.57556H6.72122Z" fill="#34353E"/>
<path d="M43.3639 19.6361H30.8762V14.6716H43.3639V19.6361Z" fill="#34353E"/>
<path d="M71.5312 19.6361H78.5961C78.4179 20.3999 78.1378 21.1764 77.7559 21.9656C77.3995 22.7549 76.8012 23.6332 75.9611 24.6007C75.1464 25.5681 74.1662 26.421 73.0205 27.1593C71.9003 27.8722 70.4109 28.4705 68.5524 28.9542C66.7194 29.4634 64.6826 29.718 62.4422 29.718C57.5031 29.718 53.5697 28.4705 50.6419 25.9755C47.7141 23.455 46.2502 19.8907 46.2502 15.2826C46.2502 11.0818 47.6632 7.65758 50.4891 5.00982C53.3406 2.33661 57.4522 1 62.8241 1C66.8467 1 70.2073 1.82742 72.906 3.48227C75.6046 5.11166 77.3995 7.08475 78.2906 9.40153L70.9201 10.3181C69.0107 7.41571 66.312 5.96454 62.8241 5.96454C61.1183 5.96454 59.6163 6.25732 58.3178 6.84288C57.0194 7.42844 56.0138 8.20495 55.3009 9.1724C54.6135 10.1398 54.0916 11.1455 53.7352 12.1893C53.4042 13.2331 53.2387 14.2897 53.2387 15.359C53.2387 18.0067 54.1425 20.2344 55.9501 22.042C57.7832 23.8496 60.1382 24.7534 63.0151 24.7534C67.114 24.7534 69.9527 23.0477 71.5312 19.6361Z" fill="#34353E"/>
<path d="M111.475 28.8014H103.913L101.622 23.7223H87.7978L85.5065 28.8014H78.136L91.1584 1.84015H98.4525L111.475 28.8014ZM99.4454 18.9487L94.7481 8.40862L89.9745 18.9487H99.4454Z" fill="#34353E"/>
<path d="M114.454 28.8014V1.84015H129.233C131.677 1.84015 133.803 2.12021 135.61 2.68031C137.443 3.21495 139.085 4.22059 140.536 5.69722C142.802 8.03947 143.935 11.2091 143.935 15.2062C143.935 19.4579 142.611 22.8185 139.964 25.2881C138.589 26.5865 137.049 27.503 135.343 28.0377C133.663 28.5468 131.562 28.8014 129.042 28.8014H114.454ZM121.175 24.0278H129.08C131.702 24.0278 133.713 23.3659 135.114 22.042C136.514 20.7181 137.214 18.3504 137.214 14.9389C137.214 11.8074 136.387 9.54156 134.732 8.1413C133.535 7.12294 131.613 6.61375 128.965 6.61375H121.175V24.0278Z" fill="#34353E"/>
</svg>
