<svg width="95" height="50" viewBox="0 0 95 50" fill="none" xmlns="http://www.w3.org/2000/svg">
<g clip-path="url(#clip0)">
<path fill-rule="evenodd" clip-rule="evenodd" d="M84.7794 38.3369L84.3427 38.64L83.0132 39.1973L81.8195 39.2559C81.6934 39.2755 81.5575 39.2951 81.4023 39.3048C81.247 39.3146 81.0238 39.3146 80.7327 39.3146C80.1019 39.3146 79.5778 39.2266 79.1217 39.0506C78.6753 38.8649 78.2871 38.5911 77.9087 38.2196C76.6374 36.4304 74.3762 34.6607 73.9395 32.6075C73.1826 29.0682 73.4834 27.8265 74.7256 25.2649L76.2589 24.7468L78.1222 24.7565L79.5293 25.4409C80.0922 25.7147 80.393 26.5848 80.6162 28.2567C80.6162 28.3741 80.6259 28.4718 80.655 28.55L81.1596 31.3952C81.6158 32.3729 81.7322 33.1844 82.4892 33.8785C82.8579 34.2012 83.4014 34.3772 84.1195 34.3772C84.4398 34.3772 84.76 34.3087 85.09 34.1816C86.6038 33.6048 87.2346 33.0377 88.5641 32.0991C89.5831 31.3561 90.9708 30.6228 92.1063 29.9482C93.1641 29.3029 93.8822 28.99 94.2607 28.99C94.5033 28.99 94.6877 29.0389 94.8041 29.1464C94.9303 29.2442 94.9885 29.3909 94.9885 29.5962C94.9885 29.6157 94.9594 29.6646 94.9109 29.7428C94.5906 30.3197 94.5421 30.6521 94.0083 31.1214C93.4746 31.5809 92.9894 32.06 92.543 32.5684C91.951 33.243 90.9708 33.9763 90.2527 34.6118L89.816 34.8465L89.0688 35.3549C88.6515 35.658 88.1177 36.0882 87.4384 36.6357C86.2836 37.5938 85.3908 38.1609 84.76 38.3369H84.7794ZM76.4724 15.0968C76.2977 15.0088 76.1813 14.8915 76.0745 14.7546L75.7834 14.2266C75.6572 14.0409 75.5699 13.8551 75.502 13.6889C75.4243 13.5031 75.3952 13.3565 75.3952 13.2098C75.3952 12.5352 75.6281 11.8899 76.0939 11.2739C77.1711 9.83671 79.5099 8.61457 80.9559 7.48043C81.7419 7.31422 82.4212 6.91336 83.2364 6.91336C83.7216 6.91336 84.1098 7.01113 84.4106 7.20667C84.7212 7.41199 84.8667 7.65642 84.8667 7.95951V8.06706C84.4689 9.78782 83.8963 11.3326 83.0326 12.848C82.8579 13.1023 82.5862 13.376 82.2271 13.6595C81.509 14.2559 80.296 14.8524 79.3158 15.1359C78.9956 15.2337 78.6947 15.2923 78.4327 15.2923C77.8601 15.2923 76.9576 15.351 76.4821 15.0968H76.4724ZM47.2038 42.717C47.0388 42.4042 46.9029 42.1109 46.8059 41.886C46.7089 41.6513 46.6409 41.446 46.6215 41.2994L46.3401 41.0256C45.3988 39.0017 44.0887 36.6064 43.5452 34.5238C43.0891 32.7737 42.4098 30.6228 42.0701 28.9411C41.6431 26.9466 41.255 24.385 40.9638 22.3905C40.2845 17.3651 38.693 8.09639 40.2651 4.62552C40.8086 3.38383 41.8566 1.9075 43.2638 1.29154C44.3798 0.783132 46.1945 0.245392 47.3688 0.0107422C47.6017 0.157398 47.8346 0.294278 48.0675 0.440934C48.3004 0.597367 48.4654 0.714692 48.5624 0.82224C48.6692 0.900456 48.7565 0.98845 48.7953 1.06667C48.8341 1.13511 48.8535 1.24265 48.8827 1.35998C48.8827 1.41864 48.873 1.48708 48.8438 1.53597C48.8147 1.59463 48.805 1.63374 48.805 1.65329L48.4848 2.93409C48.4071 4.67441 48.2422 6.2974 48.1742 8.03773C48.0966 10.0127 48.0093 12.105 47.7958 14.0702C47.7666 14.2853 47.7569 14.5004 47.7569 14.6959V15.175C48.0675 21.9016 48.3489 29.5473 50.6586 36.1371C50.8915 36.8312 51.2117 37.457 51.629 38.0143C51.891 37.6818 52.1433 37.3201 52.4054 36.9486C54.6859 33.4679 56.8015 30.0166 58.6647 26.4186C59.9845 23.8668 61.0617 21.5594 62.3912 19.0272C62.5756 18.6459 62.76 18.245 62.9347 17.805C63.187 14.8915 63.8566 12.0268 64.9241 9.26964C65.3317 9.0741 65.5064 8.65368 65.7975 8.45814C66.865 7.71508 68.1751 6.48317 69.7278 7.06979C70.4848 7.06979 70.4945 9.29897 70.4945 9.74871C70.4945 11.2642 69.9413 13.0143 69.5531 14.5004C68.9417 16.7589 67.4958 19.692 66.5933 21.931C66.4671 22.2145 66.2633 22.6349 65.9722 23.1824C65.7005 23.7202 65.4093 24.297 65.0697 24.9032C63.8081 27.103 62.925 29.3127 61.6537 31.5614C60.9162 32.8422 60.2563 33.9079 59.6837 34.7389L58.3542 37.0757C57.7525 38.0436 57.2576 38.816 56.8597 39.3928C56.4812 39.9501 56.0834 40.4976 55.6758 40.9865C56.0057 41.0451 56.2677 41.1429 56.4327 41.2407C56.6074 41.3482 56.7044 41.4949 56.7239 41.6807C56.7239 41.9349 56.5783 42.2086 56.2677 42.5117C55.9766 42.805 55.4914 43.157 54.8412 43.5481L54.5598 43.9978C53.4729 45.0049 49.824 47.7913 48.0578 47.7913C47.8637 47.7913 47.4949 47.7033 46.9321 47.5274L46.7865 47.4687C46.5633 47.3709 46.3886 47.2243 46.243 47.0287C46.0975 46.843 45.9713 46.5692 45.8452 46.2172C45.7966 46.1586 45.7481 46.0999 45.6996 46.0315C45.4376 45.7186 45.3017 45.5035 45.3017 45.4057C45.3017 45.3275 45.3405 45.2297 45.4085 45.132C45.4861 45.044 45.622 44.8778 45.8452 44.6529C46.1751 44.3596 46.4662 44.0663 46.6992 43.7632C46.9224 43.4601 47.097 43.1179 47.2135 42.7464L47.2038 42.717ZM4.40716 46.2759L3.00002 46.2172L2.41775 45.9826L1.59287 45.611C1.32115 45.1906 1.13676 44.8582 1.03001 44.604C0.93297 44.34 0.865039 44.0858 0.865039 43.8316C0.865039 43.6067 0.894152 43.3428 0.942674 43.0397C0.991197 42.7366 1.06883 42.3846 1.16588 42.0131L2.17514 36.0686L2.71859 33.0866C2.05869 32.1676 1.04942 31.5907 0.486565 30.701C-0.464471 29.0193 -0.0180661 28.071 2.00046 27.2692C2.9612 26.8879 3.56288 26.5653 3.8249 26.3111L4.32953 18.9685L4.2713 18.0983L4.32953 15.175C4.2616 13.8258 4.0481 12.4276 4.0481 11.0882C4.0481 10.5113 4.10633 10.1496 4.01898 9.56295C3.98987 9.30875 3.97046 9.06432 3.97046 8.81989C3.97046 7.05024 4.78564 5.53479 6.41598 4.28333C8.04633 3.03186 9.929 2.39635 12.1028 2.39635C12.9083 2.39635 14.0534 2.5039 15.5673 2.71899C17.0812 2.94387 18.5465 3.23718 19.944 3.61848L23.4085 4.60597C26.873 5.58368 29.6581 6.96225 31.7834 8.74167C33.9087 10.5211 34.9665 12.4179 34.9665 14.4319C34.9665 15.8594 34.423 17.1206 33.3264 18.2059C32.2298 19.3009 30.4248 20.3666 27.9307 21.4128L25.1844 22.762L23.195 23.6908L19.8081 25.0987L17.974 25.7538L12.1222 27.6114C9.58934 29.3811 13.8884 32.0111 15.8099 33.3115C17.0521 34.1523 18.6436 35.746 20.109 36.2935C22.7971 38.0827 24.9515 39.5786 26.5721 40.7421C27.921 41.7198 29.2603 42.5606 30.5801 43.509C31.7737 44.4573 33.996 45.3666 34.7627 46.5594C34.753 47.2536 35.0635 49.5317 34.4424 49.9521C34.3648 50.001 34.2969 50.0205 34.2289 50.0205C33.8602 50.0205 33.5205 49.9325 33.1906 49.7859C30.5218 48.5833 28.3966 47.5665 25.524 46.2954C24.1169 45.6599 23.0397 44.8191 21.7102 44.0858C20.6912 43.5187 20.0993 42.8539 19.0609 42.3259L13.966 39.4026L12.2678 38.2391L10.1328 36.7139L7.532 35.4331L6.20249 39.471L5.39702 42.9615L4.71771 45.2884L4.42657 46.3052L4.40716 46.2759ZM9.79313 25.0205C10.1037 25.0205 10.3948 24.9814 10.6665 24.8836C12.6074 24.2579 14.199 23.5148 15.9943 22.6838L18.7406 21.7647C20.7398 20.9239 22.3216 20.0244 24.1557 18.9783C24.6895 18.685 25.2038 18.3232 25.7084 17.9126L27.4067 16.5633C27.6008 16.27 27.7367 16.006 27.8337 15.7714C27.9307 15.5465 27.9793 15.3412 27.9793 15.1554C27.9793 14.5395 27.2514 13.6595 25.8055 12.4961C25.2329 12.0366 24.7671 11.4597 24.0101 11.2446C22.9524 10.7558 21.8266 10.3353 20.633 10.0127C19.4394 9.69005 18.1196 9.42607 16.6736 9.22075C14.4707 8.93722 12.326 8.50702 10.1037 8.50702C9.87077 8.50702 9.60875 8.53636 9.36614 8.59502C9.10412 8.65368 8.78387 8.76123 8.36658 8.91766C7.9881 9.35763 7.71638 9.69005 7.5417 9.9247C7.00796 10.6775 7.65815 13.1707 7.72608 14.1093C8.11426 13.5227 8.4151 12.7698 9.14293 12.4179C9.56023 12.2223 10.4142 11.7139 10.8897 11.7139C11.1323 11.7139 11.375 11.7628 11.5788 11.8508C11.802 11.9388 12.0349 12.105 12.3066 12.3494C12.6851 13.0534 13.2285 13.2978 12.6656 14.9795L11.3944 18.6459L10.6083 21.8039L9.78343 25.001L9.79313 25.0205Z" fill="#34353E"/>
</g>
<defs>
<clipPath id="clip0">
<rect width="95" height="50" fill="white"/>
</clipPath>
</defs>
</svg>
