<svg width="80" height="80" viewBox="0 0 80 80" fill="none" xmlns="http://www.w3.org/2000/svg">
<rect x="20.5" y="45.5" width="43" height="8" stroke="#34353E" stroke-width="3"/>
<path d="M34 57H50V60L34 62V57Z" fill="#34353E"/>
<path d="M34 67V64L50 62V65L34 67Z" fill="#34353E"/>
<path d="M63.5 39.5H20.5V19C20.5 17.3192 20.9847 16.0378 21.8253 15.0145C22.687 13.9655 24.0033 13.0917 25.8087 12.4009C29.4562 11.0054 34.7092 10.5 40.9546 10.5C47.1896 10.5 52.9991 11.0022 57.202 12.421C59.297 13.1283 60.883 14.0277 61.9308 15.1071C62.9432 16.1499 63.5 17.404 63.5 19V39.5Z" stroke="#34353E" stroke-width="3"/>
<rect x="65" y="29" width="9" height="5" fill="#34353E"/>
<rect x="8" y="40" width="7" height="4" fill="#34353E"/>
<rect x="7" y="37" width="9" height="2" fill="#34353E"/>
<rect x="7" y="34" width="9" height="2" fill="#34353E"/>
<rect x="10" y="45" width="3" height="2" fill="#34353E"/>
<path d="M7 32.5C7 30.0147 9.01472 28 11.5 28C13.9853 28 16 30.0147 16 32.5V33H7V32.5Z" fill="#34353E"/>
<path fill-rule="evenodd" clip-rule="evenodd" d="M41.9979 71C46.4162 71 49.9979 69.2091 49.9979 67L34.9375 68.8826C36.2842 70.1426 38.9408 71 41.9979 71Z" fill="#34353E"/>
</svg>
