<svg width="80" height="80" viewBox="0 0 80 80" fill="none" xmlns="http://www.w3.org/2000/svg">
<mask id="path-1-inside-1" fill="white">
<rect x="5" y="5" width="70" height="70" rx="2"/>
</mask>
<rect x="5" y="5" width="70" height="70" rx="2" stroke="#34353E" stroke-width="6" mask="url(#path-1-inside-1)"/>
<circle cx="13" cy="13" r="2" fill="#34353E"/>
<circle cx="40" cy="40" r="2" fill="#34353E"/>
<circle cx="67" cy="67" r="2" fill="#34353E"/>
<circle cx="40" cy="40" r="28.5" stroke="#34353E"/>
<path d="M34.9021 36.3957L35.7657 36.8998C35.9603 36.5664 35.9456 36.1507 35.728 35.8319L34.9021 36.3957ZM26.5511 22.4447L27.1424 23.2511L26.5511 22.4447ZM35.9529 19.4117L36.3785 18.5068L36.3785 18.5068L35.9529 19.4117ZM40.0426 33.2154L39.0444 33.2754C39.0604 33.5411 39.1816 33.7894 39.3812 33.9655C39.5808 34.1415 39.8424 34.2307 40.108 34.2133L40.0426 33.2154ZM42.0895 33.4087L41.8388 34.3768C42.2262 34.4771 42.6362 34.3368 42.8809 34.02L42.0895 33.4087ZM51.2766 21.5136L52.0681 22.1248L52.0681 22.1248L51.2766 21.5136ZM52.6551 21.3133L52.0708 22.1249L52.0708 22.1249L52.6551 21.3133ZM58.4449 29.3178L57.4528 29.1927L57.4528 29.1927L58.4449 29.3178ZM46.5463 37.4863L46.1808 36.5555C45.6781 36.7529 45.4229 37.3138 45.6045 37.8225L46.5463 37.4863ZM46.9171 39.813L45.9174 39.787C45.9061 40.2189 46.1735 40.6091 46.5803 40.7546L46.9171 39.813ZM60.9183 44.8209L60.5816 45.7625L60.9183 44.8209ZM61.4862 45.9714L60.5338 45.6666L61.4862 45.9714ZM55.6393 54.0242L55.827 55.0065L55.6393 54.0242ZM44.0269 45.0293L44.7993 44.3942C44.4739 43.9986 43.9023 43.9127 43.4751 44.1953L44.0269 45.0293ZM42.8612 45.6407L42.4896 44.7123C42.098 44.869 41.8469 45.2545 41.8618 45.676L42.8612 45.6407ZM42.8614 45.7054L43.8609 45.7347L43.8609 45.7346L42.8614 45.7054ZM42.399 61.4638L43.3986 61.4932L43.3986 61.4932L42.399 61.4638ZM41.4015 62.4361L41.4058 63.4361L41.4058 63.4361L41.4015 62.4361ZM32.0125 59.3635L32.8887 58.8815L32.0125 59.3635ZM37.0743 45.3903L37.917 45.9287L37.917 45.9287L37.0743 45.3903ZM37.1763 45.2306L36.383 44.6217C36.3656 44.6445 36.3491 44.668 36.3336 44.6922L37.1763 45.2306ZM37.1947 45.2066L37.988 45.8154C38.1625 45.5881 38.231 45.2969 38.1763 45.0157C38.1216 44.7344 37.9489 44.4902 37.702 44.3448L37.1947 45.2066ZM35.6913 43.9807L36.4332 43.3102C36.176 43.0256 35.7785 42.9132 35.4103 43.021L35.6913 43.9807ZM20.837 48.3299L20.556 47.3702L20.556 47.3702L20.837 48.3299ZM19.6041 47.6817L20.5538 47.3686L20.5538 47.3686L19.6041 47.6817ZM19.625 37.8028L20.3541 38.4871L20.3541 38.4871L19.625 37.8028ZM34.1823 38.2218L33.9308 39.1897C34.1927 39.2578 34.471 39.2168 34.7022 39.0761C34.9333 38.9354 35.0976 38.7071 35.1575 38.4432L34.1823 38.2218ZM25.4897 24.3813L34.0762 36.9595L35.728 35.8319L27.1415 23.2537L25.4897 24.3813ZM25.9598 21.6382C25.0902 22.2757 24.8808 23.4894 25.4897 24.3813L27.1415 23.2537C27.1408 23.2528 27.1408 23.2526 27.141 23.253C27.1411 23.2534 27.1413 23.2538 27.1413 23.2541C27.1414 23.2546 27.1413 23.2541 27.1415 23.2528C27.1417 23.2515 27.1421 23.251 27.1419 23.2512C27.1418 23.2514 27.1416 23.2517 27.1414 23.2519C27.1412 23.2521 27.1414 23.2519 27.1424 23.2511L25.9598 21.6382ZM36.3785 18.5068C34.4846 17.6162 32.6644 17.8204 30.9423 18.5327C29.2696 19.2245 27.606 20.4314 25.9598 21.6382L27.1424 23.2511C28.8327 22.0119 30.2985 20.9633 31.7068 20.3808C33.0658 19.8187 34.2783 19.7293 35.5274 20.3167L36.3785 18.5068ZM41.0408 33.1554C40.8277 29.6105 40.6239 26.4508 40.0419 23.9846C39.4612 21.5242 38.4415 19.4769 36.3785 18.5068L35.5274 20.3167C36.7493 20.8912 37.5597 22.1743 38.0953 24.4439C38.6296 26.7076 38.8281 29.6775 39.0444 33.2754L41.0408 33.1554ZM42.3401 32.4407C41.5722 32.2418 40.774 32.1654 39.9772 32.2176L40.108 34.2133C40.6909 34.1751 41.2758 34.231 41.8388 34.3768L42.3401 32.4407ZM50.4852 20.9023L41.298 32.7975L42.8809 34.02L52.0681 22.1248L50.4852 20.9023ZM53.2394 20.5018C52.3643 19.8718 51.1453 20.0476 50.4852 20.9023L52.0681 22.1248C52.0688 22.1239 52.069 22.1238 52.0686 22.1241C52.0683 22.1244 52.068 22.1246 52.0677 22.1248C52.0672 22.1251 52.0677 22.1247 52.069 22.1245C52.0703 22.1244 52.0709 22.1245 52.0706 22.1245C52.0704 22.1244 52.0701 22.1243 52.0698 22.1242C52.0695 22.1241 52.0698 22.1242 52.0708 22.1249L53.2394 20.5018ZM59.4371 29.4429C59.6988 27.3665 58.9422 25.6984 57.7326 24.2808C56.5577 22.9037 54.8958 21.6944 53.2394 20.5018L52.0708 22.1249C53.7717 23.3495 55.2219 24.4195 56.2112 25.5789C57.1658 26.6977 57.6254 27.8233 57.4528 29.1927L59.4371 29.4429ZM46.9118 38.4171C50.2261 37.1157 53.1764 35.9437 55.3481 34.6265C57.5144 33.3126 59.1515 31.7086 59.4371 29.4429L57.4528 29.1927C57.2836 30.5347 56.3107 31.7036 54.311 32.9165C52.3167 34.1261 49.5451 35.2345 46.1808 36.5555L46.9118 38.4171ZM47.9167 39.8391C47.9402 38.9373 47.8004 38.0253 47.4881 37.1502L45.6045 37.8225C45.8323 38.4606 45.9346 39.1267 45.9174 39.787L47.9167 39.8391ZM61.2551 43.8793L47.2538 38.8715L46.5803 40.7546L60.5816 45.7625L61.2551 43.8793ZM62.4386 46.2762C62.7543 45.2897 62.2318 44.2286 61.2551 43.8793L60.5816 45.7625C60.5415 45.7481 60.5213 45.7056 60.5338 45.6666L62.4386 46.2762ZM55.827 55.0065C57.8957 54.6113 59.2519 53.3632 60.2275 51.7612C61.1751 50.2051 61.8122 48.2337 62.4386 46.2762L60.5338 45.6666C59.8894 47.6801 59.3193 49.4072 58.5193 50.7209C57.7473 51.9886 56.8153 52.7815 55.4517 53.042L55.827 55.0065ZM43.2544 45.6645C45.5579 48.4658 47.6149 50.9621 49.5623 52.6579C51.5034 54.3482 53.5568 55.4402 55.827 55.0065L55.4517 53.042C54.1068 53.2989 52.6761 52.7174 50.8757 51.1496C49.0816 49.5873 47.1399 47.2407 44.7993 44.3942L43.2544 45.6645ZM43.2327 46.5691C43.6965 46.3835 44.1476 46.1485 44.5786 45.8633L43.4751 44.1953C43.1582 44.405 42.828 44.5769 42.4896 44.7123L43.2327 46.5691ZM43.8609 45.7346C43.8622 45.6915 43.8621 45.6483 43.8605 45.6053L41.8618 45.676L41.8618 45.6761L43.8609 45.7346ZM43.3986 61.4932L43.8609 45.7347L41.8618 45.676L41.3994 61.4345L43.3986 61.4932ZM41.4058 63.4361C42.4841 63.4314 43.3669 62.5726 43.3986 61.4932L41.3994 61.4345C41.3994 61.4356 41.3993 61.4358 41.3994 61.4354C41.3995 61.435 41.3996 61.4346 41.3998 61.4343C41.4 61.4338 41.3998 61.4343 41.3989 61.4353C41.3979 61.4362 41.3973 61.4364 41.3976 61.4363C41.3978 61.4362 41.3981 61.4361 41.3984 61.436C41.3987 61.436 41.3984 61.4361 41.3972 61.4361L41.4058 63.4361ZM31.1364 59.8455C32.1451 61.6792 33.7376 62.5839 35.5495 63.0199C37.3094 63.4433 39.3647 63.4449 41.4058 63.4361L41.3972 61.4361C39.3013 61.4451 37.4991 61.4319 36.0173 61.0754C34.5874 60.7313 33.554 60.0909 32.8887 58.8815L31.1364 59.8455ZM36.2316 44.852C34.255 47.9459 32.4893 50.7043 31.4591 53.1033C30.4327 55.4935 30.0134 57.8043 31.1364 59.8455L32.8887 58.8815C32.2234 57.6721 32.3418 56.1162 33.2968 53.8925C34.2479 51.6775 35.9072 49.0746 37.917 45.9287L36.2316 44.852ZM36.3336 44.6922L36.2315 44.852L37.917 45.9287L38.019 45.7689L36.3336 44.6922ZM36.4014 44.5977L36.383 44.6217L37.9696 45.8394L37.988 45.8154L36.4014 44.5977ZM34.9494 44.6513C35.463 45.2195 36.0508 45.6936 36.6874 46.0684L37.702 44.3448C37.2373 44.0713 36.8084 43.7254 36.4332 43.3102L34.9494 44.6513ZM21.118 49.2896L35.9723 44.9405L35.4103 43.021L20.556 47.3702L21.118 49.2896ZM18.6544 47.9948C18.992 49.0188 20.0816 49.5931 21.118 49.2896L20.556 47.3702C20.5549 47.3705 20.5547 47.3705 20.5552 47.3704C20.5556 47.3704 20.556 47.3704 20.5563 47.3704C20.5569 47.3705 20.5563 47.3705 20.5551 47.3699C20.554 47.3693 20.5536 47.3688 20.5538 47.369C20.5539 47.3692 20.5541 47.3695 20.5543 47.3697C20.5544 47.37 20.5542 47.3697 20.5538 47.3686L18.6544 47.9948ZM18.8958 37.1184C17.4636 38.6444 17.0953 40.4386 17.2405 42.2965C17.3817 44.1011 18.0153 46.0563 18.6544 47.9948L20.5538 47.3686C19.8976 45.378 19.3533 43.66 19.2345 42.1405C19.1198 40.6743 19.4095 39.4935 20.3541 38.4871L18.8958 37.1184ZM34.4338 37.254C30.9549 36.3499 27.8508 35.5514 25.2987 35.3322C22.7538 35.1136 20.4683 35.443 18.8958 37.1184L20.3541 38.4871C21.2856 37.4947 22.7726 37.1225 25.1275 37.3248C27.475 37.5265 30.3976 38.2715 33.9308 39.1897L34.4338 37.254ZM34.0384 35.8917C33.6529 36.5522 33.3742 37.2644 33.2071 38.0005L35.1575 38.4432C35.28 37.9035 35.4842 37.3823 35.7657 36.8998L34.0384 35.8917Z" fill="#34353E"/>
</svg>
