<svg width="80" height="80" viewBox="0 0 80 80" fill="none" xmlns="http://www.w3.org/2000/svg">
<rect x="7.5" y="23.5" width="65" height="33" stroke="#34353E" stroke-width="3"/>
<path fill-rule="evenodd" clip-rule="evenodd" d="M74 55H6V67H74V55ZM58 58H48V64H58V58ZM61 58H71V64H61V58ZM19 58H9V64H19V58ZM22 58H32V64H22V58ZM45 58H35V64H45V58Z" fill="#34353E"/>
<path fill-rule="evenodd" clip-rule="evenodd" d="M74 55H6V67H74V55ZM58 58H48V64H58V58ZM61 58H71V64H61V58ZM19 58H9V64H19V58ZM22 58H32V64H22V58ZM45 58H35V64H45V58Z" fill="#34353E"/>
<path fill-rule="evenodd" clip-rule="evenodd" d="M74 13H6V25H74V13ZM58 16H48V22H58V16ZM61 16H71V22H61V16ZM19 16H9V22H19V16ZM22 16H32V22H22V16ZM45 16H35V22H45V16Z" fill="#34353E"/>
<path fill-rule="evenodd" clip-rule="evenodd" d="M74 13H6V25H74V13ZM58 16H48V22H58V16ZM61 16H71V22H61V16ZM19 16H9V22H19V16ZM22 16H32V22H22V16ZM45 16H35V22H45V16Z" fill="#34353E"/>
<path d="M34 49V30L48 39.5L34 49Z" stroke="#34353E" stroke-width="3" stroke-linecap="round" stroke-linejoin="round"/>
</svg>
