<svg width="211" height="183" viewBox="0 0 211 183" fill="none" xmlns="http://www.w3.org/2000/svg">
<ellipse cx="166.969" cy="26.8572" rx="3" ry="2.95294" fill="#D7D8DC"/>
<rect width="1.98438" height="7.9375" rx="0.992188" transform="matrix(0.712674 -0.701495 0.712674 0.701495 157.777 19.2012)" fill="#D7D8DC"/>
<rect width="1.98438" height="7.9375" rx="0.992188" transform="matrix(0.712674 -0.701495 0.712674 0.701495 169.094 30.3379)" fill="#D7D8DC"/>
<rect width="1.98438" height="7.9375" rx="0.992188" transform="matrix(-0.712674 -0.701495 0.712674 -0.701495 159.191 35.9053)" fill="#D7D8DC"/>
<rect width="1.98438" height="7.9375" rx="0.992188" transform="matrix(-0.712674 -0.701495 0.712674 -0.701495 170.504 24.7686)" fill="#D7D8DC"/>
<rect x="4" y="70.1963" width="2" height="9.84314" rx="1" fill="#D7D8DC"/>
<rect y="76.1025" width="1.96863" height="10" rx="0.984314" transform="rotate(-90 0 76.1025)" fill="#D7D8DC"/>
<ellipse cx="24.9688" cy="114.461" rx="3" ry="2.95294" fill="#D7D8DC"/>
<rect width="1.98438" height="7.9375" rx="0.992188" transform="matrix(0.712674 -0.701495 0.712674 0.701495 15.7773 106.805)" fill="#D7D8DC"/>
<rect width="1.98438" height="7.9375" rx="0.992188" transform="matrix(0.712674 -0.701495 0.712674 0.701495 27.0938 117.941)" fill="#D7D8DC"/>
<rect width="1.98438" height="7.9375" rx="0.992188" transform="matrix(-0.712674 -0.701495 0.712674 -0.701495 17.1914 123.509)" fill="#D7D8DC"/>
<rect width="1.98438" height="7.9375" rx="0.992188" transform="matrix(-0.712674 -0.701495 0.712674 -0.701495 28.5039 112.372)" fill="#D7D8DC"/>
<path d="M186.879 130.132C187.415 130.012 187.96 130.348 187.991 130.897C188.022 131.445 187.975 131.996 187.851 132.534C187.652 133.396 187.258 134.203 186.7 134.895C186.142 135.588 185.433 136.148 184.625 136.535C183.818 136.922 182.932 137.125 182.034 137.13C181.136 137.135 180.248 136.942 179.436 136.564C178.624 136.186 177.909 135.634 177.343 134.948C176.776 134.261 176.374 133.459 176.165 132.599C176.034 132.063 175.981 131.512 176.006 130.964C176.03 130.415 176.571 130.073 177.109 130.187C177.652 130.302 177.986 130.842 178.011 131.396C178.022 131.646 178.057 131.895 178.117 132.139C178.256 132.711 178.524 133.245 178.901 133.702C179.277 134.159 179.754 134.526 180.294 134.778C180.834 135.029 181.425 135.158 182.023 135.155C182.62 135.151 183.21 135.016 183.747 134.758C184.285 134.501 184.756 134.128 185.128 133.667C185.499 133.206 185.761 132.669 185.894 132.096C185.95 131.851 185.983 131.602 185.991 131.352C186.009 130.797 186.337 130.253 186.879 130.132Z" fill="#D7D8DC"/>
<rect x="181" y="135.161" width="2" height="7.87451" rx="1" fill="#D7D8DC"/>
<path d="M196 111.538C196 113.145 194.672 114.475 193 114.475C191.328 114.475 190 113.145 190 111.538C190 109.93 191.328 108.601 193 108.601C194.672 108.601 196 109.93 196 111.538Z" stroke="#D7D8DC" stroke-width="2"/>
<path d="M204 62.3223H210" stroke="#D7D8DC" stroke-width="2" stroke-linecap="round" stroke-linejoin="round"/>
<rect x="26" y="32.8086" width="4" height="7.84314" stroke="#D7D8DC" stroke-width="2"/>
<path d="M38 26.8867L30 32.7926V40.6671L38 46.573V26.8867Z" stroke="#D7D8DC" stroke-width="2"/>
<g filter="url(#filter0_d)">
<path d="M184 82.5004C184 121.913 151.541 153.863 111.5 153.863C71.4594 153.863 39 121.913 39 82.5004C39 43.0879 71.4594 11.1377 111.5 11.1377C151.541 11.1377 184 43.0879 184 82.5004Z" fill="#165AA2"/>
</g>
<path d="M74 104.647V64.3838C74 61.0701 71.3137 58.3838 68 58.3838V58.3838C64.6863 58.3838 62 61.0701 62 64.3838V104.647" stroke="white" stroke-width="3"/>
<path d="M74 105.63V104.74C74 101.427 71.2663 98.7402 67.9526 98.7402V98.7402C64.6908 98.7402 62 101.384 62 104.646V104.646C62 107.908 64.6442 110.552 67.9059 110.552H103" stroke="white" stroke-width="3"/>
<path d="M73 64.29H102.5" stroke="white" stroke-width="3"/>
<rect x="82" y="75.1172" width="3" height="28.5451" fill="white"/>
<rect x="94" y="80.0391" width="3" height="15.749" fill="white"/>
<rect x="82" y="75.1172" width="2.95294" height="18" transform="rotate(-90 82 75.1172)" fill="white"/>
<rect x="82" y="103.662" width="2.95294" height="18" transform="rotate(-90 82 103.662)" fill="white"/>
<rect x="97" y="89.8818" width="2.95294" height="3" transform="rotate(-90 97 89.8818)" fill="white"/>
<rect x="85" y="85.9443" width="2.95294" height="9" transform="rotate(-90 85 85.9443)" fill="white"/>
<path fill-rule="evenodd" clip-rule="evenodd" d="M104 47.5565H150C150.552 47.5565 151 47.9971 151 48.5408V91.0515C152.035 91.2063 153.038 91.4557 154 91.7904V48.5408C154 46.3663 152.209 44.6035 150 44.6035H104C101.791 44.6035 100 46.3663 100 48.5408V111.537C100 113.711 101.791 115.474 104 115.474H134.355C133.787 114.546 133.311 113.558 132.939 112.521H104C103.448 112.521 103 112.08 103 111.537V48.5408C103 47.9971 103.448 47.5565 104 47.5565Z" fill="white"/>
<path d="M159.5 107.108C159.5 113.052 154.598 117.912 148.5 117.912C142.402 117.912 137.5 113.052 137.5 107.108C137.5 101.163 142.402 96.3037 148.5 96.3037C154.598 96.3037 159.5 101.163 159.5 107.108Z" stroke="white" stroke-width="3"/>
<path d="M144 107.498L147.182 110.552L154 104.646" stroke="white" stroke-width="3" stroke-linecap="round" stroke-linejoin="round"/>
<rect x="110" y="87.9131" width="34" height="2.95294" rx="1.47647" fill="white"/>
<rect x="110" y="94.8037" width="19" height="2.95294" rx="1.47647" fill="white"/>
<mask id="path-34-inside-1" fill="white">
<rect x="113" y="53.4619" width="28" height="27.5608" rx="2"/>
</mask>
<rect x="113" y="53.4619" width="28" height="27.5608" rx="2" stroke="white" stroke-width="6" mask="url(#path-34-inside-1)"/>
<ellipse cx="127" cy="67.2421" rx="2" ry="1.96863" fill="white"/>
<rect x="121" y="61.3525" width="12" height="11.7804" rx="1" stroke="white" stroke-width="2"/>
<defs>
<filter id="filter0_d" x="18" y="0.137695" width="185" height="182.725" filterUnits="userSpaceOnUse" color-interpolation-filters="sRGB">
<feFlood flood-opacity="0" result="BackgroundImageFix"/>
<feColorMatrix in="SourceAlpha" type="matrix" values="0 0 0 0 0 0 0 0 0 0 0 0 0 0 0 0 0 0 127 0"/>
<feOffset dx="-1" dy="9"/>
<feGaussianBlur stdDeviation="10"/>
<feColorMatrix type="matrix" values="0 0 0 0 0.454902 0 0 0 0 0.454902 0 0 0 0 0.737255 0 0 0 0.25 0"/>
<feBlend mode="normal" in2="BackgroundImageFix" result="effect1_dropShadow"/>
<feBlend mode="normal" in="SourceGraphic" in2="effect1_dropShadow" result="shape"/>
</filter>
</defs>
</svg>
