<svg width="211" height="185" viewBox="0 0 211 185" fill="none" xmlns="http://www.w3.org/2000/svg">
<circle cx="166.969" cy="26.9707" r="3" fill="#D7D8DC"/>
<rect x="157.777" y="19.1924" width="2" height="8" rx="1" transform="rotate(-45 157.777 19.1924)" fill="#D7D8DC"/>
<rect x="169.094" y="30.5059" width="2" height="8" rx="1" transform="rotate(-45 169.094 30.5059)" fill="#D7D8DC"/>
<rect x="159.191" y="36.1631" width="2" height="8" rx="1" transform="rotate(-135 159.191 36.1631)" fill="#D7D8DC"/>
<rect x="170.504" y="24.8496" width="2" height="8" rx="1" transform="rotate(-135 170.504 24.8496)" fill="#D7D8DC"/>
<rect x="4" y="71" width="2" height="10" rx="1" fill="#D7D8DC"/>
<rect y="77" width="2" height="10" rx="1" transform="rotate(-90 0 77)" fill="#D7D8DC"/>
<circle cx="24.9688" cy="115.971" r="3" fill="#D7D8DC"/>
<rect x="15.7773" y="108.192" width="2" height="8" rx="1" transform="rotate(-45 15.7773 108.192)" fill="#D7D8DC"/>
<rect x="27.0938" y="119.506" width="2" height="8" rx="1" transform="rotate(-45 27.0938 119.506)" fill="#D7D8DC"/>
<rect x="17.1914" y="125.163" width="2" height="8" rx="1" transform="rotate(-135 17.1914 125.163)" fill="#D7D8DC"/>
<rect x="28.5039" y="113.85" width="2" height="8" rx="1" transform="rotate(-135 28.5039 113.85)" fill="#D7D8DC"/>
<path d="M186.872 131.892C187.411 131.77 187.959 132.107 187.99 132.659C188.022 133.218 187.976 133.781 187.851 134.33C187.652 135.206 187.258 136.026 186.7 136.729C186.142 137.433 185.433 138.002 184.625 138.395C183.818 138.788 182.932 138.995 182.034 139C181.136 139.005 180.248 138.808 179.436 138.425C178.624 138.041 177.909 137.48 177.343 136.783C176.776 136.086 176.374 135.27 176.165 134.397C176.034 133.849 175.981 133.287 176.006 132.727C176.031 132.175 176.576 131.831 177.116 131.948C177.655 132.064 177.989 132.601 178.01 133.153C178.02 133.414 178.056 133.674 178.117 133.93C178.256 134.511 178.524 135.053 178.901 135.517C179.277 135.981 179.754 136.355 180.294 136.61C180.834 136.865 181.425 136.996 182.023 136.993C182.62 136.989 183.21 136.852 183.747 136.59C184.285 136.329 184.756 135.95 185.128 135.482C185.499 135.014 185.761 134.468 185.894 133.885C185.952 133.629 185.985 133.368 185.992 133.107C186.006 132.555 186.334 132.015 186.872 131.892Z" fill="#D7D8DC"/>
<rect x="181" y="137" width="2" height="8" rx="1" fill="#D7D8DC"/>
<circle cx="193" cy="113" r="3" stroke="#D7D8DC" stroke-width="2"/>
<path d="M204 63H210" stroke="#D7D8DC" stroke-width="2" stroke-linecap="round" stroke-linejoin="round"/>
<rect x="26" y="33" width="4" height="8" stroke="#D7D8DC" stroke-width="2"/>
<path d="M38 27L30 33V41L38 47V27Z" stroke="#D7D8DC" stroke-width="2"/>
<g filter="url(#filter0_d)">
<path d="M184 83.5C184 123.541 151.541 156 111.5 156C71.4594 156 39 123.541 39 83.5C39 43.4594 71.4594 11 111.5 11C151.541 11 184 43.4594 184 83.5Z" fill="#165AA2"/>
</g>
<path fill-rule="evenodd" clip-rule="evenodd" d="M90.1277 104L92.1383 107H128.584C128.327 106.03 128.151 105.028 128.063 104H90.1277ZM77 54V84.4127L74 79.9365V53C74 51.8954 74.8954 51 76 51H148C149.105 51 150 51.8954 150 53V85.584C149.03 85.3268 148.028 85.1506 147 85.0634V54H77Z" fill="white"/>
<path d="M111 68V84" stroke="white" stroke-width="3"/>
<line x1="124" y1="78.5" x2="136" y2="78.5" stroke="white" stroke-width="3"/>
<line x1="112" y1="78.5" x2="118" y2="78.5" stroke="white" stroke-width="3"/>
<line x1="89" y1="74.5" x2="110" y2="74.5" stroke="white" stroke-width="3"/>
<path fill-rule="evenodd" clip-rule="evenodd" d="M89 59.5H87.5V61V92V93.5H89H113V90.5H90.5V62.5H134.5V88.8886C135.427 88.1388 136.431 87.4818 137.5 86.9315V61V59.5H136H89ZM128.35 99C128.56 97.9638 128.862 96.9609 129.247 96H121.5V90.5H118.5V97.5V99H120H128.35Z" fill="white"/>
<path d="M66 115H97.5L66 68V115Z" stroke="white" stroke-width="3" stroke-linecap="round" stroke-linejoin="round"/>
<path d="M72.5 108.5H85.5L72.5 89.5V108.5Z" stroke="white" stroke-width="3" stroke-linecap="round" stroke-linejoin="round"/>
<path fill-rule="evenodd" clip-rule="evenodd" d="M147.889 93.3076V92C147.889 90.8954 146.993 90 145.889 90H144.111C143.006 90 142.111 90.8954 142.111 92V93.3076C141.439 93.5078 140.796 93.776 140.19 94.1042L139.264 93.179C138.483 92.3979 137.217 92.3979 136.436 93.179L135.179 94.4361C134.398 95.2171 134.398 96.4834 135.179 97.2645L136.104 98.1897C135.776 98.7956 135.508 99.4387 135.308 100.111H134C132.895 100.111 132 101.007 132 102.111V103.889C132 104.994 132.895 105.889 134 105.889H135.308C135.508 106.561 135.776 107.204 136.104 107.81L135.179 108.735C134.398 109.516 134.398 110.783 135.179 111.564L136.436 112.821C137.217 113.602 138.484 113.602 139.265 112.821L140.19 111.896C140.795 112.224 141.439 112.492 142.111 112.692V114C142.111 115.105 143.006 116 144.111 116H145.889C146.993 116 147.889 115.105 147.889 114V112.692C148.561 112.492 149.204 112.224 149.81 111.896L150.735 112.821C151.516 113.602 152.783 113.602 153.564 112.821L154.821 111.564C155.602 110.783 155.602 109.516 154.821 108.735L153.896 107.81C154.224 107.204 154.492 106.561 154.692 105.889H156C157.105 105.889 158 104.994 158 103.889V102.111C158 101.007 157.105 100.111 156 100.111H154.692C154.489 99.4271 154.215 98.7733 153.879 98.1583L154.797 97.2403C155.578 96.4593 155.578 95.193 154.797 94.4119L153.539 93.1548C152.758 92.3738 151.492 92.3738 150.711 93.1548L149.779 94.0872C149.182 93.7667 148.55 93.5043 147.889 93.3076ZM150.296 103C150.296 105.925 147.925 108.296 145 108.296C142.075 108.296 139.704 105.925 139.704 103C139.704 100.075 142.075 97.7037 145 97.7037C147.925 97.7037 150.296 100.075 150.296 103Z" fill="white"/>
<defs>
<filter id="filter0_d" x="18" y="0" width="185" height="185" filterUnits="userSpaceOnUse" color-interpolation-filters="sRGB">
<feFlood flood-opacity="0" result="BackgroundImageFix"/>
<feColorMatrix in="SourceAlpha" type="matrix" values="0 0 0 0 0 0 0 0 0 0 0 0 0 0 0 0 0 0 127 0"/>
<feOffset dx="-1" dy="9"/>
<feGaussianBlur stdDeviation="10"/>
<feColorMatrix type="matrix" values="0 0 0 0 0.454902 0 0 0 0 0.454902 0 0 0 0 0.737255 0 0 0 0.25 0"/>
<feBlend mode="normal" in2="BackgroundImageFix" result="effect1_dropShadow"/>
<feBlend mode="normal" in="SourceGraphic" in2="effect1_dropShadow" result="shape"/>
</filter>
</defs>
</svg>
