<svg width="172" height="50" viewBox="0 0 172 50" fill="none" xmlns="http://www.w3.org/2000/svg">
<path d="M101.618 48.9073H98.227L95.1764 44.2402H91.907V48.9073H89.0508V37.3124H96.9266C97.7409 37.3124 98.3729 37.3853 98.8226 37.5312C99.5518 37.7499 100.111 38.151 100.512 38.7344C100.913 39.3178 101.108 39.9984 101.108 40.7763C101.108 41.3354 101.01 41.8458 100.804 42.3077C100.561 42.8546 100.232 43.2557 99.7949 43.5109C99.3574 43.7662 98.7983 43.9485 98.1298 44.07L101.618 48.9195V48.9073ZM91.9191 39.3421V42.1861H96.6349C97.6923 42.1861 98.227 41.7243 98.227 40.8006C98.227 39.8283 97.6558 39.3421 96.5255 39.3421H91.9191ZM102.833 37.3002H105.69V44.3617C105.69 44.8357 105.775 45.2368 105.957 45.5893C106.139 45.9296 106.382 46.197 106.698 46.3914C107.014 46.5859 107.367 46.7196 107.756 46.8047C108.145 46.8897 108.558 46.9384 109.032 46.9384C109.433 46.9384 109.81 46.9019 110.162 46.829C110.515 46.756 110.867 46.6345 111.207 46.4765C111.548 46.3063 111.815 46.0754 112.022 45.7594C112.216 45.4434 112.326 45.0788 112.326 44.6534V37.2881H115.182V44.6656C115.182 46.1848 114.623 47.3394 113.492 48.1173C112.374 48.8951 110.891 49.2841 109.068 49.2841C107.209 49.2841 105.714 48.8951 104.559 48.1051C103.417 47.3151 102.846 46.1605 102.846 44.6412V37.3002H102.833ZM117.54 37.3002H124.954C125.391 37.3002 125.744 37.3124 126.023 37.3367C126.303 37.361 126.667 37.4461 127.105 37.5919C127.542 37.7378 127.895 37.9566 128.162 38.2604C128.6 38.7587 128.806 39.3786 128.806 40.1443C128.806 41.3718 128.174 42.1983 126.91 42.6115C128.551 43.0005 129.378 43.9728 129.39 45.5406C129.39 46.355 129.22 46.9991 128.892 47.4974C128.673 47.8256 128.43 48.093 128.15 48.2996C127.871 48.5062 127.555 48.6521 127.19 48.7371C126.825 48.8222 126.534 48.8708 126.303 48.883C126.072 48.8951 125.768 48.9073 125.379 48.9073H117.528V37.3124L117.54 37.3002ZM120.372 41.8458H124.686C125.61 41.8458 126.06 41.4204 126.06 40.5697C126.048 39.731 125.598 39.3056 124.698 39.3056H120.372V41.858V41.8458ZM120.372 46.8533H124.844C125.975 46.8533 126.546 46.3307 126.546 45.2733C126.546 44.3374 126.035 43.8634 125.027 43.8634H120.372V46.8533ZM142.492 48.8951H131.505V37.3002H142.164V39.3907H134.373V42.0038H141.908V44.07H134.373V46.829H142.492V48.8951ZM155.776 48.8951H144.011V46.7803L151.899 39.3543H144.582V37.3002H155.776V39.3543L147.876 46.7803H155.776V48.8951ZM171.042 48.8951H168.173V43.912H161.27V48.8951H158.401V37.3002H161.27V41.7729H168.173V37.3002H171.042V48.8951Z" fill="#6B7785"/>
<path d="M1 22.042L7.14839 20.4763C8.47227 23.2768 11.5146 24.677 16.2755 24.677C16.8102 24.677 17.3575 24.6516 17.9176 24.6007C18.4777 24.5243 19.1906 24.3843 20.0562 24.1806C20.9218 23.9769 21.6219 23.6205 22.1566 23.1113C22.7167 22.5767 22.9967 21.9147 22.9967 21.1255C22.9967 20.7691 22.9331 20.4508 22.8058 20.1708C22.704 19.8907 22.4875 19.6489 22.1566 19.4452C21.8511 19.2415 21.5583 19.076 21.2782 18.9487C21.0236 18.8214 20.6163 18.6941 20.0562 18.5668C19.4961 18.4395 19.0378 18.3504 18.6814 18.2995C18.3504 18.2231 17.8158 18.134 17.0775 18.0322C14.9389 17.7012 13.4495 17.4721 12.6094 17.3448C11.7692 17.192 10.84 16.9884 9.82161 16.7338C8.80324 16.4792 7.95036 16.1864 7.26296 15.8554C4.43699 14.5316 3.024 12.393 3.024 9.43972C3.024 7.53028 3.6223 5.92635 4.81888 4.62794C6.01546 3.30406 7.53028 2.3748 9.36334 1.84015C11.1964 1.28005 13.2841 1 15.6263 1C22.6276 1 27.3375 3.1513 29.7561 7.4539L23.3786 9.05783C22.233 6.8938 19.5852 5.81179 15.4354 5.81179C11.5146 5.81179 9.55428 6.85561 9.55428 8.94327C9.55428 10.038 10.2671 10.8145 11.6929 11.2728C12.3039 11.451 15.1935 11.9984 20.3617 12.9149C21.3037 13.0931 22.0802 13.2459 22.6912 13.3732C23.3022 13.5005 24.0787 13.7551 25.0207 14.1369C25.9882 14.5188 26.752 14.9644 27.3121 15.4735C27.8722 15.9827 28.3686 16.6829 28.8014 17.5739C29.2342 18.4395 29.4506 19.4452 29.4506 20.5908C29.4506 26.6247 24.8807 29.6416 15.7409 29.6416C11.922 29.6416 8.84143 29.0178 6.49918 27.7703C4.1824 26.5228 2.34934 24.6134 1 22.042Z" fill="#6B7785"/>
<path d="M33.6899 15.3208C33.6899 12.8003 34.1482 10.5981 35.0647 8.71413C35.9812 6.8047 37.216 5.31533 38.769 4.24605C40.3475 3.1513 42.0787 2.33661 43.9627 1.80197C45.8721 1.26732 47.9088 1 50.0729 1C52.2878 1 54.3373 1.24186 56.2213 1.72559C58.1307 2.20931 59.8874 2.97309 61.4913 4.01691C63.1207 5.06074 64.4064 6.52464 65.3484 8.40862C66.2904 10.2926 66.7614 12.5076 66.7614 15.0535C66.7614 19.5852 65.3229 23.1622 62.446 25.7845C59.5946 28.3814 55.5466 29.6798 50.302 29.6798C45.0574 29.6798 40.9712 28.3814 38.0434 25.7845C35.1411 23.1877 33.6899 19.6998 33.6899 15.3208ZM40.6402 15.5117C40.6402 16.6574 40.8185 17.7649 41.1749 18.8342C41.5313 19.878 42.066 20.8709 42.7788 21.8129C43.5171 22.7294 44.5228 23.4677 45.7957 24.0278C47.0942 24.5625 48.5708 24.8298 50.2256 24.8298C51.9059 24.8298 53.3698 24.5625 54.6173 24.0278C55.8648 23.4677 56.8068 22.8185 57.4433 22.0802C58.1052 21.3164 58.6272 20.4508 59.009 19.4834C59.4164 18.5159 59.6583 17.7267 59.7346 17.1157C59.8365 16.4792 59.8874 15.8936 59.8874 15.359C59.8874 12.7621 59.0345 10.5345 57.3287 8.67595C55.6484 6.79197 53.2807 5.84998 50.2256 5.84998C47.1196 5.84998 44.7392 6.81742 43.0843 8.75232C41.4549 10.6618 40.6402 12.9149 40.6402 15.5117Z" fill="#6B7785"/>
<path d="M102.067 28.8014H95.4217L78.7714 9.89798V28.8014H72.3557V1.84015H79.1151L95.6509 20.6672V1.84015H102.067V28.8014Z" fill="#6B7785"/>
<path d="M138.631 28.8014H131.07L128.779 23.7223H114.954L112.663 28.8014H105.293L118.315 1.84015H125.609L138.631 28.8014ZM126.602 18.9487L121.905 8.40862L117.131 18.9487H126.602Z" fill="#6B7785"/>
<path d="M171.245 28.8014H163.263L156.084 17.9558H148.37V28.8014H141.648V1.84015H160.208C162.118 1.84015 163.607 2.00564 164.676 2.33661C166.382 2.84579 167.706 3.78778 168.648 5.16258C169.59 6.51191 170.061 8.09038 170.061 9.89798C170.061 11.1964 169.819 12.3803 169.335 13.4495C168.775 14.7225 167.973 15.6518 166.929 16.2373C165.911 16.8229 164.613 17.2557 163.034 17.5357L171.245 28.8014ZM148.37 6.57556V13.1822H159.483C161.978 13.1822 163.225 12.1129 163.225 9.97436C163.225 7.7085 161.888 6.57556 159.215 6.57556H148.37Z" fill="#6B7785"/>
</svg>
